<?xml version="1.0" standalone="no"?>
<!DOCTYPE svg PUBLIC "-//W3C//DTD SVG 20010904//EN"
 "http://www.w3.org/TR/2001/REC-SVG-20010904/DTD/svg10.dtd">
<svg version="1.0" xmlns="http://www.w3.org/2000/svg"
 width="3034.000000pt" height="1172.000000pt" viewBox="0 0 3034.000000 1172.000000"
 preserveAspectRatio="xMidYMid meet">

<g transform="translate(0.000000,1172.000000) scale(0.100000,-0.100000)"
fill="#000000" stroke="none">
<path d="M23725 9183 c-42 -7 -61 -27 -80 -86 -9 -29 -32 -68 -51 -88 -27 -27
-37 -50 -49 -105 -11 -54 -20 -75 -43 -94 -39 -33 -49 -54 -57 -124 -7 -53
-13 -64 -51 -102 -35 -33 -44 -49 -44 -76 0 -56 -20 -109 -51 -138 -23 -21
-35 -46 -50 -106 -12 -47 -30 -89 -44 -104 -31 -34 -53 -80 -66 -139 -6 -27
-21 -61 -35 -76 -37 -40 -54 -80 -65 -148 -7 -49 -15 -67 -38 -87 -36 -32 -57
-73 -65 -133 -5 -35 -18 -59 -47 -93 -21 -25 -39 -47 -39 -48 0 -2 -5 -27 -10
-56 -8 -42 -20 -63 -55 -101 -35 -37 -45 -56 -45 -81 0 -51 -17 -99 -46 -129
-18 -19 -34 -56 -50 -116 -17 -62 -31 -94 -48 -110 -23 -20 -66 -122 -66 -157
0 -9 -13 -30 -29 -48 -38 -44 -46 -62 -66 -138 -10 -41 -27 -76 -45 -95 -37
-40 -46 -60 -59 -130 -9 -46 -19 -67 -46 -95 -37 -38 -55 -83 -55 -138 0 -25
-10 -43 -43 -76 -37 -38 -44 -52 -54 -110 -9 -53 -18 -75 -46 -105 -23 -25
-39 -56 -47 -92 -17 -73 -37 -120 -60 -141 -11 -10 -31 -56 -45 -102 -14 -46
-34 -91 -45 -101 -25 -23 -56 -90 -64 -142 -5 -25 -20 -56 -40 -80 -45 -52
-52 -69 -61 -132 -6 -42 -15 -62 -37 -85 -45 -45 -56 -66 -64 -125 -6 -47 -13
-61 -51 -97 -33 -33 -43 -50 -43 -76 -1 -59 -18 -110 -48 -142 -20 -20 -38
-57 -51 -103 -15 -50 -31 -81 -52 -101 -23 -21 -35 -47 -50 -107 -12 -51 -28
-89 -44 -105 -31 -32 -49 -78 -65 -163 -10 -56 -18 -72 -41 -89 -29 -22 -53
-74 -63 -138 -4 -23 -19 -47 -40 -67 -38 -36 -52 -67 -61 -137 -5 -36 -15 -56
-40 -82 -33 -33 -55 -85 -55 -132 0 -30 -22 -71 -53 -100 -17 -16 -31 -47 -43
-95 -13 -52 -25 -79 -49 -103 -24 -24 -37 -50 -50 -104 -12 -48 -28 -83 -49
-109 -19 -22 -39 -65 -50 -102 -23 -83 -43 -129 -56 -129 -16 0 -48 -71 -55
-125 -9 -61 -15 -73 -58 -116 -26 -26 -36 -48 -46 -95 -9 -49 -19 -69 -50
-100 -33 -35 -39 -48 -49 -113 -9 -61 -16 -79 -42 -106 -22 -23 -37 -53 -50
-104 -13 -51 -28 -82 -53 -110 -23 -25 -38 -56 -47 -92 -19 -85 -19 -86 -54
-128 -18 -21 -38 -61 -45 -88 -22 -85 -42 -133 -61 -143 -22 -12 -45 -69 -54
-133 -6 -37 -16 -56 -46 -86 -40 -39 -44 -50 -55 -135 -5 -39 -14 -56 -46 -87
-36 -35 -39 -43 -39 -92 0 -76 10 -82 139 -83 58 -1 140 -3 181 -3 107 -3 220
15 245 39 27 25 58 36 127 44 52 7 61 12 93 50 19 23 45 48 58 55 14 7 34 30
45 50 12 20 32 43 45 50 25 13 30 22 62 98 10 23 27 50 37 60 31 28 49 70 58
135 7 50 15 67 49 103 23 25 41 51 41 59 0 48 25 120 54 154 22 27 37 61 50
115 13 55 25 84 46 104 27 26 45 70 70 171 6 24 20 51 31 60 31 26 56 81 64
141 6 45 14 61 46 92 39 38 43 49 54 130 4 36 14 54 45 84 28 27 40 49 45 79
13 85 18 99 50 135 26 29 39 58 59 135 17 67 32 107 49 125 14 14 37 51 50 83
27 61 41 72 108 87 28 6 671 11 1719 12 1554 1 1679 0 1733 -15 64 -19 76 -33
102 -116 10 -30 31 -70 46 -87 16 -18 33 -52 39 -75 23 -90 34 -114 66 -150
26 -29 34 -48 39 -95 8 -73 22 -109 50 -131 29 -23 41 -48 50 -102 7 -46 40
-110 56 -110 13 0 36 -50 44 -95 9 -50 30 -91 65 -132 16 -18 33 -53 39 -83
13 -61 32 -101 65 -133 15 -15 29 -49 40 -100 14 -62 25 -86 57 -123 21 -25
39 -51 39 -58 0 -37 34 -119 60 -143 17 -17 37 -54 50 -93 12 -36 34 -78 50
-95 16 -18 37 -60 51 -104 13 -44 33 -84 49 -100 15 -14 35 -47 44 -73 9 -25
32 -62 51 -82 18 -19 41 -57 51 -83 9 -27 23 -55 31 -63 12 -13 181 -15 1386
-17 1346 -3 1372 -2 1397 17 l25 19 -28 28 -27 28 -228 0 c-196 1 -233 3 -272
19 -109 44 -154 56 -241 66 -91 10 -121 22 -159 60 -10 10 -44 25 -76 35 -43
12 -69 27 -96 55 -20 22 -52 46 -71 54 -19 7 -42 27 -52 43 -9 16 -30 36 -46
46 -17 9 -36 32 -44 51 -8 20 -28 45 -44 57 -17 12 -43 50 -60 84 -16 34 -40
74 -54 87 -14 14 -32 49 -40 79 -11 35 -28 66 -51 88 -25 24 -38 49 -45 83
-14 64 -34 101 -65 121 -19 13 -28 31 -37 79 -10 54 -18 69 -54 103 -34 32
-45 52 -55 95 -9 41 -23 66 -52 96 -28 30 -43 57 -54 100 -10 38 -28 72 -49
96 -19 20 -39 56 -45 80 -6 24 -14 52 -17 63 -3 11 -20 36 -38 55 -19 21 -41
61 -54 100 -12 38 -32 76 -49 91 -15 15 -35 51 -45 81 -9 31 -28 71 -42 89
-29 40 -47 77 -70 143 -10 26 -30 62 -45 80 -15 17 -33 52 -40 76 -15 57 -36
98 -65 130 -13 14 -29 45 -35 70 -15 55 -35 96 -66 133 -13 15 -30 50 -38 76
-18 62 -39 101 -64 124 -11 10 -26 42 -33 70 -17 73 -37 118 -64 145 -13 13
-35 57 -49 98 -15 44 -36 86 -54 103 -19 19 -35 52 -47 96 -10 39 -29 81 -45
99 -27 30 -50 86 -65 153 -3 18 -20 45 -36 60 -20 19 -37 53 -54 108 -17 55
-34 89 -54 107 -19 19 -34 48 -47 94 -11 41 -30 81 -50 105 -29 35 -54 107
-54 155 0 8 -18 34 -40 57 -29 32 -41 55 -45 88 -9 64 -33 115 -62 130 -28 15
-43 46 -43 90 0 39 -22 90 -58 136 -16 21 -39 71 -51 110 -13 43 -34 87 -51
106 -19 23 -35 59 -50 117 -16 63 -30 94 -54 120 -20 22 -38 56 -45 86 -18 75
-31 102 -57 119 -17 11 -30 37 -46 91 -14 49 -34 91 -54 116 -23 27 -35 53
-39 86 -10 81 -14 90 -54 136 -29 34 -42 58 -47 93 -7 54 -26 95 -60 136 -13
15 -32 58 -44 95 -11 38 -35 86 -54 110 -20 24 -39 64 -47 95 -17 72 -34 111
-63 142 -16 17 -31 54 -42 101 -13 55 -27 86 -51 114 -30 34 -52 105 -53 162
0 4 -20 30 -44 57 -31 35 -46 62 -51 93 -9 51 -19 73 -55 114 -19 22 -33 56
-44 107 -13 59 -25 84 -52 113 -19 21 -39 56 -44 79 -21 85 -33 114 -61 146
-16 19 -34 52 -40 74 -21 76 -41 119 -68 151 -19 21 -34 57 -46 105 -13 55
-26 83 -50 109 -23 24 -39 56 -51 100 -10 40 -28 77 -45 95 -15 17 -40 63 -55
104 -24 64 -32 75 -63 89 -40 16 -100 23 -146 15z m-207 -2246 c12 -13 26 -47
32 -76 7 -40 20 -64 49 -96 31 -34 40 -53 46 -96 10 -71 20 -95 55 -135 30
-35 41 -66 61 -167 8 -44 19 -68 44 -94 33 -35 45 -69 45 -125 0 -38 15 -66
55 -104 25 -23 35 -42 41 -80 10 -72 30 -122 63 -160 22 -25 34 -55 48 -115
10 -51 26 -93 40 -110 28 -33 53 -90 53 -121 0 -45 21 -97 54 -137 21 -25 39
-61 46 -93 18 -74 37 -119 65 -148 16 -16 32 -54 44 -104 12 -49 29 -88 44
-105 35 -38 44 -59 52 -126 8 -68 16 -87 56 -132 16 -18 33 -52 39 -75 24
-100 32 -119 64 -157 25 -30 38 -60 51 -116 12 -56 24 -84 45 -105 30 -31 50
-84 50 -133 0 -35 32 -98 58 -114 26 -16 48 -113 32 -142 -25 -48 22 -46
-1355 -49 -828 -2 -1323 1 -1364 7 -46 7 -72 17 -88 34 -22 21 -23 29 -17 76
6 43 14 60 44 90 40 39 45 50 55 123 5 37 13 52 36 69 37 26 59 68 59 111 0
54 18 102 49 132 23 22 34 46 47 108 13 60 26 90 50 119 32 38 42 61 64 146 6
23 26 60 45 83 33 40 46 72 59 151 4 20 15 44 27 54 35 33 57 79 64 138 5 48
13 66 42 98 26 29 40 58 55 116 14 55 28 87 49 108 20 22 35 54 48 108 22 86
36 116 61 134 22 16 45 74 54 137 5 31 16 57 32 73 39 39 52 65 59 123 8 64
17 84 55 125 16 18 34 57 44 95 12 45 28 76 51 100 27 28 37 51 51 120 13 59
26 93 45 115 38 43 50 70 65 144 13 60 19 71 81 133 37 37 70 68 73 68 4 0 16
-10 28 -23z"/>
<path d="M15500 9080 c-172 -8 -226 -17 -290 -50 -47 -24 -131 -36 -300 -46
-128 -6 -160 -15 -238 -65 -25 -16 -60 -24 -145 -31 -166 -14 -173 -16 -216
-52 -41 -34 -58 -39 -215 -60 -21 -3 -48 -12 -60 -21 -11 -9 -36 -26 -53 -39
-18 -13 -53 -27 -79 -31 -71 -10 -123 -32 -152 -63 -19 -20 -47 -34 -96 -46
-49 -12 -81 -27 -106 -50 -25 -22 -59 -39 -104 -51 -49 -13 -72 -25 -84 -43
-9 -14 -41 -36 -71 -49 -31 -14 -73 -41 -95 -60 -21 -19 -58 -44 -82 -55 -24
-10 -51 -30 -60 -43 -8 -13 -32 -31 -52 -41 -20 -9 -58 -35 -83 -58 -26 -22
-89 -77 -142 -120 -53 -44 -105 -92 -117 -108 -12 -16 -36 -36 -53 -44 -18 -9
-40 -29 -49 -45 -9 -16 -33 -37 -54 -46 -25 -12 -43 -32 -60 -66 -14 -26 -32
-51 -40 -54 -8 -3 -34 -33 -57 -67 -40 -60 -65 -89 -160 -184 -28 -29 -52 -64
-58 -86 -6 -20 -23 -51 -38 -69 -16 -17 -42 -59 -59 -93 -17 -33 -42 -68 -56
-77 -18 -12 -31 -37 -46 -87 -15 -50 -28 -75 -46 -87 -33 -21 -50 -56 -59
-121 -6 -47 -33 -92 -55 -92 -15 0 -38 -60 -44 -114 -6 -55 -31 -116 -48 -116
-16 0 -37 -60 -52 -146 -10 -55 -23 -98 -36 -114 -49 -61 -54 -73 -67 -188
-11 -99 -19 -129 -50 -191 -31 -64 -37 -89 -45 -175 -19 -233 -28 -304 -47
-358 -38 -110 -51 -260 -51 -583 0 -332 6 -389 49 -520 24 -74 32 -119 40
-250 16 -222 21 -245 72 -315 13 -17 22 -57 29 -130 13 -125 19 -148 59 -197
28 -35 38 -67 56 -175 3 -23 21 -55 44 -82 30 -34 40 -56 45 -97 8 -61 24 -96
60 -126 23 -20 31 -41 50 -126 4 -16 24 -45 45 -66 27 -27 42 -52 51 -89 8
-37 22 -62 47 -85 19 -17 45 -52 58 -77 12 -25 37 -61 54 -80 17 -19 40 -54
51 -77 11 -24 29 -49 41 -55 11 -7 30 -31 41 -53 11 -22 39 -59 62 -82 91 -92
134 -140 168 -188 39 -54 162 -175 206 -203 25 -16 146 -129 268 -250 29 -28
59 -52 68 -52 8 0 31 -16 50 -35 19 -19 64 -47 99 -64 36 -16 70 -38 76 -49 6
-11 36 -33 67 -48 30 -15 62 -38 71 -50 9 -14 41 -33 76 -46 34 -12 79 -38
100 -57 25 -22 60 -40 103 -52 44 -12 78 -30 103 -52 29 -26 56 -38 113 -51
56 -13 82 -24 103 -46 20 -20 47 -33 99 -46 69 -16 98 -29 180 -79 28 -17 62
-25 120 -30 79 -7 126 -23 194 -66 26 -17 64 -25 169 -35 114 -11 147 -19 198
-43 82 -40 120 -47 315 -61 170 -12 230 -22 266 -45 11 -7 61 -21 110 -30 78
-15 170 -18 759 -19 599 -1 681 1 775 17 58 10 125 24 150 32 80 25 161 36
375 49 195 12 216 16 287 44 95 38 156 49 331 61 129 9 142 12 210 46 61 30
93 38 193 50 157 19 161 21 185 67 11 22 33 47 49 56 35 20 55 66 75 169 8 40
24 91 36 113 17 30 21 49 17 89 -3 28 -12 59 -21 69 -8 9 -27 58 -41 107 -15
50 -31 92 -37 93 -5 2 -31 18 -57 36 l-48 32 -60 -18 c-45 -13 -70 -28 -98
-58 -20 -22 -64 -54 -96 -70 -33 -16 -64 -38 -69 -49 -6 -10 -35 -28 -65 -41
-34 -13 -65 -35 -80 -55 -18 -23 -43 -39 -86 -54 -34 -11 -77 -34 -96 -50 -36
-32 -46 -36 -128 -46 -38 -5 -58 -15 -92 -47 -43 -40 -47 -41 -153 -53 -106
-12 -130 -20 -181 -56 -38 -27 -124 -39 -370 -52 -276 -14 -593 -13 -890 1
-253 12 -295 19 -378 63 -49 25 -77 32 -168 40 -143 13 -148 14 -187 49 -34
29 -99 49 -209 65 -29 4 -60 17 -84 36 -20 16 -62 36 -93 45 -87 24 -109 34
-125 60 -9 13 -33 28 -56 34 -22 5 -58 15 -80 20 -22 6 -55 24 -74 40 -18 16
-58 39 -88 51 -32 12 -71 37 -91 58 -21 22 -53 43 -79 50 -23 7 -62 30 -85 51
-22 21 -59 48 -80 58 -21 11 -44 31 -50 45 -6 13 -32 34 -57 45 -39 19 -103
71 -156 129 -17 18 -30 31 -110 101 -130 116 -184 170 -206 209 -14 23 -36 48
-49 57 -14 9 -34 34 -44 55 -11 21 -32 46 -46 55 -14 9 -39 39 -56 66 -17 27
-39 52 -50 55 -11 4 -33 33 -50 66 -16 33 -39 67 -51 77 -11 9 -32 42 -45 72
-14 30 -40 69 -58 85 -25 24 -35 44 -45 90 -9 49 -19 67 -50 96 -29 28 -43 53
-60 108 -13 45 -28 75 -40 81 -26 14 -40 42 -61 122 -11 44 -28 80 -47 103
-21 23 -33 49 -37 82 -10 73 -43 179 -60 193 -27 22 -35 46 -45 127 -17 132
-30 180 -60 218 -32 40 -35 60 -49 267 -8 120 -10 130 -46 193 -37 66 -37 68
-46 223 -11 210 -11 1120 1 1301 8 136 11 148 45 216 32 65 37 87 50 216 8 79
15 147 15 150 0 3 13 23 30 44 32 41 42 70 60 183 10 61 18 80 50 117 30 35
39 54 45 102 8 68 18 89 55 124 19 17 32 45 41 82 12 57 21 70 72 108 17 13
31 37 38 63 6 24 24 58 41 76 16 18 41 56 54 85 14 30 37 58 54 69 17 9 39 35
50 56 11 22 33 46 49 54 16 9 38 31 50 51 11 19 36 45 55 56 19 11 38 30 42
41 9 29 117 134 162 157 20 11 45 33 55 50 10 17 33 38 50 47 18 9 48 31 67
50 19 18 61 45 93 59 32 15 65 37 73 50 8 13 39 33 68 45 29 11 69 36 89 55
21 20 51 37 74 41 49 9 81 25 119 62 20 19 47 32 75 37 68 12 116 31 158 65
32 26 54 34 129 45 88 13 152 36 152 54 0 21 92 42 215 49 130 9 142 12 236
63 58 31 199 38 749 38 587 0 664 -4 753 -48 70 -34 120 -45 282 -60 84 -9
116 -16 135 -31 46 -37 75 -47 169 -63 85 -15 98 -20 129 -52 32 -33 62 -45
143 -59 24 -4 51 -21 82 -51 25 -25 54 -45 66 -45 28 0 91 -32 115 -59 10 -11
40 -28 68 -37 31 -10 57 -27 71 -46 12 -16 38 -38 57 -48 108 -55 419 -378
435 -451 4 -18 26 -50 51 -74 33 -31 49 -56 60 -97 9 -32 30 -71 50 -93 24
-27 35 -51 39 -84 11 -93 26 -149 56 -211 26 -52 33 -82 41 -174 8 -100 34
-196 53 -196 3 0 15 19 25 43 19 40 20 73 20 767 1 800 5 892 44 948 14 21 32
66 40 102 15 63 15 66 -7 110 -32 65 -73 82 -222 91 -180 12 -214 18 -289 57
-66 35 -73 36 -210 43 -207 11 -315 28 -336 54 -20 24 -148 43 -364 55 -165 8
-220 15 -265 31 -31 11 -96 29 -146 40 -85 19 -136 20 -930 23 -462 2 -914 0
-1005 -4z"/>
<path d="M2547 8962 c-22 -24 -21 -34 2 -64 l20 -25 258 5 c245 4 262 3 338
-18 138 -39 238 -59 290 -60 92 -1 135 -15 170 -53 18 -20 49 -43 68 -51 42
-17 137 -107 160 -151 8 -16 31 -44 50 -61 30 -27 36 -39 41 -90 4 -32 13 -86
21 -119 8 -33 17 -80 21 -105 5 -36 32 -88 70 -138 3 -4 1585 -4 1589 0 1 2
14 23 28 48 25 44 26 51 24 185 l-2 140 40 79 c22 43 51 86 65 95 21 14 76 16
465 18 512 2 579 -2 638 -44 57 -40 84 -50 153 -58 76 -10 97 -18 126 -49 15
-17 49 -33 93 -45 55 -16 76 -27 100 -55 18 -22 48 -42 76 -51 26 -9 64 -31
85 -49 22 -18 58 -43 81 -54 23 -12 49 -35 59 -51 9 -16 35 -39 56 -51 22 -12
48 -36 58 -52 10 -17 32 -38 49 -49 16 -10 39 -35 50 -56 10 -21 33 -48 50
-61 17 -12 42 -45 56 -73 14 -27 37 -59 51 -71 13 -12 31 -44 39 -71 9 -29 31
-67 54 -92 28 -30 41 -54 45 -86 17 -107 29 -150 51 -181 14 -18 30 -44 36
-58 18 -41 31 -377 24 -630 -7 -250 -15 -313 -45 -345 -25 -26 -46 -78 -55
-135 -9 -53 -25 -88 -53 -113 -11 -10 -30 -42 -42 -72 -14 -34 -35 -64 -61
-84 -21 -18 -46 -45 -54 -60 -8 -16 -30 -38 -49 -49 -19 -11 -42 -34 -50 -51
-9 -16 -33 -39 -53 -51 -21 -12 -47 -36 -58 -53 -14 -21 -38 -38 -79 -54 -33
-13 -74 -36 -90 -52 -19 -17 -59 -37 -102 -50 -39 -11 -78 -28 -85 -37 -23
-28 -91 -54 -141 -54 -54 0 -179 -23 -223 -40 -36 -15 -53 -15 -668 -29 l-488
-11 -52 26 c-84 43 -104 61 -136 126 l-31 61 0 376 c0 350 -2 379 -20 419 -10
23 -23 42 -27 42 -4 1 -364 1 -800 1 -878 1 -831 4 -852 -64 -12 -42 -26
-2247 -26 -4247 0 -1246 2 -1539 13 -1558 13 -22 19 -23 135 -23 2177 -10
4028 -9 4085 1 37 6 90 22 118 35 67 32 116 42 244 50 107 7 158 23 210 64 15
12 53 24 95 31 39 5 84 12 102 15 18 3 50 21 72 39 29 24 63 39 128 55 66 17
96 30 119 52 17 16 61 41 98 54 37 14 83 38 102 54 18 17 51 35 73 42 22 6 61
29 86 50 26 21 65 44 87 51 25 7 50 25 66 46 14 18 41 42 61 52 20 10 47 30
61 45 14 15 53 45 88 67 34 22 62 44 62 49 0 5 25 25 55 44 30 20 62 49 70 66
9 16 31 37 50 46 19 9 38 26 41 37 6 19 40 58 147 167 20 21 53 65 71 96 19
32 48 68 65 81 18 13 35 38 42 63 7 22 26 53 42 69 16 15 40 59 54 97 13 37
37 82 53 98 23 24 35 53 54 134 13 57 33 116 44 131 39 53 52 125 58 325 3
105 1 258 -4 340 -9 153 -19 191 -62 245 -12 16 -24 54 -31 104 -11 71 -16 83
-54 126 -27 30 -45 62 -50 86 -9 51 -31 91 -55 104 -11 6 -29 27 -39 48 -11
20 -42 65 -70 100 -28 35 -51 68 -51 74 0 5 -24 34 -52 63 -29 30 -60 61 -68
70 -8 8 -32 29 -52 46 -20 17 -40 38 -43 48 -3 9 -25 27 -50 39 -24 12 -50 31
-57 42 -7 12 -39 37 -72 57 -32 20 -78 55 -102 79 -24 24 -50 44 -57 44 -8 0
-27 17 -44 38 -22 27 -45 42 -85 55 -33 10 -67 30 -88 52 -18 19 -50 40 -69
46 -20 6 -52 27 -72 45 -24 24 -56 40 -103 53 -46 13 -78 29 -100 50 -22 21
-57 39 -101 53 -46 13 -77 29 -94 49 -18 21 -45 34 -108 50 -50 13 -94 32
-109 46 -35 32 -86 52 -162 63 -51 7 -72 15 -96 38 -42 40 -61 48 -126 57 -70
9 -99 20 -130 49 -14 13 -51 38 -83 56 -74 41 -80 56 -37 89 19 14 55 44 81
67 29 26 64 45 94 53 32 8 60 24 84 48 20 20 65 49 100 64 41 17 69 36 77 52
8 13 33 34 57 45 24 11 51 32 61 46 9 14 33 37 54 50 21 13 109 95 195 182
218 220 242 245 257 274 7 14 30 41 51 60 27 26 42 50 53 92 10 34 26 64 39
75 37 29 55 64 62 122 6 44 15 62 46 96 39 42 39 44 50 156 10 123 34 264 50
306 18 48 12 153 -14 233 -16 46 -28 113 -32 175 -7 99 -32 185 -55 185 -12 0
-33 44 -55 122 -11 34 -30 70 -51 91 -18 20 -36 52 -40 72 -4 25 -18 45 -46
68 -21 17 -48 46 -59 64 -12 19 -34 40 -50 48 -16 9 -36 29 -44 46 -9 17 -32
40 -51 51 -19 11 -42 34 -50 50 -9 18 -32 37 -59 49 -24 11 -53 32 -64 47 -13
19 -38 34 -76 46 -40 12 -68 30 -94 57 -28 31 -50 43 -96 55 -39 10 -73 28
-97 49 -37 34 -90 55 -139 55 -14 0 -41 11 -60 25 -58 43 -98 56 -212 71 -73
9 -121 21 -141 34 -80 52 -86 53 -411 66 -170 7 -431 14 -580 14 -148 1 -405
5 -570 10 -727 20 -3444 71 -3791 70 -221 0 -242 -2 -257 -18z m4300 -4012
c74 -8 104 -16 160 -46 61 -31 83 -37 174 -44 124 -11 160 -20 199 -54 18 -14
53 -29 87 -36 126 -24 157 -34 177 -55 35 -36 68 -53 130 -64 47 -9 65 -18 95
-49 21 -21 55 -43 78 -50 23 -7 50 -23 61 -36 10 -13 48 -37 84 -54 40 -18 73
-41 87 -61 13 -17 39 -40 59 -50 21 -11 47 -33 60 -50 12 -17 39 -40 60 -50
21 -11 43 -31 49 -44 7 -14 27 -33 46 -42 19 -9 43 -32 53 -51 11 -19 29 -42
42 -50 12 -8 32 -34 43 -57 12 -23 36 -52 55 -65 18 -12 42 -39 53 -59 10 -21
33 -48 49 -60 19 -14 38 -43 52 -80 12 -32 34 -72 51 -88 16 -18 39 -62 54
-104 13 -40 38 -88 54 -106 16 -18 32 -46 35 -62 3 -15 10 -54 16 -85 7 -35
22 -71 40 -94 36 -44 50 -91 50 -164 0 -68 21 -154 55 -219 33 -66 45 -178 45
-426 0 -248 -10 -318 -56 -411 -26 -54 -37 -91 -43 -151 -8 -78 -28 -126 -56
-137 -8 -3 -24 -38 -35 -78 -17 -56 -31 -80 -60 -108 -23 -21 -43 -52 -51 -78
-7 -24 -31 -62 -56 -88 -24 -26 -51 -60 -61 -76 -9 -16 -45 -44 -78 -63 -34
-19 -78 -51 -97 -70 -19 -19 -44 -35 -54 -35 -10 0 -38 -20 -61 -44 -36 -38
-50 -45 -95 -51 -63 -9 -82 -18 -122 -60 -26 -28 -38 -33 -101 -39 -93 -9
-167 -29 -199 -54 -56 -44 -103 -47 -770 -47 -662 0 -759 5 -814 44 -31 22
-76 35 -191 55 -75 14 -88 19 -117 51 -18 20 -48 42 -67 50 -19 8 -47 31 -62
50 -15 20 -40 43 -56 51 -16 9 -36 31 -44 50 -8 19 -30 44 -49 56 -36 24 -46
43 -65 117 -6 24 -26 71 -43 104 l-32 61 -3 1635 c-2 1163 0 1650 8 1686 15
70 54 114 116 130 60 17 916 20 1061 5z"/>
<path d="M1417 7880 c-89 -15 -94 -27 -107 -231 -11 -167 -12 -171 -71 -280
-15 -29 -21 -69 -29 -193 -10 -172 -19 -219 -55 -286 -49 -93 -52 -194 -8
-242 22 -25 114 -25 135 0 23 25 48 78 48 100 0 10 16 50 35 89 24 48 38 96
46 150 5 43 18 94 27 113 20 42 47 49 199 49 125 1 341 20 403 35 34 8 49 19
65 45 11 19 37 51 57 72 54 56 68 114 68 281 0 84 -4 148 -11 161 -6 12 -38
47 -70 78 l-58 56 -92 6 c-124 9 -522 7 -582 -3z m452 -144 c14 -8 49 -27 77
-41 68 -35 78 -56 71 -152 -8 -118 -11 -122 -134 -191 l-108 -61 -115 -3 c-97
-3 -120 0 -143 15 -23 15 -27 24 -27 65 0 26 5 63 10 82 6 19 14 77 19 128 9
106 19 122 96 159 45 22 59 24 139 19 48 -3 100 -12 115 -20z"/>
<path d="M4840 7777 c-54 -19 -64 -27 -103 -99 -33 -58 -116 -148 -138 -148
-4 0 -19 -24 -34 -52 l-26 -53 52 -46 52 -46 -5 -97 c-5 -87 -9 -104 -43 -169
-34 -64 -39 -83 -46 -177 -13 -169 -13 -168 24 -203 70 -66 120 -94 177 -100
l55 -7 57 63 c32 34 58 67 58 73 0 19 -21 31 -83 49 -83 24 -92 41 -83 165 8
111 21 158 62 220 21 32 29 58 34 117 7 92 26 113 100 113 109 0 120 72 24
166 -30 30 -54 61 -54 70 0 8 7 38 16 65 16 48 16 52 -3 77 -23 31 -44 35 -93
19z"/>
<path d="M2815 7571 c-22 -4 -67 -23 -100 -43 -33 -20 -80 -39 -103 -43 -37
-6 -55 -18 -116 -80 -68 -68 -74 -78 -79 -126 -4 -29 -21 -82 -39 -118 -29
-59 -33 -75 -33 -151 0 -79 3 -89 31 -135 18 -28 40 -75 49 -105 10 -30 22
-61 27 -67 6 -7 42 -22 82 -34 39 -11 89 -33 111 -47 36 -24 50 -27 130 -27
79 0 94 3 124 24 18 13 70 34 115 47 58 16 85 29 96 46 8 13 32 41 54 63 48
49 62 82 82 188 8 45 20 98 26 117 6 19 10 53 9 75 -3 57 -60 267 -78 287 -9
9 -38 25 -67 34 -28 9 -76 31 -107 50 -52 31 -124 55 -159 53 -8 -1 -33 -4
-55 -8z m120 -185 c72 -19 72 -19 102 -82 14 -29 31 -58 39 -65 21 -17 17 -99
-6 -151 -11 -25 -26 -75 -34 -112 -13 -63 -18 -71 -85 -137 l-70 -69 -99 0
c-85 0 -103 3 -126 21 -14 11 -26 26 -26 34 0 7 -17 32 -39 55 -30 32 -40 53
-45 89 -8 64 11 150 40 179 13 13 31 47 40 75 36 110 54 126 174 158 82 22 70
21 135 5z"/>
<path d="M3852 7565 c-17 -8 -47 -25 -65 -39 -17 -13 -52 -30 -76 -37 -32 -9
-61 -31 -107 -79 l-64 -65 0 -69 0 -69 68 -67 c59 -59 73 -68 115 -74 34 -5
59 -17 85 -40 50 -44 67 -52 133 -60 70 -9 87 -26 90 -91 4 -87 -22 -106 -156
-113 -126 -6 -198 10 -226 51 -34 50 -48 57 -114 57 -52 0 -65 -4 -84 -23 -18
-20 -20 -29 -12 -50 16 -42 77 -102 123 -121 24 -10 75 -32 113 -49 57 -25 87
-32 160 -35 85 -4 93 -2 148 27 32 17 76 35 98 41 47 13 143 108 160 159 7 19
10 71 7 122 -5 102 -15 119 -84 143 -24 8 -60 28 -81 44 -43 34 -98 52 -161
52 -80 0 -152 44 -173 107 -13 42 6 78 54 98 18 7 44 23 59 35 26 20 30 20 76
6 27 -7 66 -23 88 -34 21 -11 70 -28 107 -37 66 -16 69 -16 89 1 11 11 26 31
34 46 13 24 12 28 -18 57 -18 17 -37 31 -42 31 -6 0 -33 15 -59 34 -75 53
-211 73 -285 41z"/>
<path d="M5545 7567 c-27 -7 -69 -27 -92 -44 -28 -20 -60 -33 -94 -37 -67 -9
-85 -19 -105 -59 -9 -18 -33 -48 -53 -67 -36 -33 -39 -40 -52 -135 -18 -127
-18 -324 -1 -392 17 -65 74 -132 134 -158 24 -10 72 -32 108 -48 48 -23 83
-32 137 -35 65 -4 77 -1 125 26 29 16 80 35 112 42 42 9 66 20 80 37 27 32 57
62 89 89 17 14 29 38 36 76 7 30 27 79 46 108 38 59 50 119 43 230 -3 53 -9
76 -26 97 -13 15 -36 55 -51 88 -36 75 -53 90 -117 103 -28 6 -74 27 -103 47
-29 19 -63 35 -75 35 -11 0 -37 2 -56 5 -19 2 -57 -2 -85 -8z m195 -201 c33
-16 54 -37 78 -76 33 -54 33 -56 30 -157 l-3 -103 -37 -37 c-20 -21 -46 -63
-57 -94 -24 -63 -49 -91 -103 -114 -39 -16 -129 -19 -207 -7 -60 9 -76 36 -95
152 -13 84 -14 102 -1 155 8 33 15 80 15 106 0 42 5 50 63 111 52 57 70 69
117 81 68 19 140 12 200 -17z"/>
<path d="M6621 7570 c-24 -5 -58 -21 -77 -35 -18 -14 -61 -35 -96 -48 -56 -20
-66 -27 -88 -69 -14 -25 -33 -55 -43 -65 -27 -30 -23 -116 7 -156 13 -18 31
-49 39 -69 18 -43 35 -53 103 -63 39 -5 60 -15 92 -44 40 -37 79 -51 143 -51
43 0 69 -38 69 -101 0 -70 -21 -91 -105 -108 -92 -19 -252 16 -275 58 -17 33
-64 51 -128 51 -44 0 -63 -5 -75 -18 -27 -30 -20 -47 43 -112 43 -44 75 -66
112 -80 29 -10 81 -30 115 -44 94 -40 257 -35 293 9 6 7 28 19 48 26 90 29
131 58 159 112 25 46 28 63 28 147 0 108 -12 138 -68 166 -17 9 -46 30 -64 46
-34 33 -115 57 -193 58 -25 0 -54 6 -66 13 -35 20 -115 118 -112 135 2 10 24
28 50 42 25 14 54 33 65 42 10 9 39 19 65 23 41 6 51 4 81 -19 19 -15 56 -34
83 -43 27 -9 59 -23 71 -31 20 -12 29 -12 75 3 52 16 98 54 98 79 0 24 -45 53
-103 65 -31 7 -70 23 -86 36 -15 14 -40 29 -55 35 -40 15 -154 20 -205 10z"/>
</g>
</svg>
