<?xml version="1.0" standalone="no"?>
<!DOCTYPE svg PUBLIC "-//W3C//DTD SVG 20010904//EN"
 "http://www.w3.org/TR/2001/REC-SVG-20010904/DTD/svg10.dtd">
<svg version="1.0" xmlns="http://www.w3.org/2000/svg"
 width="2838.000000pt" height="1525.000000pt" viewBox="0 0 2838.000000 1525.000000"
 preserveAspectRatio="xMidYMid meet">

<g transform="translate(0.000000,1525.000000) scale(0.100000,-0.100000)"
fill="#000000" stroke="none">
<path d="M0 7625 l0 -7625 14190 0 14190 0 0 7625 0 7625 -14190 0 -14190 0 0
-7625z m11036 6421 c39 -13 86 -32 105 -41 42 -22 127 -91 157 -126 59 -71 8
-109 -56 -42 -118 123 -208 163 -363 163 -83 0 -110 -4 -161 -25 -176 -72
-291 -234 -305 -431 -5 -70 -2 -93 22 -170 44 -141 118 -231 247 -300 l73 -39
130 0 c128 1 131 1 194 34 36 18 88 55 116 82 45 43 89 69 116 69 22 0 6 -42
-33 -84 -51 -57 -124 -106 -208 -140 -57 -24 -78 -27 -180 -27 -88 0 -128 5
-172 20 -224 77 -363 262 -376 501 -7 143 39 276 136 391 47 56 143 129 198
150 121 46 254 52 360 15z m9057 -12 c47 -6 57 -4 75 14 24 24 31 21 25 -11
-8 -39 -55 -52 -135 -39 -84 15 -145 15 -153 2 -10 -17 -25 -11 -25 10 0 12
12 24 33 34 51 23 60 24 94 10 17 -8 56 -17 86 -20z m-4775 -505 c1 -277 0
-514 -3 -527 -9 -39 -47 -25 -69 26 -18 38 -23 42 -45 37 -14 -4 -37 -15 -51
-25 -14 -10 -53 -31 -85 -46 -52 -24 -72 -28 -155 -28 -85 0 -102 3 -160 31
-153 71 -242 211 -244 383 0 71 4 97 28 158 37 96 123 187 215 227 59 25 70
27 175 23 115 -4 169 -21 222 -69 11 -11 35 -23 51 -28 27 -8 32 -6 42 15 6
15 11 85 11 172 0 157 5 177 44 163 21 -8 21 -9 24 -512z m1949 512 c71 -7
102 -15 138 -36 64 -38 104 -81 134 -145 22 -46 26 -69 26 -145 0 -75 -4 -98
-24 -139 -33 -66 -89 -119 -156 -146 -51 -21 -55 -25 -55 -56 0 -18 4 -35 9
-38 5 -4 26 -34 46 -69 20 -34 49 -82 65 -107 16 -25 33 -52 36 -60 4 -8 17
-29 30 -46 24 -33 23 -74 -1 -74 -36 0 -69 44 -219 293 -11 18 -38 61 -61 97
-44 68 -62 110 -48 111 155 12 172 16 218 54 123 100 119 282 -8 389 l-49 41
-170 3 c-120 2 -173 0 -184 -9 -12 -10 -14 -85 -14 -479 0 -453 -1 -467 -20
-485 -16 -15 -22 -15 -35 -5 -13 11 -15 79 -15 524 0 385 3 515 12 524 14 14
208 16 345 3z m-4427 -267 c38 -21 54 -36 78 -75 30 -49 29 -75 -4 -82 -21 -4
-31 3 -62 44 -42 56 -82 74 -149 66 -54 -6 -110 -54 -119 -103 -17 -89 34
-151 161 -195 152 -53 200 -100 211 -206 11 -103 -26 -177 -113 -229 -41 -24
-59 -28 -123 -29 -63 0 -82 4 -120 27 -58 34 -82 61 -108 125 -27 65 -27 72 1
82 32 12 52 -2 65 -47 12 -40 55 -92 93 -113 31 -16 110 -14 145 4 48 25 84
85 84 141 0 86 -43 134 -167 184 -105 42 -146 70 -176 116 -71 112 3 279 136
306 51 10 133 3 167 -16z m3236 -11 c111 -56 189 -164 214 -296 10 -53 10 -70
0 -82 -11 -13 -63 -15 -351 -15 -326 0 -340 -1 -359 -20 -24 -24 -25 -36 -5
-104 26 -90 134 -191 224 -211 50 -11 162 -8 195 5 52 19 133 80 160 119 29
42 69 59 92 41 10 -9 11 -16 1 -33 -35 -63 -114 -134 -197 -178 -40 -21 -57
-24 -155 -23 -107 1 -112 2 -183 39 -182 95 -270 295 -217 493 22 82 53 134
113 190 97 90 168 114 321 107 76 -4 103 -10 147 -32z m3100 26 c76 -14 135
-48 207 -121 64 -65 77 -108 33 -108 -17 0 -38 16 -71 55 -60 70 -97 92 -182
110 -148 31 -291 -26 -360 -145 -99 -168 -52 -394 104 -501 51 -36 135 -60
186 -53 17 2 48 6 68 9 64 8 164 78 206 142 15 23 66 33 77 14 8 -13 -51 -97
-97 -137 -48 -41 -124 -78 -182 -88 -59 -10 -95 -27 -95 -43 0 -10 -11 -4 -29
16 -16 17 -36 31 -44 31 -32 0 -197 91 -197 109 0 4 -8 16 -18 27 -92 100
-127 277 -80 408 74 211 254 315 474 275z m1020 -24 c93 -43 186 -143 214
-231 7 -22 17 -44 22 -51 5 -6 8 -51 5 -100 -4 -86 -26 -172 -54 -204 -7 -8
-13 -21 -13 -27 0 -21 -112 -120 -173 -153 -59 -31 -67 -33 -167 -33 -94 1
-111 3 -165 29 -82 39 -167 126 -207 212 -30 63 -32 75 -33 178 0 109 1 111
39 183 44 83 91 136 156 177 67 43 122 55 226 51 73 -2 102 -8 150 -31z m958
-4 c71 -34 142 -105 181 -183 31 -62 51 -174 34 -194 -9 -11 -77 -14 -357 -16
l-345 -3 -20 -26 c-19 -27 -19 -27 2 -84 34 -91 73 -140 143 -183 54 -33 93
-42 182 -43 112 0 179 35 273 145 23 27 39 37 55 34 38 -5 31 -34 -24 -99 -65
-76 -164 -135 -248 -145 -119 -15 -260 32 -339 114 -178 183 -179 427 -5 608
81 84 176 116 322 109 66 -3 96 -10 146 -34z m703 13 c83 -30 133 -154 62
-154 -9 0 -32 20 -50 45 -40 53 -85 71 -152 61 -35 -5 -53 -15 -77 -43 -30
-34 -32 -40 -28 -101 4 -57 8 -68 34 -89 32 -27 96 -58 164 -79 105 -33 161
-100 168 -204 7 -96 -40 -175 -129 -220 -57 -29 -177 -30 -222 -1 -43 28 -68
51 -93 87 -22 30 -40 106 -30 122 9 14 57 1 63 -17 19 -57 49 -102 83 -126 35
-24 46 -27 104 -23 55 3 68 8 94 33 50 51 65 125 37 191 -20 49 -45 67 -157
115 -55 23 -116 57 -138 78 -35 30 -42 45 -50 91 -13 85 3 141 56 195 64 64
154 77 261 39z m-9815 6 c20 -6 60 -26 88 -45 28 -19 63 -36 78 -37 24 -3 28
2 40 40 14 42 25 49 51 33 12 -8 15 -71 18 -379 3 -327 1 -372 -13 -386 -25
-25 -40 -19 -57 24 -12 31 -21 40 -40 40 -13 0 -32 -8 -41 -19 -9 -10 -49 -33
-89 -52 -66 -30 -79 -33 -167 -32 -85 1 -103 5 -164 33 -91 42 -167 117 -206
206 -27 59 -30 76 -30 170 0 99 2 108 36 181 54 114 136 185 254 223 37 12
199 12 242 0z m1617 -16 c31 -15 65 -34 76 -44 28 -25 63 -34 79 -20 8 6 17
26 20 45 7 37 15 41 47 25 18 -10 19 -25 19 -389 0 -336 -2 -380 -16 -385 -30
-11 -42 -6 -49 21 -14 56 -44 68 -87 34 -82 -65 -203 -98 -307 -85 -130 16
-262 113 -319 233 -24 51 -26 67 -27 176 0 116 1 122 33 187 43 88 117 160
202 198 58 26 76 29 169 30 92 0 111 -3 160 -26z m4626 -4 c22 -13 53 -34 69
-47 44 -37 78 -28 94 25 15 45 31 53 53 25 11 -13 14 -84 12 -381 -2 -331 -4
-366 -20 -384 -17 -19 -17 -19 -35 4 -10 13 -18 31 -18 41 0 28 -30 32 -69 9
-20 -12 -65 -36 -101 -54 -60 -30 -72 -32 -165 -32 -90 1 -106 4 -166 31 -81
38 -155 110 -195 189 -28 57 -29 64 -29 199 0 137 1 141 30 190 55 93 154 176
245 206 14 5 77 7 140 6 101 -3 120 -6 155 -27z m923 -931 c28 -26 32 -37 32
-79 0 -32 -5 -54 -15 -62 -9 -7 -24 -21 -33 -30 -11 -11 -36 -17 -72 -18 -103
-3 -150 0 -150 10 0 6 35 10 86 10 83 0 86 1 115 32 34 38 38 79 10 107 -10
10 -20 24 -22 30 -2 6 -24 15 -49 20 l-45 9 55 1 c48 1 59 -3 88 -30z m-1331
-555 c2 -5 -9 -25 -24 -42 -16 -18 -37 -44 -48 -58 -11 -14 -35 -42 -52 -62
-30 -34 -33 -35 -33 -14 0 12 6 22 14 22 7 0 16 13 19 29 6 29 41 90 72 124
17 19 46 20 52 1z m-4117 -99 c16 -20 60 -113 60 -128 0 -7 6 -24 14 -39 8
-14 19 -43 26 -65 7 -21 18 -51 26 -68 11 -26 66 -168 134 -350 10 -27 35 -90
55 -140 66 -164 94 -243 88 -249 -11 -11 -52 -6 -60 7 -12 19 -53 121 -53 132
0 6 -8 26 -18 46 -10 19 -26 55 -35 81 -14 36 -25 49 -49 57 -38 13 -436 15
-470 2 -27 -10 -40 -36 -108 -206 -39 -99 -51 -121 -70 -123 -35 -6 -44 11
-27 49 29 62 49 114 63 161 8 25 21 59 29 75 8 15 15 34 15 41 0 6 9 29 20 49
11 21 20 44 20 51 0 8 6 28 14 45 26 59 64 152 95 237 18 47 36 94 41 105 10
20 30 75 57 155 22 62 49 90 89 90 17 0 37 -7 44 -15z m5014 -1 c3 -9 6 -38 6
-65 0 -48 -1 -49 -30 -49 -30 0 -30 0 -30 58 0 32 3 62 7 65 12 13 41 7 47 -9z
m-6306 -253 c144 -40 240 -144 276 -302 10 -41 12 -69 6 -85 l-10 -24 -339 0
c-187 0 -347 -3 -356 -6 -30 -12 -37 -52 -19 -108 9 -28 23 -58 30 -67 8 -8
14 -20 14 -25 0 -16 61 -69 120 -105 53 -33 59 -34 155 -34 89 0 106 3 150 26
28 15 76 54 107 88 57 60 90 75 101 46 8 -20 -73 -117 -130 -156 -167 -112
-374 -86 -516 65 -63 67 -95 135 -105 221 -16 150 17 266 102 356 54 58 105
88 186 110 86 23 146 23 228 0z m2300 3 c71 -20 115 -46 170 -98 56 -53 78
-92 61 -112 -6 -8 -15 -14 -20 -14 -4 0 -37 29 -71 64 -89 88 -139 110 -253
110 -78 0 -97 -3 -140 -26 -70 -36 -122 -92 -159 -168 -28 -59 -31 -73 -30
-160 1 -78 6 -105 27 -154 30 -71 93 -138 162 -174 44 -23 62 -27 140 -26 127
0 173 25 289 153 21 23 46 27 63 10 17 -17 -19 -70 -86 -131 -133 -119 -319
-131 -482 -30 -49 30 -115 111 -152 185 -28 57 -30 70 -30 167 0 90 4 112 25
155 68 141 142 210 265 244 86 24 150 25 221 5z m954 -3 c77 -22 114 -46 176
-110 82 -86 140 -256 98 -290 -12 -10 -86 -13 -351 -12 -219 1 -342 -2 -355
-9 -16 -8 -20 -21 -20 -58 0 -95 81 -204 189 -254 36 -16 66 -22 136 -22 77
-1 98 3 145 25 49 24 118 87 145 133 6 9 23 18 40 19 24 2 31 -2 33 -21 3 -18
-14 -40 -70 -96 -96 -94 -169 -126 -289 -126 -75 0 -88 3 -163 40 -130 65
-206 163 -240 310 -14 61 -13 71 6 160 35 164 126 264 283 311 79 23 155 23
237 0z m741 -1 c62 -23 93 -53 112 -107 11 -30 11 -41 1 -51 -18 -19 -62 1
-70 31 -3 13 -24 36 -46 51 -69 46 -162 28 -206 -39 -12 -19 -15 -40 -12 -87
4 -57 7 -64 43 -94 22 -18 60 -38 85 -45 25 -7 50 -15 55 -19 6 -4 21 -11 35
-15 46 -14 101 -58 126 -100 28 -48 33 -144 11 -198 -53 -124 -210 -182 -334
-123 -59 29 -94 68 -118 130 -22 58 -14 96 20 96 21 0 26 -7 36 -45 15 -61 81
-129 133 -139 50 -9 94 1 134 31 41 31 62 72 62 123 0 84 -54 140 -184 191
-115 45 -171 95 -181 162 -4 26 -4 68 0 93 12 84 118 170 212 173 18 1 56 -8
86 -19z m602 1 c61 -22 71 -30 103 -84 31 -54 29 -77 -7 -77 -23 0 -34 8 -50
35 -75 128 -271 81 -271 -65 0 -73 54 -129 156 -163 90 -29 123 -47 160 -84
46 -48 54 -70 54 -148 0 -71 -10 -105 -40 -137 -11 -12 -20 -25 -20 -29 0 -4
-28 -21 -62 -38 -140 -71 -293 -9 -343 138 -14 41 -14 46 2 63 21 24 36 11 69
-57 46 -99 141 -138 229 -94 68 34 88 67 88 144 0 55 -4 69 -28 97 -34 40 -74
65 -141 88 -139 48 -193 106 -195 207 -2 93 49 169 138 203 62 24 91 24 158 1z
m803 -1 c115 -36 213 -125 260 -236 34 -83 36 -222 2 -309 -65 -167 -215 -275
-383 -275 -151 0 -296 97 -368 246 -31 64 -33 76 -33 174 0 99 1 109 34 175
32 66 121 175 143 175 6 0 18 6 26 14 59 54 209 70 319 36z m1611 0 c168 -53
291 -218 291 -391 0 -69 -29 -178 -60 -224 -41 -62 -126 -136 -193 -170 -61
-30 -79 -35 -143 -35 -157 0 -310 96 -380 237 -26 54 -28 66 -29 179 0 116 1
123 32 185 40 80 82 130 139 170 100 68 224 86 343 49z m737 3 c58 -18 91 -46
123 -108 20 -37 20 -41 4 -52 -28 -21 -40 -15 -73 32 -37 54 -74 75 -132 75
-107 0 -173 -113 -123 -211 17 -32 78 -75 122 -85 68 -16 170 -73 196 -111 28
-42 44 -130 33 -187 -17 -91 -131 -176 -237 -176 -93 0 -195 74 -225 163 -15
44 -15 51 -1 64 24 24 45 9 70 -49 15 -33 38 -64 63 -83 33 -26 48 -30 99 -30
65 0 93 15 138 72 17 22 22 41 22 90 0 55 -4 66 -30 94 -36 37 -94 76 -128 84
-31 8 -106 46 -144 73 -46 32 -77 105 -70 162 6 50 38 110 75 144 22 20 113
54 146 55 11 1 43 -7 72 -16z m-1642 -50 c-5 -16 -18 -26 -45 -33 -43 -12
-103 -66 -122 -108 -7 -17 -12 -131 -15 -309 -4 -272 -5 -282 -24 -289 -11 -3
-24 -2 -29 3 -5 5 -8 170 -7 388 3 343 5 380 19 383 9 2 29 -8 44 -22 34 -31
39 -32 76 -5 63 44 115 40 103 -8z m201 -353 l0 -385 -25 0 -25 0 -3 388 -2
388 27 -3 28 -3 0 -385z m-12001 -950 c5 -5 -3 -14 -20 -21 -16 -6 -37 -15
-46 -20 -11 -5 -27 -4 -43 3 -19 8 -31 8 -48 0 -40 -20 -62 -19 -65 4 -2 16 6
23 45 36 49 16 159 15 177 -2z m606 -46 c0 -2 -7 -4 -15 -4 -8 0 -15 4 -15 10
0 5 7 7 15 4 8 -4 15 -8 15 -10z m2708 -641 c12 -13 22 -27 22 -31 0 -5 9 -17
20 -27 19 -17 78 -98 108 -148 7 -12 33 -49 58 -82 24 -33 69 -96 100 -140 30
-44 66 -96 80 -115 13 -19 30 -43 37 -54 6 -10 19 -28 28 -40 9 -11 51 -72 93
-134 42 -62 85 -123 96 -134 11 -12 20 -25 20 -29 0 -3 14 -12 30 -19 28 -11
33 -10 54 9 13 12 41 48 62 79 21 31 45 63 51 70 7 7 13 17 13 21 0 4 19 33
43 63 23 31 50 69 59 84 9 16 38 56 63 89 25 33 48 68 51 78 4 9 10 17 14 17
4 0 25 28 48 63 22 34 68 100 101 147 33 47 81 114 105 150 25 36 53 74 61 85
15 19 30 20 262 23 154 2 250 -1 256 -7 6 -6 10 -337 9 -947 -1 -842 -3 -939
-17 -953 -13 -13 -46 -17 -178 -19 -185 -4 -273 3 -302 24 -19 14 -20 27 -20
442 0 235 -4 437 -8 449 -18 51 -45 35 -121 -72 -83 -116 -96 -136 -96 -144 0
-5 -12 -24 -27 -43 -16 -20 -35 -46 -43 -58 -8 -13 -27 -38 -42 -55 -16 -18
-28 -36 -28 -39 0 -4 -5 -12 -10 -19 -6 -7 -25 -34 -42 -62 -18 -27 -38 -55
-46 -60 -7 -6 -18 -20 -25 -33 -24 -43 -131 -193 -163 -229 -19 -20 -36 -45
-40 -55 -3 -10 -14 -18 -23 -18 -22 0 -49 34 -149 184 -40 61 -76 113 -81 116
-4 3 -16 20 -25 38 -9 17 -20 32 -25 32 -4 0 -13 10 -20 23 -6 12 -19 34 -29
48 -54 83 -97 145 -103 149 -3 3 -14 20 -23 38 -9 17 -21 32 -27 32 -5 0 -15
14 -20 30 -6 17 -15 30 -19 30 -5 0 -11 8 -15 19 -5 17 -16 32 -69 93 -8 9
-19 26 -26 37 -6 11 -24 28 -41 37 -60 31 -59 38 -59 -450 0 -242 -4 -446 -8
-452 -19 -29 -56 -34 -251 -34 -124 0 -209 4 -224 11 -21 9 -25 20 -31 71 -8
79 -8 1717 0 1785 5 36 12 53 23 57 9 2 122 3 251 3 229 -2 236 -3 258 -24z
m3962 6 c14 -9 39 -20 55 -24 17 -3 37 -12 45 -20 8 -7 26 -16 39 -20 84 -26
225 -176 268 -285 46 -117 48 -145 45 -510 -4 -415 -14 -602 -35 -634 -9 -13
-19 -39 -22 -59 -4 -20 -13 -38 -21 -41 -8 -3 -14 -12 -14 -19 0 -33 -218
-227 -256 -227 -5 0 -22 -7 -39 -16 -32 -17 -81 -27 -210 -44 -51 -7 -281 -10
-635 -7 -632 3 -667 7 -796 76 -40 22 -81 47 -92 58 -111 101 -126 118 -163
188 -12 22 -25 42 -29 45 -3 3 -15 32 -26 65 -18 56 -19 92 -19 535 1 529 0
524 74 655 79 142 277 273 446 295 33 4 353 7 710 6 583 -1 653 -3 675 -17z
m2145 11 c131 -18 223 -67 335 -179 61 -61 95 -105 114 -146 15 -33 32 -68 37
-78 22 -41 31 -265 27 -647 -4 -382 -5 -397 -26 -440 -12 -25 -24 -60 -28 -77
-3 -17 -12 -34 -20 -37 -8 -3 -14 -11 -14 -18 0 -18 -130 -150 -182 -185 -24
-16 -59 -35 -78 -43 -19 -7 -40 -17 -46 -22 -6 -4 -33 -13 -60 -18 -27 -5 -72
-15 -100 -20 -34 -7 -307 -10 -777 -8 l-725 3 -26 24 -26 24 0 586 c0 351 4
592 10 601 8 12 43 16 197 18 212 4 289 -2 297 -24 3 -7 6 -101 6 -207 2 -341
10 -467 32 -489 17 -17 45 -18 497 -18 544 0 511 -5 546 86 16 44 18 76 12
384 -5 357 -9 384 -56 409 -11 6 -296 11 -759 13 -711 3 -741 4 -761 22 -20
18 -21 28 -21 252 l0 233 23 4 c40 8 1511 5 1572 -3z m2659 -1 c12 -12 9 -480
-3 -492 -9 -9 -205 -13 -753 -15 -505 -2 -745 -6 -754 -13 -38 -31 -19 -168
23 -170 10 0 302 0 648 0 578 2 722 -3 743 -23 4 -4 7 -106 7 -225 0 -255 -3
-265 -73 -276 -24 -4 -335 -5 -690 -4 -642 3 -645 3 -661 -18 -22 -27 -19
-119 4 -142 14 -14 97 -17 760 -21 409 -3 746 -8 750 -11 3 -4 7 -115 8 -247
2 -186 -1 -244 -11 -254 -11 -11 -197 -13 -1002 -11 -1005 2 -1019 2 -1042 37
-9 13 -10 1759 -2 1833 l7 52 51 4 c88 6 1984 2 1990 -4z m594 5 c15 -5 22
-14 23 -33 1 -14 4 -321 8 -682 5 -534 9 -659 20 -672 12 -16 71 -17 655 -17
577 -1 714 -5 732 -23 3 -3 5 -106 5 -229 -2 -208 -3 -224 -22 -243 -19 -20
-35 -20 -959 -23 -903 -2 -939 -2 -949 16 -12 22 -11 -74 -6 1004 2 488 6 892
10 898 7 11 443 14 483 4z m3457 -17 c17 -9 37 -17 45 -17 8 0 36 -11 62 -25
172 -91 260 -196 323 -383 l25 -72 0 -444 c0 -417 -1 -446 -20 -502 -37 -110
-83 -187 -150 -254 -82 -82 -137 -120 -220 -153 -122 -48 -173 -51 -790 -52
-695 0 -707 1 -889 93 -87 44 -224 190 -246 264 -4 12 -14 30 -21 39 -8 9 -19
51 -25 95 -14 103 -12 856 3 949 9 62 32 117 84 207 25 42 184 186 213 193 16
3 35 13 41 20 7 8 28 17 49 21 20 3 46 12 57 19 33 21 69 22 769 21 607 -1
662 -3 690 -19z"/>
<path d="M14803 13716 c-88 -29 -170 -108 -203 -197 -30 -79 -26 -221 8 -290
28 -57 93 -128 148 -162 155 -96 366 -24 463 158 23 45 26 60 26 155 -1 80 -5
112 -18 135 -9 17 -17 35 -17 41 0 21 -105 122 -150 145 -56 28 -192 36 -257
15z"/>
<path d="M15794 13726 c-56 -14 -117 -47 -152 -84 -34 -36 -72 -117 -72 -156
0 -66 -2 -66 325 -66 l294 0 16 30 c15 30 15 34 -15 98 -18 37 -39 75 -48 85
-34 38 -106 78 -166 92 -73 17 -113 18 -182 1z"/>
<path d="M19927 13725 c-87 -24 -145 -74 -198 -170 -32 -58 -34 -64 -34 -170
0 -104 2 -113 32 -170 131 -250 476 -250 598 0 84 172 31 385 -118 474 -79 48
-187 62 -280 36z"/>
<path d="M20905 13735 c-5 -2 -35 -11 -66 -19 -119 -33 -225 -186 -184 -266
l16 -30 297 0 c219 0 301 3 310 12 42 42 -29 193 -120 253 -57 38 -204 67
-253 50z"/>
<path d="M11814 13721 c-115 -29 -222 -162 -238 -295 -9 -67 8 -164 36 -214
77 -136 220 -207 363 -181 208 37 339 301 246 494 -37 78 -97 144 -157 175
-38 19 -67 25 -134 27 -47 1 -99 -2 -116 -6z"/>
<path d="M13405 13721 c-88 -23 -174 -98 -217 -190 -30 -64 -32 -225 -3 -291
106 -245 418 -290 570 -82 84 115 101 257 45 375 -35 74 -95 138 -160 169 -48
24 -178 34 -235 19z"/>
<path d="M18016 13719 c-86 -21 -167 -93 -213 -189 -22 -47 -26 -69 -26 -151
-1 -86 2 -101 27 -149 42 -80 65 -107 126 -148 196 -130 443 -24 504 216 18
73 20 121 6 154 -5 13 -14 42 -20 65 -13 50 -92 142 -157 179 -35 21 -60 27
-126 30 -45 2 -100 -1 -121 -7z"/>
<path d="M13681 12061 c-10 -10 -22 -34 -26 -52 -4 -19 -13 -43 -21 -54 -7
-11 -16 -37 -19 -58 -4 -20 -11 -40 -16 -43 -5 -2 -15 -26 -23 -52 -8 -26 -27
-78 -42 -117 -37 -99 -41 -125 -18 -142 24 -18 374 -19 392 -1 18 18 15 63 -7
116 -11 26 -34 89 -52 140 -17 51 -36 95 -40 98 -5 3 -9 12 -9 21 0 9 -8 35
-19 57 -10 23 -24 56 -31 74 -14 37 -40 42 -69 13z"/>
<path d="M12250 11871 c-115 -38 -203 -132 -223 -237 -14 -74 28 -82 391 -74
214 5 235 7 247 24 18 24 10 67 -23 126 -63 112 -144 160 -282 166 -47 2 -96
0 -110 -5z"/>
<path d="M15515 11874 c-11 -3 -42 -16 -70 -29 -113 -52 -208 -212 -159 -266
18 -20 27 -20 317 -17 321 3 316 2 317 57 0 38 -47 128 -90 171 -56 56 -119
81 -215 85 -44 2 -89 2 -100 -1z"/>
<path d="M17632 11860 c-96 -34 -165 -113 -202 -230 -26 -82 -25 -149 2 -235
19 -59 33 -80 84 -131 82 -82 147 -108 255 -101 78 5 113 18 180 66 50 37 79
74 109 140 22 47 25 68 24 160 0 94 -3 112 -27 157 -81 157 -264 232 -425 174z"/>
<path d="M19270 11871 c-96 -31 -169 -96 -214 -191 -28 -59 -31 -74 -31 -160
0 -83 4 -103 29 -157 32 -69 97 -137 167 -174 37 -20 60 -23 139 -24 81 0 101
3 140 24 67 36 105 67 135 113 125 188 63 459 -125 545 -59 27 -191 40 -240
24z"/>
<path d="M9626 9833 c3 -16 9 -59 13 -98 5 -42 9 -55 10 -33 2 52 18 89 41 95
13 3 20 13 19 27 0 11 -3 15 -6 9 -8 -20 -23 -15 -23 7 0 16 -7 20 -30 20 -27
0 -29 -2 -24 -27z"/>
<path d="M11551 9837 c-5 -13 -16 -29 -25 -36 -9 -7 -16 -20 -16 -27 0 -8 -9
-22 -20 -31 -26 -23 -25 -49 2 -56 26 -7 38 -1 38 19 0 8 6 24 13 37 6 12 13
23 13 25 4 9 54 11 54 2 0 -7 8 -9 20 -5 12 4 28 1 37 -7 15 -11 16 -11 10 5
-6 15 3 22 26 18 4 0 7 4 7 9 0 13 32 9 42 -5 5 -7 8 -7 8 0 0 6 31 11 70 12
58 2 71 -1 79 -16 7 -13 6 -24 -6 -40 -9 -14 -12 -26 -6 -32 6 -6 6 -32 2 -64
-7 -50 -4 -69 17 -127 9 -26 24 -22 24 5 0 13 9 33 20 45 20 21 27 62 11 62
-26 0 -36 83 -16 132 13 34 14 47 4 70 -14 35 -29 35 -57 3 -13 -14 -26 -24
-31 -21 -4 3 -36 6 -69 7 -42 1 -62 6 -62 14 0 17 -33 25 -113 25 -61 0 -68
-2 -76 -23z"/>
<path d="M9967 9827 c-7 -19 7 -39 24 -33 56 17 54 15 33 31 -24 18 -50 19
-57 2z"/>
<path d="M9813 9823 c-13 -2 -23 -8 -23 -13 0 -4 9 -6 20 -3 11 3 20 0 20 -6
0 -15 19 -14 35 3 12 12 12 15 -1 20 -9 3 -19 5 -22 5 -4 -1 -17 -4 -29 -6z"/>
<path d="M10090 9731 c0 -6 5 -13 10 -16 6 -3 10 1 10 9 0 9 -4 16 -10 16 -5
0 -10 -4 -10 -9z"/>
<path d="M10127 9693 c-11 -10 -8 -18 14 -41 11 -13 22 -32 24 -44 3 -11 11
-28 19 -37 7 -9 17 -27 21 -41 4 -14 11 -29 15 -35 4 -5 10 -21 13 -35 4 -14
21 -33 39 -43 l33 -19 -29 -25 -29 -24 20 -26 c26 -36 52 -51 61 -37 4 6 14
10 22 8 51 -11 50 -12 50 35 0 20 -6 30 -20 34 -12 3 -20 14 -20 26 0 12 -6
21 -15 21 -8 0 -19 9 -25 21 -12 22 -35 51 -62 81 -10 10 -18 26 -18 36 0 24
-50 89 -72 95 -11 3 -18 15 -18 31 0 25 -10 33 -23 19z"/>
<path d="M11430 9645 c0 -15 4 -24 10 -20 6 3 10 12 10 20 0 8 -4 17 -10 20
-6 4 -10 -5 -10 -20z"/>
<path d="M9642 8940 c-1 -566 1 -711 11 -695 19 31 26 413 8 428 -11 10 -13
81 -8 427 3 228 2 447 -2 485 -5 41 -9 -222 -9 -645z"/>
<path d="M11390 9599 c0 -10 -8 -23 -18 -28 -10 -5 -18 -20 -19 -33 -2 -20 -1
-21 8 -5 6 9 19 17 30 17 12 0 23 10 29 26 13 33 13 31 -10 37 -15 4 -20 0
-20 -14z"/>
<path d="M11306 9482 c-2 -4 0 -14 5 -22 8 -13 10 -13 18 0 10 15 6 30 -9 30
-5 0 -11 -4 -14 -8z"/>
<path d="M11256 9400 c-9 -22 -20 -40 -26 -40 -5 0 -10 -8 -10 -19 0 -10 -9
-21 -20 -24 -14 -4 -20 -13 -20 -34 l1 -28 17 21 c10 12 27 26 39 32 15 8 19
18 16 37 -4 20 -1 25 15 25 23 0 36 28 26 54 -10 26 -21 19 -38 -24z"/>
<path d="M10400 9271 c0 -10 28 -41 36 -41 2 0 4 11 4 25 0 18 -5 25 -20 25
-11 0 -20 -4 -20 -9z"/>
<path d="M11140 9229 c0 -18 2 -19 15 -9 15 12 12 30 -6 30 -5 0 -9 -10 -9
-21z"/>
<path d="M10346 9225 c4 -8 8 -15 10 -15 2 0 4 7 4 15 0 8 -4 15 -10 15 -5 0
-7 -7 -4 -15z"/>
<path d="M10460 9188 c0 -18 -4 -40 -10 -48 -7 -12 -13 -10 -33 12 -21 22 -26
24 -31 12 -9 -24 -8 -29 14 -54 17 -20 24 -20 22 0 0 3 8 6 18 6 13 0 16 -4 9
-12 -6 -8 -4 -14 7 -18 25 -10 41 -7 24 5 -11 7 -4 8 23 3 38 -6 38 -6 31 22
-4 16 -18 39 -31 51 -12 12 -23 29 -23 38 0 8 -4 15 -10 15 -5 0 -10 -15 -10
-32z"/>
<path d="M11096 9174 c-4 -13 -14 -24 -23 -24 -12 0 -14 -3 -6 -11 17 -17 50
-1 55 26 7 32 -18 41 -26 9z"/>
<path d="M10094 9127 c-8 -22 11 -46 26 -31 7 7 5 17 -4 30 -14 18 -15 18 -22
1z"/>
<path d="M9885 9111 c-3 -5 -1 -12 5 -16 5 -3 10 1 10 9 0 18 -6 21 -15 7z"/>
<path d="M11934 8900 c0 -124 2 -174 3 -112 2 61 2 163 0 225 -1 61 -3 11 -3
-113z"/>
<path d="M11914 8895 c0 -121 2 -169 3 -107 2 62 2 161 0 220 -1 59 -3 8 -3
-113z"/>
<path d="M9960 9078 c-10 -22 -10 -30 3 -49 l16 -22 7 27 c3 15 2 37 -4 49
-10 22 -10 22 -22 -5z"/>
<path d="M10542 9087 c-23 -27 -3 -60 73 -121 28 -22 31 -23 32 -6 1 10 -7 20
-18 23 -11 3 -19 14 -19 25 0 12 -8 23 -19 27 -10 3 -22 20 -27 37 -8 27 -11
29 -22 15z"/>
<path d="M11470 9090 c0 -5 -9 -10 -21 -10 -12 0 -23 -8 -26 -20 -3 -11 -11
-20 -18 -20 -23 0 -36 -72 -15 -85 6 -3 10 3 10 14 0 11 8 28 18 38 11 10 22
26 25 36 4 9 13 17 22 17 8 0 15 9 15 20 0 11 -2 20 -5 20 -3 0 -5 -4 -5 -10z"/>
<path d="M11595 8928 c-4 -90 -6 -316 -4 -503 2 -187 1 -346 -1 -353 -4 -10
36 -13 193 -15 197 -2 197 -2 197 20 0 12 -6 26 -13 30 -8 4 -17 16 -20 26 -6
15 -13 17 -39 11 -18 -4 -39 -7 -46 -7 -7 0 -10 -7 -8 -14 3 -8 2 -12 -3 -9
-5 3 -14 -1 -21 -9 -10 -12 -92 -32 -112 -27 -4 1 -20 3 -37 4 -53 4 -59 33
-49 258 4 107 6 254 3 325 -3 72 -1 166 5 209 5 44 6 82 2 85 -5 3 -12 21 -15
38 -5 26 -2 35 13 43 24 13 26 36 4 44 -40 15 -41 11 -49 -156z"/>
<path d="M10141 9050 c0 -33 1 -34 11 -12 8 17 8 26 0 34 -9 9 -12 4 -11 -22z"/>
<path d="M11011 9058 c-5 -14 -17 -28 -25 -31 -9 -4 -16 -18 -16 -34 l1 -28
18 23 c11 12 24 22 29 22 13 0 23 53 12 64 -6 6 -13 -1 -19 -16z"/>
<path d="M10220 9012 c0 -7 -9 -12 -20 -12 -13 0 -20 -7 -20 -19 0 -10 9 -21
20 -24 15 -4 20 -14 20 -36 0 -21 5 -31 15 -31 9 0 20 -11 25 -25 5 -14 16
-25 24 -25 8 0 16 -10 18 -22 2 -13 9 -23 17 -23 31 0 21 28 -28 77 -28 28
-51 54 -52 57 0 3 -2 23 -3 43 -1 33 -16 69 -16 40z"/>
<path d="M10928 8934 c-2 -16 -8 -29 -15 -29 -15 0 -19 -5 -27 -37 -11 -48 17
-33 43 22 17 37 21 54 13 62 -7 7 -11 2 -14 -18z"/>
<path d="M9967 8893 c-9 -86 -7 -625 2 -648 18 -43 23 61 19 375 -3 176 -7
323 -10 326 -3 2 -8 -21 -11 -53z"/>
<path d="M10674 8899 c-3 -6 -1 -16 5 -22 8 -8 11 -5 11 11 0 24 -5 28 -16 11z"/>
<path d="M11300 8860 c0 -11 -11 -27 -25 -36 -14 -9 -23 -19 -20 -22 2 -3 0
-11 -6 -19 -9 -10 -8 -13 4 -13 9 0 19 9 22 20 3 11 13 20 21 20 8 0 14 6 14
13 0 6 3 22 6 35 4 13 2 22 -5 22 -6 0 -11 -9 -11 -20z"/>
<path d="M11130 8844 c0 -9 5 -14 12 -12 18 6 21 28 4 28 -9 0 -16 -7 -16 -16z"/>
<path d="M10845 8819 c-4 -6 -5 -13 -2 -16 7 -7 27 6 27 18 0 12 -17 12 -25
-2z"/>
<path d="M10390 8700 c0 -11 4 -20 9 -20 5 0 7 9 4 20 -3 11 -7 20 -9 20 -2 0
-4 -9 -4 -20z"/>
<path d="M10430 8640 c0 -5 5 -10 10 -10 6 0 10 5 10 10 0 6 -4 10 -10 10 -5
0 -10 -4 -10 -10z"/>
<path d="M11136 8628 c-8 -12 -13 -25 -10 -30 10 -17 22 -7 26 22 5 36 4 37
-16 8z"/>
<path d="M10470 8582 c0 -24 8 -32 26 -25 10 4 11 9 1 24 -15 24 -27 24 -27 1z"/>
<path d="M11097 8584 c-4 -4 -7 -18 -7 -31 0 -14 -6 -23 -15 -23 -16 0 -42
-46 -32 -56 10 -10 27 6 27 27 0 10 7 19 15 19 8 0 17 11 21 25 7 28 2 50 -9
39z"/>
<path d="M10510 8533 c0 -5 5 -15 10 -23 8 -12 10 -11 10 8 0 12 -4 22 -10 22
-5 0 -10 -3 -10 -7z"/>
<path d="M10548 8495 c-9 -10 7 -58 21 -63 9 -3 11 6 9 29 -3 31 -17 47 -30
34z"/>
<path d="M11010 8439 c0 -5 5 -7 10 -4 6 3 10 8 10 11 0 2 -4 4 -10 4 -5 0
-10 -5 -10 -11z"/>
<path d="M10597 8423 c-13 -12 -7 -30 18 -59 14 -16 25 -35 25 -41 0 -7 6 -13
14 -13 12 0 13 7 5 33 -5 17 -14 34 -19 35 -6 2 -10 9 -10 17 0 16 -25 37 -33
28z"/>
<path d="M10966 8394 c-9 -23 -7 -44 3 -44 11 0 21 49 11 55 -4 3 -11 -2 -14
-11z"/>
<path d="M10926 8332 c-4 -7 -16 -12 -27 -12 -10 0 -19 -4 -19 -10 0 -12 30
-13 49 -1 7 5 11 15 9 22 -3 10 -6 10 -12 1z"/>
<path d="M10720 8216 c0 -23 5 -36 13 -36 7 0 21 -18 30 -39 27 -60 43 -59 73
5 37 78 35 80 -83 101 -32 5 -33 4 -33 -31z"/>
<path d="M9640 8179 c-1 -24 -7 -61 -14 -81 -8 -21 -11 -38 -7 -38 70 -4 383
-2 387 3 4 4 2 12 -3 19 -6 7 -14 40 -18 73 -5 33 -10 51 -12 40 -2 -11 -7
-27 -10 -35 -3 -8 -7 -21 -9 -28 -7 -38 -14 -44 -42 -37 -15 4 -49 9 -77 12
-27 2 -52 8 -55 12 -3 5 -28 8 -57 8 -65 1 -74 7 -71 48 1 19 -1 37 -5 41 -4
4 -7 -13 -7 -37z"/>
<path d="M12970 9815 c0 -10 11 -15 35 -15 24 0 35 5 35 15 0 10 -11 15 -35
15 -24 0 -35 -5 -35 -15z"/>
<path d="M13120 9816 c0 -14 36 -16 313 -16 279 0 380 7 321 23 -11 2 -157 5
-326 6 -273 2 -308 0 -308 -13z"/>
<path d="M12560 9799 c0 -20 3 -21 52 -15 56 8 68 12 68 27 0 5 -27 9 -60 9
-55 0 -60 -2 -60 -21z"/>
<path d="M13918 9813 c7 -3 16 -2 19 1 4 3 -2 6 -13 5 -11 0 -14 -3 -6 -6z"/>
<path d="M13971 9811 c-12 -8 -10 -11 10 -15 60 -13 99 -10 99 9 0 11 -12 15
-47 15 -27 0 -55 -4 -62 -9z"/>
<path d="M12475 9770 c-3 -6 1 -13 9 -16 21 -8 66 3 66 16 0 13 -67 13 -75 0z"/>
<path d="M14120 9740 c49 -44 55 -46 76 -25 13 13 12 15 -11 21 -16 4 -25 13
-25 25 0 16 -7 19 -42 19 l-42 0 44 -40z"/>
<path d="M12425 9730 c-11 -17 5 -32 21 -19 7 6 11 15 8 20 -7 12 -21 11 -29
-1z"/>
<path d="M12383 9682 c-3 -12 -11 -18 -18 -16 -17 7 -29 -12 -21 -33 6 -14 12
-11 36 15 33 37 36 45 20 50 -6 2 -14 -5 -17 -16z"/>
<path d="M14231 9687 c2 -1 12 -9 22 -16 14 -12 17 -11 17 3 0 10 -8 16 -22
16 -12 0 -19 -1 -17 -3z"/>
<path d="M12303 9591 c-3 -11 -13 -21 -24 -24 -14 -4 -19 -14 -19 -41 0 -20 5
-36 10 -36 6 0 10 8 10 19 0 24 23 43 47 39 35 -5 43 11 17 37 -30 30 -34 31
-41 6z"/>
<path d="M12425 9600 c3 -5 8 -10 11 -10 2 0 4 5 4 10 0 6 -5 10 -11 10 -5 0
-7 -4 -4 -10z"/>
<path d="M14330 9568 c0 -28 15 -53 32 -53 8 0 13 -14 13 -37 0 -32 23 -79 26
-52 3 31 -5 80 -14 86 -6 3 -15 21 -21 39 -13 39 -36 51 -36 17z"/>
<path d="M13966 9525 c-3 -9 0 -15 9 -15 16 0 20 16 6 24 -5 3 -11 -1 -15 -9z"/>
<path d="M13706 9513 c-4 -5 -193 -8 -871 -15 -142 -1 -174 -5 -139 -19 26
-10 1112 -9 1144 1 14 4 18 8 10 9 -9 1 -21 6 -27 12 -11 11 -107 22 -117 12z"/>
<path d="M13920 9490 c-12 -8 -12 -10 2 -15 19 -7 38 1 38 16 0 12 -21 11 -40
-1z"/>
<path d="M12227 9463 c-4 -3 -7 -27 -7 -52 0 -55 16 -45 26 17 6 39 -2 53 -19
35z"/>
<path d="M13993 9453 c-18 -7 -16 -23 2 -23 8 0 15 -4 15 -10 0 -16 27 -12 34
5 4 12 -22 38 -36 34 -2 0 -9 -3 -15 -6z"/>
<path d="M12620 9440 c0 -5 9 -10 20 -10 11 0 20 5 20 10 0 6 -9 10 -20 10
-11 0 -20 -4 -20 -10z"/>
<path d="M12582 9403 c5 -25 28 -28 28 -4 0 12 -6 21 -16 21 -9 0 -14 -7 -12
-17z"/>
<path d="M12679 9360 l-30 -29 3 -385 3 -386 32 -32 32 -32 598 3 c662 2 626
-2 660 68 16 35 18 70 17 388 -1 343 -1 351 -23 386 -12 20 -32 40 -44 43 -12
3 -291 6 -620 6 l-599 0 -29 -30z"/>
<path d="M14432 9360 c0 -14 2 -19 5 -12 2 6 2 18 0 25 -3 6 -5 1 -5 -13z"/>
<path d="M14425 9140 c-4 -6 -6 -86 -6 -178 0 -92 -3 -221 -8 -286 -7 -109 -6
-121 11 -138 17 -17 18 -8 18 297 0 173 -2 315 -4 315 -3 0 -8 -5 -11 -10z"/>
<path d="M14060 8910 c0 -129 4 -231 10 -240 9 -13 10 -13 11 0 0 8 5 -1 11
-20 5 -19 14 -38 19 -41 6 -3 12 -28 15 -55 7 -63 23 -93 24 -43 0 45 19 72
52 72 19 0 28 7 37 34 7 19 10 37 7 40 -11 11 -99 16 -92 5 3 -6 2 -13 -4 -17
-5 -3 -10 3 -10 15 0 12 -5 18 -10 15 -21 -13 -30 53 -30 230 0 167 -2 185
-20 206 l-19 24 -1 -225z"/>
<path d="M12551 9100 c-2 -18 -3 -407 -2 -435 1 -17 3 -17 11 -5 12 18 12 394
0 430 -4 14 -9 18 -9 10z"/>
<path d="M12232 8835 c-1 -27 -5 -90 -8 -140 -4 -67 -2 -86 6 -73 7 11 9 64 7
140 -1 68 -4 101 -5 73z"/>
<path d="M12542 8617 c-12 -14 -5 -57 9 -57 5 0 9 16 9 35 0 38 -2 41 -18 22z"/>
<path d="M12402 8574 c-7 -8 -8 -14 -3 -14 16 0 18 -34 1 -48 -13 -11 -12 -12
5 -4 11 5 25 8 31 5 6 -2 11 3 11 11 0 8 -5 13 -10 9 -5 -3 -4 4 2 15 9 17 8
23 -6 31 -13 6 -22 5 -31 -5z"/>
<path d="M12260 8553 c0 -21 3 -24 9 -14 5 8 7 20 4 28 -8 21 -13 15 -13 -14z"/>
<path d="M14055 8539 c-5 -29 -13 -43 -26 -46 -10 -3 -19 -14 -19 -24 0 -11
-10 -24 -22 -29 -19 -7 -20 -9 -5 -9 10 -1 25 -8 34 -16 8 -8 19 -13 24 -10 5
4 9 -1 9 -9 0 -19 16 -22 18 -3 16 125 4 249 -13 146z"/>
<path d="M12460 8520 c0 -19 3 -21 12 -12 9 9 9 15 0 24 -9 9 -12 7 -12 -12z"/>
<path d="M12222 8474 c2 -27 8 -48 13 -46 15 3 12 85 -3 90 -10 3 -12 -8 -10
-44z"/>
<path d="M12380 8480 c0 -5 5 -10 10 -10 6 0 10 5 10 10 0 6 -4 10 -10 10 -5
0 -10 -4 -10 -10z"/>
<path d="M14374 8433 c-6 -32 -14 -47 -26 -49 -10 -1 -18 2 -18 7 0 5 -7 9
-16 9 -13 0 -15 -7 -10 -30 3 -18 1 -30 -5 -30 -6 0 -8 -4 -5 -9 4 -5 3 -11
-1 -13 -5 -1 -20 -22 -35 -45 -23 -35 -25 -43 -13 -53 18 -15 45 -6 45 15 0 8
5 15 10 15 6 0 15 11 20 25 5 14 16 25 24 25 7 0 17 11 20 25 4 14 13 25 21
25 12 0 15 14 15 65 0 76 -14 86 -26 18z"/>
<path d="M12373 8445 c0 -11 4 -12 14 -4 7 6 13 13 13 15 0 2 -6 4 -13 4 -8 0
-14 -7 -14 -15z"/>
<path d="M12768 8433 c12 -2 32 -2 45 0 12 2 2 4 -23 4 -25 0 -35 -2 -22 -4z"/>
<path d="M12256 8383 c4 -21 9 -42 11 -46 6 -11 33 12 33 28 0 7 7 19 16 26
14 12 14 14 -3 20 -10 4 -28 8 -41 8 -21 1 -22 -2 -16 -36z"/>
<path d="M12307 8324 c-8 -8 3 -35 13 -29 4 3 11 -11 14 -30 4 -20 16 -41 26
-48 11 -6 20 -16 20 -22 0 -6 8 -15 19 -20 10 -6 32 -18 49 -27 35 -20 70 -15
51 8 -6 8 -18 14 -25 14 -8 0 -14 6 -14 14 0 8 -20 26 -45 40 -30 18 -47 36
-51 54 -11 44 -37 65 -57 46z"/>
<path d="M14170 8236 c0 -19 27 -28 33 -11 7 15 -1 25 -20 25 -7 0 -13 -6 -13
-14z"/>
<path d="M14220 8194 c0 -8 5 -12 10 -9 6 4 8 11 5 16 -9 14 -15 11 -15 -7z"/>
<path d="M14130 8169 c0 -6 -4 -7 -10 -4 -5 3 -10 -1 -10 -9 0 -12 -11 -16
-50 -16 -46 0 -50 -2 -46 -22 2 -17 11 -24 31 -26 48 -6 93 7 100 28 4 11 15
20 26 20 29 0 23 17 -11 29 -20 6 -30 7 -30 0z"/>
<path d="M12658 8143 c6 -2 18 -2 25 0 6 3 1 5 -13 5 -14 0 -19 -2 -12 -5z"/>
<path d="M12522 8117 c-11 -13 -6 -16 42 -22 33 -4 54 -12 53 -19 -1 -8 176
-12 678 -14 456 -1 676 1 669 8 -5 5 -37 11 -70 12 -32 1 -51 3 -41 6 9 2 17
8 17 13 0 11 2 11 -84 -1 -92 -14 -246 -18 -246 -8 0 4 -9 8 -20 8 -11 0 -20
-4 -20 -10 0 -5 -20 -10 -45 -10 -25 0 -45 5 -45 10 0 6 -18 10 -40 10 -22 0
-40 -4 -40 -10 0 -5 -18 -10 -40 -10 -22 0 -40 5 -40 10 0 6 -28 10 -65 10
-37 0 -65 -4 -65 -10 0 -14 -77 -13 -82 2 -3 8 -15 9 -49 0 -24 -6 -62 -9 -84
-6 -22 3 -67 1 -100 -3 -74 -11 -155 0 -172 23 -17 23 -95 31 -111 11z"/>
<path d="M14676 9692 c5 -117 4 -174 -4 -189 -15 -28 7 -48 40 -36 13 4 312 8
665 8 424 0 642 3 640 10 -1 7 -222 10 -637 10 -656 0 -691 2 -677 40 3 7 9
64 12 126 6 99 10 116 28 130 l21 17 -30 26 c-16 14 -37 26 -47 26 -17 0 -17
-11 -11 -168z"/>
<path d="M16005 9849 c-4 -5 5 -9 19 -9 14 0 26 4 26 8 0 11 -39 12 -45 1z"/>
<path d="M14911 9820 c-11 -6 -9 -9 5 -13 11 -4 252 -5 537 -3 306 2 517 0
517 -6 0 -5 6 -3 14 4 8 7 12 15 11 17 -8 7 -1072 9 -1084 1z"/>
<path d="M16130 9811 c8 -5 35 -12 60 -16 25 -3 52 -8 61 -11 22 -6 13 -41
-12 -49 -20 -7 -28 -55 -9 -55 6 0 10 6 10 14 0 16 34 31 49 22 5 -4 11 0 14
6 3 10 9 10 25 1 24 -14 32 -8 32 24 0 24 -4 27 -52 37 -16 4 -28 13 -28 21 0
12 -16 15 -82 15 -53 0 -78 -4 -68 -9z"/>
<path d="M16448 9669 c-4 -24 -1 -33 13 -36 26 -7 33 -35 13 -50 -9 -7 -21
-10 -27 -6 -6 4 -8 -2 -5 -15 3 -12 1 -23 -5 -25 -8 -2 -7 -6 1 -11 7 -4 12
-2 12 3 0 6 8 11 19 11 10 0 24 7 31 15 14 16 40 16 52 0 4 -5 8 2 8 17 0 26
-40 78 -60 78 -5 0 -10 10 -12 22 -5 37 -35 34 -40 -3z"/>
<path d="M16592 9490 c0 -14 2 -19 5 -12 2 6 2 18 0 25 -3 6 -5 1 -5 -13z"/>
<path d="M16107 9493 c-26 -7 -10 -23 24 -23 20 0 29 4 27 13 -5 13 -24 17
-51 10z"/>
<path d="M16190 9440 c20 -13 53 -13 45 0 -3 6 -18 10 -33 10 -21 0 -24 -2
-12 -10z"/>
<path d="M16471 9413 c0 -25 1 -26 9 -8 12 27 12 35 0 35 -5 0 -10 -12 -9 -27z"/>
<path d="M16257 9404 c-3 -4 -2 -15 4 -26 6 -10 10 -29 9 -41 -3 -38 0 -48 11
-41 7 4 9 22 6 45 -3 23 -1 39 5 39 6 0 5 6 -2 15 -13 16 -23 19 -33 9z"/>
<path d="M16590 9351 c0 -6 5 -13 10 -16 6 -3 10 -1 10 6 0 21 12 2 20 -33 8
-33 8 -33 9 10 1 38 -1 42 -24 42 -14 0 -25 -4 -25 -9z"/>
<path d="M16272 9230 c0 -14 2 -19 5 -12 2 6 2 18 0 25 -3 6 -5 1 -5 -13z"/>
<path d="M14680 9168 c0 -2 -1 -254 -3 -561 l-2 -559 35 6 c19 3 352 6 739 6
387 0 701 3 698 6 -4 4 -37 10 -74 15 -38 4 -88 13 -112 21 -35 10 -45 10 -48
1 -6 -16 -69 -17 -79 -2 -4 7 -18 8 -38 4 -31 -8 -305 -14 -786 -19 -234 -3
-274 1 -291 26 -4 6 -7 141 -8 301 -1 161 -4 371 -6 467 -4 203 3 244 43 258
l27 10 -28 1 c-16 1 -37 6 -48 11 -10 6 -19 9 -19 8z"/>
<path d="M14990 9160 c-14 -4 -68 -9 -120 -10 -96 -2 -96 -3 -7 -25 9 -2 22
-7 27 -10 6 -3 10 -1 10 4 0 6 13 11 29 11 25 0 30 -5 39 -42 16 -64 20 -98
11 -92 -5 3 -9 -12 -8 -33 0 -31 2 -34 10 -18 6 14 8 -1 6 -48 -1 -37 1 -67 6
-67 4 0 8 30 9 68 l2 67 5 -70 6 -70 8 64 c4 35 7 87 7 116 0 35 5 57 15 65
22 18 19 77 -4 90 -11 5 -21 10 -23 9 -2 -1 -14 -5 -28 -9z"/>
<path d="M16621 9105 c-12 -65 -11 -375 2 -445 2 -14 5 -38 6 -55 1 -23 3 -27
11 -15 11 17 12 522 1 560 -6 20 -10 12 -20 -45z"/>
<path d="M16268 8913 c-2 -114 -2 -247 0 -294 3 -93 -8 -139 -33 -139 -8 0
-15 -4 -15 -9 0 -5 12 -8 28 -7 24 3 27 8 30 42 4 43 17 65 36 58 7 -3 19 10
27 28 8 18 19 32 26 31 6 -1 13 6 16 16 6 22 -43 55 -50 34 -4 -10 -9 -10 -24
0 -18 11 -19 25 -19 224 0 130 -4 214 -10 218 -7 4 -11 -66 -12 -202z"/>
<path d="M14997 8730 c3 -11 9 -20 13 -20 5 0 6 9 3 20 -3 11 -9 20 -13 20 -5
0 -6 -9 -3 -20z"/>
<path d="M16580 8480 c-7 -27 -18 -50 -24 -50 -7 0 -21 -9 -30 -19 -14 -15
-15 -24 -6 -40 6 -13 7 -21 1 -21 -5 0 -18 -13 -27 -30 -14 -22 -21 -27 -31
-18 -7 6 -10 20 -7 33 4 15 0 24 -10 28 -19 8 -24 0 -32 -49 -3 -22 -12 -46
-20 -55 -8 -8 -14 -25 -14 -37 0 -24 -57 -82 -80 -82 -9 0 -22 6 -29 13 -8 7
-11 7 -8 1 8 -14 -47 -39 -62 -29 -6 3 -18 -1 -27 -9 -8 -9 -14 -16 -12 -17
68 -16 99 -17 133 -6 16 6 36 19 43 29 7 10 21 18 30 18 10 0 23 9 30 20 7 11
18 20 25 20 26 0 147 130 147 159 0 11 8 27 17 37 12 12 19 38 21 86 5 81 -10
91 -28 18z"/>
<path d="M15190 8432 c-16 -5 -30 -21 -30 -34 0 -5 19 -8 43 -8 28 0 37 3 28
9 -7 5 -11 13 -7 19 7 12 -13 21 -34 14z"/>
<path d="M15794 8425 c8 -8 20 -15 26 -15 6 0 8 -5 4 -12 -4 -7 -3 -8 4 -4 6
4 9 13 6 21 -4 10 5 15 33 18 26 2 18 4 -25 5 -56 2 -62 0 -48 -13z"/>
<path d="M16169 8431 c12 -8 51 -4 51 5 0 2 -15 4 -32 4 -23 0 -29 -3 -19 -9z"/>
<path d="M15928 8393 c7 -3 16 -2 19 1 4 3 -2 6 -13 5 -11 0 -14 -3 -6 -6z"/>
<path d="M16019 8251 c7 -5 9 -11 5 -13 -5 -3 -4 -3 3 -2 6 2 14 -2 17 -9 2
-7 5 -5 5 4 1 9 -6 20 -15 23 -23 9 -31 7 -15 -3z"/>
<path d="M16876 9803 c10 -62 8 -865 -1 -998 -4 -44 -11 -100 -17 -124 -7 -28
-7 -45 -1 -50 18 -11 22 -52 28 -281 5 -156 3 -234 -4 -254 -7 -16 -10 -30 -8
-33 3 -2 1653 -5 1904 -3 9 0 9 8 2 30 -7 17 -9 94 -7 190 l5 160 -25 0 c-21
0 -23 -3 -16 -22 4 -13 8 -75 9 -139 1 -64 5 -121 9 -128 9 -14 -55 -81 -78
-81 -9 0 -33 9 -53 20 -27 14 -48 18 -82 14 -25 -3 -48 -9 -51 -12 -6 -8 -580
-9 -575 -1 2 3 -173 5 -388 4 -358 -1 -395 0 -431 17 -30 14 -48 16 -80 9
-100 -21 -116 -7 -109 97 6 99 6 98 4 157 -2 114 -6 958 -4 1060 7 331 9 347
61 369 26 11 31 15 16 15 -11 1 -29 10 -39 21 -10 11 -31 20 -48 20 l-30 0 9
-57z"/>
<path d="M18706 9834 c-18 -25 -18 -26 1 -47 20 -23 47 -129 47 -183 0 -17 -9
-42 -20 -57 -15 -22 -27 -27 -59 -26 -22 0 -58 -5 -80 -10 -26 -7 -213 -11
-538 -11 -482 1 -499 1 -534 21 -31 17 -40 19 -59 8 -13 -6 -21 -16 -17 -22 3
-5 -6 -7 -24 -3 -18 4 -40 1 -59 -9 l-29 -15 30 -2 c93 -5 1415 -11 1420 -6 2
2 0 35 -6 74 -6 46 -6 107 0 172 5 56 7 110 4 122 -8 29 -53 26 -77 -6z"/>
<path d="M17550 9830 c0 -5 -40 -7 -255 -11 -221 -5 229 -16 683 -18 342 -1
392 1 392 14 0 13 -36 15 -262 15 -145 0 -329 2 -411 3 -81 1 -147 0 -147 -3z"/>
<path d="M18451 9820 c-19 -4 -43 -6 -55 -4 -15 3 -17 1 -8 -8 6 -6 25 -11 42
-11 16 0 30 -4 30 -8 0 -4 44 -6 98 -5 81 3 98 6 100 20 2 11 -4 16 -20 16
-13 0 -52 2 -88 5 -36 2 -80 0 -99 -5z"/>
<path d="M17123 9813 c9 -2 23 -2 30 0 6 3 -1 5 -18 5 -16 0 -22 -2 -12 -5z"/>
<path d="M17090 9568 c0 -7 5 -20 10 -28 8 -12 10 -9 10 13 0 15 -4 27 -10 27
-5 0 -10 -6 -10 -12z"/>
<path d="M17215 9319 c-4 -12 -2 -26 4 -32 8 -8 11 -2 11 21 0 37 -6 41 -15
11z"/>
<path d="M17135 9190 c-3 -5 -1 -10 4 -10 6 0 11 5 11 10 0 6 -2 10 -4 10 -3
0 -8 -4 -11 -10z"/>
<path d="M17373 9152 c-45 -3 -53 -6 -53 -23 0 -14 7 -19 28 -20 15 0 36 -3
47 -6 39 -10 63 -5 85 17 16 16 28 20 43 15 12 -4 85 -8 162 -10 77 -1 151 -3
165 -5 l25 -2 -25 -8 c-21 -7 -17 -8 20 -8 33 -1 39 2 25 8 -17 6 -14 9 19 15
24 5 41 4 45 -3 4 -6 92 -13 225 -18 175 -5 223 -10 237 -22 10 -9 16 -18 14
-22 -2 -3 10 -7 26 -8 16 -1 29 2 29 8 0 5 -8 10 -17 11 -14 0 -13 2 5 9 32
13 27 25 -15 37 l-38 11 36 -5 c20 -3 47 1 59 7 13 7 20 8 16 2 -4 -7 5 -9 26
-6 27 4 40 -1 72 -29 l39 -34 -30 -18 c-28 -16 -29 -20 -23 -66 7 -51 14 -64
33 -64 7 0 12 -15 12 -33 1 -27 -3 -32 -22 -32 -12 0 -24 -4 -27 -8 -3 -5 -45
-12 -94 -15 -49 -4 -102 -13 -118 -22 -25 -13 -100 -15 -536 -14 -330 0 -514
-3 -525 -10 -13 -7 124 -10 447 -11 256 0 563 -3 682 -7 l217 -6 1 186 c0 103
1 191 2 197 3 9 -1181 20 -1319 12z"/>
<path d="M17548 9103 c6 -2 18 -2 25 0 6 3 1 5 -13 5 -14 0 -19 -2 -12 -5z"/>
<path d="M17683 9103 c15 -2 37 -2 50 0 12 2 0 4 -28 4 -27 0 -38 -2 -22 -4z"/>
<path d="M17090 8850 c0 -5 5 -10 10 -10 6 0 10 5 10 10 0 6 -4 10 -10 10 -5
0 -10 -4 -10 -10z"/>
<path d="M17224 8600 c0 -52 1 -74 3 -47 2 26 2 68 0 95 -2 26 -3 4 -3 -48z"/>
<path d="M17407 8420 c3 -13 0 -20 -8 -20 -9 -1 -8 -4 4 -11 24 -14 48 -4 40
17 -3 9 0 20 8 25 10 6 5 9 -18 9 -26 0 -30 -3 -26 -20z"/>
<path d="M18508 8433 c6 -2 18 -2 25 0 6 3 1 5 -13 5 -14 0 -19 -2 -12 -5z"/>
<path d="M19015 9839 c-9 -28 4 -59 23 -59 10 0 28 7 40 16 l23 16 -20 17
c-11 10 -18 20 -15 23 2 3 -6 6 -20 6 -16 0 -28 -7 -31 -19z"/>
<path d="M19337 9846 c-14 -15 -41 -23 -76 -25 -31 -2 6 -21 49 -26 24 -3 46
-8 49 -11 7 -6 2 -1184 -5 -1195 -2 -4 -12 -5 -22 -2 -9 3 -14 3 -10 -1 4 -5
-2 -18 -13 -29 -14 -15 -19 -33 -17 -57 4 -47 28 -46 42 3 l11 39 19 -32 c10
-18 22 -28 27 -23 4 4 9 314 9 688 l2 680 -25 3 c-13 2 -31 -4 -40 -12z"/>
<path d="M19046 9738 c-3 -13 -4 -34 -2 -48 2 -14 4 -31 5 -37 2 -26 19 -12
25 21 11 60 -16 121 -28 64z"/>
<path d="M19050 9620 c0 -5 5 -10 10 -10 6 0 10 5 10 10 0 6 -4 10 -10 10 -5
0 -10 -4 -10 -10z"/>
<path d="M19050 9565 c0 -8 5 -15 10 -15 6 0 10 7 10 15 0 8 -4 15 -10 15 -5
0 -10 -7 -10 -15z"/>
<path d="M19041 9531 c-7 -5 -16 -26 -21 -47 -7 -32 -6 -42 10 -59 17 -18 18
-32 13 -152 -3 -73 -10 -133 -15 -133 -4 0 -7 -102 -6 -227 l2 -228 6 195 6
195 0 -223 c-1 -122 1 -222 4 -222 9 0 9 -94 0 -110 -8 -13 -10 -13 -11 0 0 8
-5 2 -10 -14 -4 -17 -5 -35 0 -40 5 -6 9 -51 10 -100 1 -48 6 -99 12 -113 5
-13 9 -39 9 -58 0 -45 16 -53 26 -13 11 46 6 335 -7 382 -6 22 -7 42 -2 45 13
9 16 90 5 104 -12 14 -9 365 3 441 6 35 4 50 -5 56 -6 4 -12 23 -11 41 2 84 8
150 14 156 14 14 6 44 -18 65 -27 24 -33 40 -11 32 7 -3 16 2 19 10 7 19 -4
28 -22 17z"/>
<path d="M19540 8436 c0 -2 18 -6 39 -8 22 -2 37 0 35 4 -5 8 -74 11 -74 4z"/>
<path d="M20770 8429 c0 -7 -8 -18 -17 -25 -17 -12 -17 -13 -1 -14 31 0 41
-38 34 -119 -4 -42 -8 -91 -10 -108 -1 -18 -6 -36 -10 -40 -4 -4 -42 -8 -86
-9 -43 -1 -87 -6 -97 -11 -22 -11 -863 -8 -947 2 -38 5 -57 5 -53 -2 4 -6 -14
-7 -51 -2 -67 9 -204 3 -282 -12 -72 -15 -170 3 -177 32 -6 23 -23 25 -23 2 0
-9 -7 -25 -17 -35 -9 -10 -14 -20 -11 -23 2 -3 409 -5 903 -5 l898 -1 -4 88
c-2 48 -3 134 -2 191 l3 102 -25 0 c-14 0 -25 -5 -25 -11z"/>
<path d="M20605 8401 c-17 -7 -17 -8 7 -14 27 -7 58 0 58 12 0 9 -41 11 -65 2z"/>
<path d="M20693 8393 c9 -2 23 -2 30 0 6 3 -1 5 -18 5 -16 0 -22 -2 -12 -5z"/>
<path d="M19308 8273 c7 -3 16 -2 19 1 4 3 -2 6 -13 5 -11 0 -14 -3 -6 -6z"/>
<path d="M21647 9853 c-4 -3 -7 -11 -7 -17 0 -6 5 -5 12 2 6 6 9 14 7 17 -3 3
-9 2 -12 -2z"/>
<path d="M21933 9820 c-13 -5 -23 -11 -23 -14 0 -9 615 -1 618 9 3 13 -564 17
-595 5z"/>
<path d="M21410 9805 c0 -20 40 -28 74 -16 15 6 39 11 54 11 15 0 34 5 42 10
10 7 -14 10 -77 10 -76 0 -93 -3 -93 -15z"/>
<path d="M21692 9815 c7 -7 97 -9 105 -2 3 4 -20 7 -52 7 -32 0 -56 -2 -53 -5z"/>
<path d="M21819 9807 c5 -5 19 -7 32 -5 20 3 19 5 -9 9 -20 3 -29 2 -23 -4z"/>
<path d="M22820 9810 c0 -23 80 -26 88 -2 2 8 -10 12 -42 12 -25 0 -46 -4 -46
-10z"/>
<path d="M21330 9765 c0 -14 -38 -41 -53 -37 -4 1 -10 -5 -13 -13 -4 -8 -15
-15 -25 -15 -10 0 -19 -5 -19 -11 0 -6 -18 -28 -39 -49 -65 -63 -81 -110 -37
-110 18 0 25 6 28 22 4 31 32 34 46 6 9 -20 10 -17 8 22 -5 55 4 74 42 89 17
7 29 19 28 28 0 9 10 19 25 23 27 8 69 39 69 52 0 5 -13 8 -30 8 -20 0 -30 -5
-30 -15z"/>
<path d="M22952 9768 c6 -16 33 -22 56 -13 14 5 14 7 2 15 -22 14 -62 12 -58
-2z"/>
<path d="M23084 9696 c-4 -10 2 -25 15 -39 49 -51 93 -108 111 -144 l19 -38 1
54 c0 45 -3 52 -16 47 -11 -4 -18 1 -21 14 -3 11 -12 20 -19 20 -8 0 -14 7
-14 15 0 8 -9 20 -20 27 -11 7 -20 18 -20 24 0 6 -7 17 -15 24 -12 10 -16 9
-21 -4z"/>
<path d="M22708 9563 c7 -3 16 -2 19 1 4 3 -2 6 -13 5 -11 0 -14 -3 -6 -6z"/>
<path d="M21095 9497 c-9 -49 0 -74 20 -57 19 16 19 50 1 75 -13 19 -15 17
-21 -18z"/>
<path d="M21670 9505 c-11 -13 -25 -16 -66 -11 -34 3 -57 1 -69 -8 -14 -10 92
-13 603 -15 364 -1 623 2 626 8 11 17 -48 32 -91 23 -23 -5 -46 -6 -52 -2 -6
3 -166 4 -354 2 -514 -7 -565 -6 -578 11 -3 4 -12 1 -19 -8z"/>
<path d="M22875 9480 c3 -5 10 -10 16 -10 5 0 9 5 9 10 0 6 -7 10 -16 10 -8 0
-12 -4 -9 -10z"/>
<path d="M23236 9463 c-7 -27 1 -124 12 -135 9 -9 6 -189 -3 -216 -3 -7 0 -10
5 -7 6 3 10 -1 10 -10 0 -10 -5 -13 -12 -9 -6 4 -8 3 -5 -3 3 -5 7 -46 8 -91
3 -130 17 -106 21 35 6 238 -2 453 -17 453 -8 0 -16 -8 -19 -17z"/>
<path d="M21461 9446 c-9 -10 -8 -16 4 -26 9 -8 15 -8 15 -2 0 6 10 14 23 18
21 7 21 7 2 15 -28 11 -31 11 -44 -5z"/>
<path d="M21132 9414 c-1 -15 3 -24 13 -24 18 0 20 24 2 38 -10 8 -13 5 -15
-14z"/>
<path d="M21062 9380 c0 -14 2 -19 5 -12 2 6 2 18 0 25 -3 6 -5 1 -5 -13z"/>
<path d="M21630 9395 c-8 -2 -32 -6 -52 -10 -28 -4 -41 -14 -59 -43 -22 -37
-22 -41 -22 -395 l1 -357 26 -35 c15 -19 37 -40 49 -47 17 -9 141 -13 502 -14
264 0 530 2 592 5 109 6 112 7 142 38 l31 33 0 369 c0 211 -4 381 -10 395 -22
60 -8 59 -623 62 -309 2 -569 1 -577 -1z"/>
<path d="M22929 8940 c-3 -212 -4 -388 -2 -392 2 -4 17 -2 33 3 23 8 27 14 21
27 -25 48 -33 133 -31 329 2 115 -1 255 -6 313 -8 89 -10 47 -15 -280z"/>
<path d="M21061 8839 c0 -162 4 -285 8 -275 4 11 6 49 4 84 -3 35 -1 62 4 59
10 -6 1 409 -9 419 -5 4 -8 -125 -7 -287z"/>
<path d="M21415 9068 c-2 -7 -6 -97 -7 -201 -2 -134 0 -187 8 -187 7 0 14 10
18 23 10 38 7 365 -4 372 -6 3 -12 0 -15 -7z"/>
<path d="M23221 8694 c0 -11 3 -14 6 -6 3 7 2 16 -1 19 -3 4 -6 -2 -5 -13z"/>
<path d="M23255 8648 c8 -71 15 -73 15 -5 0 32 -4 57 -10 57 -6 0 -8 -21 -5
-52z"/>
<path d="M21390 8644 c0 -8 5 -12 10 -9 6 4 8 11 5 16 -9 14 -15 11 -15 -7z"/>
<path d="M21411 8559 c-10 -29 -3 -59 15 -59 9 0 14 12 14 34 0 42 -17 56 -29
25z"/>
<path d="M23256 8568 c-4 -9 -5 -22 -1 -28 4 -6 -6 -10 -24 -10 -28 0 -31 -3
-31 -30 0 -35 13 -35 48 -2 17 16 22 31 20 55 -3 25 -6 28 -12 15z"/>
<path d="M22890 8520 c0 -13 5 -20 13 -17 6 2 12 10 12 17 0 7 -6 15 -12 18
-8 2 -13 -5 -13 -18z"/>
<path d="M23255 8457 c-4 -10 -5 -21 -1 -24 10 -10 18 4 13 24 -4 17 -4 17
-12 0z"/>
<path d="M23163 8453 c-20 -8 -15 -23 7 -23 11 0 20 7 20 15 0 15 -6 17 -27 8z"/>
<path d="M21100 8409 c0 -20 6 -42 14 -48 8 -7 17 -23 20 -36 4 -15 11 -22 20
-19 11 4 12 13 5 37 -5 17 -13 33 -18 37 -6 3 -17 19 -25 35 l-16 30 0 -36z"/>
<path d="M21728 8433 c7 -3 16 -2 19 1 4 3 -2 6 -13 5 -11 0 -14 -3 -6 -6z"/>
<path d="M21813 8433 c15 -2 37 -2 50 0 12 2 0 4 -28 4 -27 0 -38 -2 -22 -4z"/>
<path d="M22795 8430 c3 -5 12 -7 20 -3 21 7 19 13 -6 13 -11 0 -18 -4 -14
-10z"/>
<path d="M23200 8405 c0 -8 5 -26 11 -42 l12 -28 9 34 c5 18 7 36 3 39 -12 12
-35 10 -35 -3z"/>
<path d="M22633 8393 c26 -2 68 -2 95 0 26 2 4 3 -48 3 -52 0 -74 -1 -47 -3z"/>
<path d="M23140 8310 c0 -13 6 -17 20 -13 31 8 33 20 5 25 -19 4 -25 1 -25
-12z"/>
<path d="M23046 8282 c-3 -6 -1 -14 5 -17 15 -10 25 3 12 16 -7 7 -13 7 -17 1z"/>
<path d="M23113 8265 c-18 -5 -33 -15 -33 -22 0 -7 -9 -17 -19 -23 -11 -5 -23
-19 -26 -30 -3 -11 -17 -23 -31 -26 -27 -7 -31 -19 -9 -28 19 -7 57 7 74 28 7
9 20 16 27 16 8 0 14 6 14 14 0 7 9 20 21 28 13 8 20 21 17 33 -3 18 -7 19
-35 10z"/>
<path d="M21220 8231 c0 -20 39 -51 65 -51 8 0 15 -9 15 -20 0 -13 7 -20 19
-20 11 0 26 -8 33 -19 13 -18 82 -44 92 -34 2 3 18 6 35 7 24 2 31 -2 31 -16
0 -12 8 -18 23 -18 12 0 319 0 682 0 544 0 661 3 667 14 4 8 28 17 53 20 29 5
45 12 45 21 0 18 -41 29 -74 21 -17 -4 -28 -1 -34 9 -4 9 -25 18 -47 22 l-38
6 6 -41 c7 -38 6 -41 -21 -45 -44 -8 -232 -7 -232 1 0 10 -838 8 -868 -2 -33
-11 -92 2 -92 19 0 16 -3 17 -70 20 -25 1 -59 2 -77 3 -17 1 -38 9 -46 17 -8
7 -26 17 -41 21 -14 3 -26 9 -26 13 0 3 -14 21 -31 39 -34 36 -69 43 -69 13z"/>
<path d="M23001 8241 c-10 -6 -9 -10 3 -14 8 -3 18 -2 21 3 8 13 -9 20 -24 11z"/>
</g>
</svg>
