<?xml version="1.0" standalone="no"?>
<!DOCTYPE svg PUBLIC "-//W3C//DTD SVG 20010904//EN"
 "http://www.w3.org/TR/2001/REC-SVG-20010904/DTD/svg10.dtd">
<svg version="1.0" xmlns="http://www.w3.org/2000/svg"
 width="2083.000000pt" height="2083.000000pt" viewBox="0 0 2083.000000 2083.000000"
 preserveAspectRatio="xMidYMid meet">

<g transform="translate(0.000000,2083.000000) scale(0.100000,-0.100000)"
fill="#000000" stroke="none">
<path d="M14790 17244 l0 -777 123 8 c67 3 142 13 167 21 25 7 114 17 198 22
110 6 156 12 162 22 13 21 -1 292 -16 307 -6 7 -17 45 -24 85 -7 40 -18 82
-25 94 -7 11 -16 51 -20 89 -4 38 -16 83 -26 100 -11 16 -19 46 -19 65 0 23
-7 42 -20 53 -16 14 -20 29 -20 82 0 58 -2 65 -20 65 -12 0 -20 7 -20 18 0 9
-9 23 -20 30 -11 7 -20 21 -20 32 0 10 -9 24 -19 30 -11 5 -23 20 -27 32 -3
12 -13 28 -21 36 -8 8 -16 27 -20 42 -3 16 -13 30 -24 33 -10 3 -19 12 -19 21
0 9 -4 16 -9 16 -5 0 -12 9 -16 19 -3 10 -17 22 -30 25 -15 4 -25 14 -25 24 0
10 -9 25 -20 35 -11 9 -20 24 -20 32 0 8 -5 15 -10 15 -13 0 -27 11 -82 63
-22 20 -44 37 -49 37 -5 0 -9 -310 -9 -776z"/>
<path d="M15368 15655 c-2 -3 -42 -9 -89 -15 -46 -5 -109 -16 -139 -25 -33 -9
-96 -15 -162 -15 -65 0 -108 -4 -108 -10 0 -5 -18 -13 -40 -16 l-40 -7 0
-1013 c0 -573 4 -1014 9 -1014 5 0 11 13 14 29 3 16 13 36 22 44 8 9 18 36 21
61 4 28 12 46 20 46 7 0 16 16 20 35 3 19 9 34 13 33 25 -3 31 6 31 47 0 26 9
63 20 85 11 22 20 49 20 60 0 11 9 30 20 42 11 12 20 32 20 45 0 12 9 27 20
33 13 7 20 21 20 40 0 31 19 80 30 80 4 0 10 27 14 59 4 33 11 61 16 63 5 2
16 37 25 78 9 41 22 78 30 83 8 4 15 21 15 37 0 17 8 38 19 49 10 10 20 39 23
65 3 26 13 52 21 59 12 9 16 37 19 125 3 96 6 115 21 123 13 8 17 23 17 62 0
29 7 75 16 102 8 28 20 102 25 165 6 63 16 121 21 127 6 7 16 57 23 110 6 54
15 105 19 113 5 11 0 16 -17 18 -13 1 -26 -1 -29 -3z"/>
<path d="M15012 7398 c-9 -9 -12 -71 -12 -242 0 -127 4 -236 8 -242 4 -6 28
-14 54 -18 25 -4 51 -12 56 -19 7 -8 12 -313 14 -867 4 -776 6 -859 21 -899 9
-24 17 -54 17 -68 0 -41 49 -134 107 -206 65 -79 77 -87 133 -87 38 0 61 7
190 60 25 11 62 24 82 30 31 9 39 18 48 48 14 53 12 84 -7 112 -17 23 -18 102
-23 1207 -3 650 -9 1185 -13 1190 -5 4 -156 9 -335 11 -252 2 -330 0 -340 -10z"/>
<path d="M15994 7403 c-30 -6 -34 -34 -34 -269 0 -226 2 -234 66 -234 36 0 73
-15 86 -34 4 -6 8 -396 8 -866 l0 -855 25 -103 c26 -109 57 -160 149 -255 39
-39 40 -39 100 -34 34 2 75 11 91 19 65 33 122 56 163 67 29 8 46 19 52 35 11
30 -4 152 -22 173 -11 13 -14 227 -18 1182 l-5 1165 -25 7 c-26 7 -600 9 -636
2z"/>
<path d="M2097 7194 c-4 -4 -7 -112 -7 -240 l0 -232 23 -6 c12 -3 43 -6 69 -6
84 0 78 75 78 -956 l0 -911 31 -7 c61 -12 524 -7 537 6 9 9 12 119 12 435 l0
423 23 14 c16 10 80 15 242 20 256 8 455 37 532 79 15 9 62 30 103 47 48 21
89 46 115 72 43 45 95 121 95 141 0 7 10 30 23 52 21 39 22 48 22 330 0 283
-1 291 -22 326 -13 20 -23 43 -23 52 0 29 -53 116 -93 154 -44 40 -103 83
-115 83 -4 0 -23 8 -42 19 -19 10 -59 23 -88 30 -30 6 -63 18 -75 26 -12 8
-42 15 -67 15 -25 1 -63 8 -85 17 -35 15 -110 17 -660 20 -342 2 -624 1 -628
-3z m1175 -518 c76 -44 148 -155 148 -229 0 -57 -79 -180 -141 -221 -44 -28
-44 -28 -219 -30 -126 -1 -181 3 -197 12 -23 13 -23 15 -23 237 0 291 -18 269
214 263 164 -5 173 -6 218 -32z"/>
<path d="M6850 6733 c-14 -3 -44 -11 -68 -19 -25 -8 -84 -14 -145 -14 -80 -1
-111 -5 -142 -20 -22 -11 -53 -20 -70 -20 -16 0 -48 -9 -71 -19 -23 -10 -61
-22 -85 -26 -24 -4 -55 -16 -68 -26 -13 -11 -28 -19 -33 -19 -5 0 -38 -23 -73
-51 -57 -47 -65 -57 -71 -97 -4 -25 -2 -67 5 -94 6 -27 14 -101 18 -164 l6
-114 32 0 c17 0 36 -5 43 -12 9 -9 12 -156 12 -600 l0 -588 26 -10 c28 -11
465 -12 504 -1 l25 7 5 634 5 635 50 24 c42 20 70 24 182 29 72 3 137 8 145
13 10 7 12 59 9 266 -1 142 -7 266 -12 276 -8 14 -24 17 -107 16 -53 -1 -108
-4 -122 -6z"/>
<path d="M7945 6724 c-16 -9 -65 -19 -107 -23 -49 -4 -83 -13 -95 -23 -10 -9
-30 -20 -45 -23 -16 -4 -28 -11 -28 -15 0 -4 -14 -14 -32 -21 -29 -12 -54 -30
-78 -56 -4 -4 -26 -28 -49 -52 -30 -31 -43 -55 -47 -85 -4 -22 -14 -52 -23
-66 -13 -21 -16 -58 -16 -240 0 -186 2 -219 17 -245 10 -16 18 -38 18 -47 0
-19 134 -158 152 -158 6 0 48 -25 94 -55 124 -81 110 -95 -102 -95 l-131 0 -7
-31 c-3 -17 -6 -69 -6 -115 0 -50 -6 -102 -16 -130 -11 -34 -16 -90 -17 -203
l-2 -156 40 -8 c22 -4 69 -14 105 -23 36 -8 102 -19 147 -24 46 -5 93 -14 105
-21 16 -9 111 -12 328 -13 263 -1 309 1 335 15 17 9 53 19 82 22 56 6 219 81
263 121 33 29 62 71 93 131 65 130 60 529 -8 648 -14 26 -31 47 -35 47 -5 0
-11 8 -14 18 -6 17 -84 62 -133 77 -13 3 -23 10 -23 15 0 4 -12 13 -27 19 -16
7 -39 18 -53 26 -14 8 -41 15 -61 15 -20 0 -56 9 -80 20 -24 11 -58 20 -76 20
-18 0 -54 8 -80 19 -26 10 -68 22 -93 26 -25 4 -55 13 -67 21 -12 8 -33 14
-46 14 -14 0 -35 8 -48 18 -13 10 -37 23 -52 30 -39 17 -32 42 18 66 59 29
230 28 311 -3 52 -19 62 -27 79 -64 l20 -42 156 -3 c117 -2 159 1 166 10 28
37 43 111 46 219 3 82 8 123 20 146 12 23 17 57 17 117 l0 85 -37 6 c-21 3
-65 14 -98 25 -39 13 -87 20 -135 20 -50 0 -95 7 -133 20 -50 18 -82 20 -269
20 -176 0 -218 -3 -243 -16z m95 -1204 c34 -11 73 -20 85 -20 40 0 189 -52
223 -78 28 -21 31 -27 20 -39 -37 -36 -283 -65 -319 -37 -8 6 -38 14 -67 17
-85 10 -139 82 -113 150 9 24 16 27 59 27 27 0 78 -9 112 -20z"/>
<path d="M11930 6720 c-30 -10 -80 -19 -110 -19 -33 -1 -69 -8 -90 -19 -19
-11 -48 -22 -65 -26 -16 -4 -38 -15 -48 -24 -26 -23 -86 -21 -122 5 -17 12
-54 24 -84 28 -30 3 -63 11 -73 16 -31 17 -171 13 -206 -5 -17 -9 -40 -16 -50
-16 -11 0 -31 -9 -46 -21 -26 -20 -26 -21 -26 -163 0 -151 12 -245 33 -258 6
-4 22 -8 35 -8 29 0 109 -46 122 -70 6 -12 10 -261 10 -658 0 -574 2 -640 16
-646 29 -11 489 -7 523 5 l31 11 0 634 c0 616 1 635 20 654 32 32 123 53 214
48 93 -5 140 -26 155 -70 6 -16 16 -35 24 -42 9 -9 16 -48 20 -100 3 -47 12
-96 18 -108 9 -17 15 -133 19 -413 7 -375 8 -392 30 -447 25 -64 82 -119 140
-136 19 -6 53 -18 75 -26 30 -11 83 -15 205 -16 161 0 166 1 225 28 l60 29 -7
79 c-4 43 -10 129 -14 189 -4 61 -11 116 -17 123 -5 7 -32 12 -61 12 -44 0
-56 4 -78 28 -32 34 -34 49 -47 447 -14 406 -24 530 -43 552 -9 10 -19 32 -22
50 -4 17 -14 34 -22 37 -8 3 -14 11 -14 19 0 12 -106 119 -190 192 -55 48
-119 75 -200 85 -41 5 -88 16 -105 24 -42 22 -165 20 -235 -4z"/>
<path d="M13650 6720 c-23 -13 -53 -20 -90 -20 -36 0 -68 -7 -93 -20 -20 -11
-43 -20 -51 -20 -8 0 -36 -11 -62 -25 -26 -14 -57 -25 -69 -25 -27 0 -35 -22
-35 -106 0 -37 9 -87 23 -130 13 -38 27 -86 31 -107 4 -21 16 -58 27 -83 19
-45 20 -46 57 -40 42 7 154 21 289 36 204 22 337 7 378 -42 14 -16 25 -34 25
-39 0 -21 -58 -29 -208 -29 -104 0 -172 -5 -202 -14 -25 -7 -70 -17 -100 -21
-48 -6 -117 -34 -198 -79 -45 -26 -193 -171 -199 -196 -3 -14 -13 -36 -22 -50
-13 -21 -17 -62 -19 -247 -3 -208 -2 -224 18 -275 50 -124 84 -183 134 -233
44 -44 199 -125 240 -125 15 0 41 -8 59 -17 28 -16 60 -18 242 -18 179 1 215
3 242 18 18 9 46 17 63 17 17 0 58 9 92 21 67 22 97 21 168 -6 35 -13 81 -17
205 -18 154 -2 162 -1 210 24 l50 25 2 110 c2 74 -3 138 -15 199 l-18 90 -57
5 c-45 4 -63 11 -84 33 l-28 27 -5 429 c-3 292 -9 432 -16 442 -6 8 -14 36
-18 63 -3 27 -12 59 -20 70 -7 12 -17 36 -21 55 -4 18 -20 52 -35 75 -59 86
-220 226 -261 226 -12 0 -31 8 -42 18 -17 15 -48 17 -286 19 -248 2 -268 1
-301 -17z m448 -1106 c21 -14 22 -21 22 -134 0 -165 2 -164 -212 -158 -131 3
-135 4 -169 32 -75 63 -69 173 14 238 35 28 52 34 112 39 94 8 205 0 233 -17z"/>
<path d="M9945 6719 c-16 -6 -83 -14 -148 -18 -81 -6 -123 -13 -135 -23 -9 -9
-28 -19 -42 -23 -14 -4 -32 -13 -40 -20 -8 -7 -26 -16 -39 -20 -69 -21 -179
-123 -215 -200 -15 -33 -36 -78 -46 -100 -35 -76 -45 -209 -44 -595 0 -368 10
-509 38 -552 8 -13 17 -34 21 -48 15 -55 55 -127 87 -157 30 -29 151 -93 175
-93 6 0 30 -9 54 -20 24 -11 64 -20 89 -20 25 0 72 -7 103 -15 80 -21 382 -21
451 0 27 8 70 15 95 15 25 1 64 8 86 16 22 9 54 19 72 23 17 5 45 18 61 30 17
11 34 21 39 21 39 2 183 199 183 252 0 10 9 36 21 58 21 40 21 48 18 519 -4
443 -5 480 -22 499 -10 11 -21 37 -24 58 -3 21 -17 53 -30 72 -12 19 -23 39
-23 43 0 9 -110 116 -165 161 -38 31 -125 78 -145 78 -9 0 -26 7 -39 16 -15
11 -59 19 -134 25 -62 5 -128 13 -147 19 -42 12 -114 12 -155 -1z m191 -535
c61 -30 124 -103 124 -144 0 -15 7 -44 15 -63 12 -28 15 -81 15 -232 0 -151
-3 -204 -15 -232 -8 -19 -15 -48 -15 -63 0 -36 -46 -102 -95 -137 -37 -25 -48
-28 -130 -28 -80 0 -94 3 -124 25 -51 37 -79 71 -86 105 -4 17 -16 49 -27 72
-18 40 -19 60 -16 266 2 188 6 227 20 249 9 14 20 43 24 64 8 46 32 76 94 115
61 39 140 40 216 3z"/>
<path d="M4840 6701 c-90 -4 -134 -11 -157 -24 -18 -9 -40 -17 -51 -17 -10 0
-33 -11 -52 -25 -19 -14 -38 -25 -43 -25 -12 0 -85 -58 -151 -119 -77 -73 -86
-84 -86 -103 0 -10 -7 -35 -16 -56 -19 -42 -38 -162 -55 -337 -20 -216 6 -658
46 -755 8 -19 17 -49 20 -65 12 -64 188 -244 254 -260 14 -4 33 -13 42 -21 8
-8 35 -18 60 -23 24 -5 62 -16 84 -25 22 -8 57 -15 78 -16 21 0 52 -8 70 -17
28 -16 63 -18 292 -18 216 0 268 3 310 17 28 9 73 21 100 27 114 23 187 47
197 65 17 30 4 149 -21 189 -11 19 -21 48 -21 64 0 17 -8 38 -19 47 -11 10
-22 29 -26 43 -3 14 -13 36 -22 49 -15 24 -18 24 -172 24 -86 0 -174 -5 -195
-11 -57 -16 -202 -17 -217 -1 -7 6 -33 12 -57 12 -61 0 -108 24 -174 92 -54
55 -79 100 -63 116 3 4 231 9 505 12 391 4 502 8 512 18 10 10 13 83 13 330 0
309 -1 319 -24 387 -42 122 -70 170 -134 233 -87 85 -106 102 -114 102 -3 0
-21 11 -39 25 -18 14 -38 25 -45 25 -6 0 -26 9 -43 19 -27 17 -56 20 -246 24
-118 3 -271 2 -340 -2z m282 -477 c69 -18 94 -36 140 -103 45 -67 47 -103 10
-141 l-30 -30 -225 0 c-266 0 -257 -4 -240 98 11 63 15 70 65 114 33 30 66 50
88 54 19 3 46 9 60 14 38 13 62 12 132 -6z"/>
<path d="M16994 6693 c-29 -6 -34 -49 -34 -284 0 -210 1 -214 68 -224 20 -3
48 -9 62 -13 l25 -7 6 -455 c4 -250 10 -468 14 -485 4 -16 14 -39 21 -50 8
-11 14 -27 14 -37 0 -10 9 -35 20 -55 11 -21 20 -43 20 -49 0 -7 19 -33 41
-58 47 -52 191 -128 278 -147 28 -6 53 -15 57 -20 3 -5 90 -9 193 -9 167 0
191 -2 211 -18 l22 -18 -27 -32 c-15 -18 -33 -32 -41 -32 -7 0 -32 -10 -54
-21 -38 -20 -52 -21 -193 -17 -110 4 -162 10 -189 22 -21 9 -58 16 -84 16 -25
0 -61 7 -79 16 -31 14 -35 14 -59 -1 -15 -10 -26 -27 -26 -39 0 -12 -9 -40
-20 -61 -12 -22 -23 -69 -27 -105 -3 -36 -12 -75 -19 -87 -8 -13 -14 -50 -14
-91 0 -69 0 -70 33 -82 17 -6 48 -18 67 -25 19 -8 53 -17 74 -20 22 -4 49 -13
60 -21 11 -8 32 -14 47 -14 14 0 68 -9 120 -20 106 -22 363 -28 434 -9 22 6
60 15 85 20 45 10 69 20 190 79 110 53 160 89 160 114 0 6 17 36 39 67 21 30
44 72 50 92 7 20 17 37 22 37 5 0 9 8 9 18 0 10 10 36 22 57 l22 40 1 1007 c0
553 -4 1010 -8 1015 -10 9 -437 17 -484 8 l-33 -6 0 -613 c0 -337 -3 -633 -6
-658 -3 -24 -14 -55 -25 -69 -17 -23 -23 -24 -151 -27 -151 -4 -163 1 -216 82
l-27 41 -3 620 c-2 474 -5 621 -15 627 -12 8 -614 9 -653 1z"/>
<path d="M6636 4500 c-4 -33 -4 -65 -1 -70 4 -6 23 -17 43 -25 20 -9 42 -23
49 -32 7 -8 19 -13 28 -10 11 5 15 22 15 69 0 35 -3 73 -6 84 -7 26 -43 44
-88 44 -33 0 -33 0 -40 -60z"/>
<path d="M11345 4508 c-10 -78 -6 -89 40 -105 22 -7 43 -20 47 -27 5 -8 16
-13 26 -12 15 3 17 15 17 84 -1 48 -6 87 -12 93 -7 7 -34 14 -62 17 l-49 4 -7
-54z"/>
<path d="M14453 4543 c-7 -2 -13 -13 -13 -24 0 -10 -7 -19 -15 -19 -8 0 -15
-4 -15 -8 0 -12 -95 -29 -116 -21 -11 4 -31 8 -46 8 -17 1 -28 7 -28 15 0 8
-9 18 -20 21 -11 3 -20 11 -20 16 0 5 -9 9 -20 9 -18 0 -20 -7 -20 -68 0 -48
6 -79 20 -107 11 -22 20 -52 20 -67 l0 -28 134 0 133 0 6 41 c3 22 13 49 22
59 9 10 23 40 31 66 13 45 13 49 -6 69 -11 12 -20 27 -20 33 0 13 -7 14 -27 5z"/>
<path d="M14800 4195 c-7 -8 -16 -13 -20 -10 -22 14 -26 -68 -5 -105 8 -14 14
-40 15 -57 0 -38 30 -73 60 -73 12 0 25 -10 32 -25 9 -20 18 -25 50 -25 21 0
37 3 37 8 -6 35 25 46 36 12 6 -19 15 -20 144 -20 93 0 141 4 149 12 7 7 12
40 12 76 0 55 -3 65 -20 69 -11 3 -20 14 -20 24 0 13 -7 19 -24 19 -15 0 -26
7 -29 20 -5 19 -14 20 -129 20 -116 0 -178 -11 -178 -32 0 -5 -13 -8 -30 -8
-26 0 -30 4 -30 28 0 29 -20 82 -31 82 -4 0 -12 -7 -19 -15z"/>
<path d="M13987 4193 c-4 -3 -7 -17 -7 -30 0 -19 -5 -23 -33 -23 -26 0 -36 -6
-45 -25 -7 -14 -19 -28 -27 -31 -21 -8 -22 -159 -1 -167 9 -4 16 3 20 17 4 17
18 25 55 35 77 19 84 33 76 140 -7 86 -16 106 -38 84z"/>
<path d="M8306 4128 c-14 -120 -7 -141 51 -157 18 -5 29 -15 31 -29 2 -14 11
-22 22 -22 39 0 38 167 -1 177 -11 3 -19 14 -19 24 0 14 -7 19 -25 19 -18 0
-25 5 -25 20 0 11 -6 20 -14 20 -9 0 -15 -18 -20 -52z"/>
<path d="M5405 4120 c-3 -11 -14 -20 -24 -20 -14 0 -20 -11 -25 -42 -4 -23
-14 -47 -23 -54 -14 -9 -18 -33 -21 -113 -4 -96 -3 -101 14 -94 27 10 34 23
34 69 0 33 6 46 34 71 19 16 54 36 78 42 40 11 49 10 101 -13 42 -18 58 -31
63 -50 4 -17 13 -26 25 -26 10 0 19 -4 19 -10 0 -5 7 -10 15 -10 9 0 15 9 15
25 0 14 -4 25 -10 25 -5 0 -10 12 -10 28 0 60 -13 105 -32 110 -10 2 -18 13
-18 23 0 12 -7 19 -19 19 -10 0 -21 9 -24 20 -5 18 -14 20 -95 20 -82 0 -91
-2 -97 -20z"/>
<path d="M6488 4120 c-7 -11 -21 -20 -30 -20 -11 0 -18 -8 -18 -19 0 -10 -9
-21 -20 -24 -16 -4 -20 -14 -20 -45 0 -31 -4 -41 -20 -45 -18 -5 -20 -14 -20
-110 0 -100 1 -105 20 -100 17 5 20 14 20 58 0 62 7 85 25 85 8 0 17 9 20 20
13 40 60 53 168 48 96 -5 108 -9 120 -42 2 -5 11 -7 20 -3 14 5 17 20 17 80 0
82 -9 97 -55 97 -19 0 -35 7 -43 20 -10 17 -23 20 -92 20 -69 0 -82 -3 -92
-20z"/>
<path d="M7600 4103 c-31 -34 -35 -44 -38 -104 -4 -58 -7 -68 -25 -73 -19 -5
-20 -10 -14 -119 3 -68 11 -125 19 -139 11 -20 14 -8 19 107 4 72 7 131 8 133
0 1 8 2 16 2 9 0 20 11 26 23 7 16 27 29 61 40 47 15 55 15 106 -1 37 -11 58
-24 65 -39 6 -13 18 -23 29 -23 15 0 18 -8 18 -46 0 -38 3 -45 18 -42 14 3 17
17 20 89 3 80 1 87 -18 92 -15 4 -20 13 -20 41 0 20 -3 36 -7 36 -5 0 -24 14
-43 30 -33 28 -40 30 -120 30 -85 0 -85 0 -120 -37z"/>
<path d="M8742 4120 c-12 -11 -28 -20 -37 -20 -10 0 -15 -10 -15 -30 0 -16 -4
-30 -10 -30 -5 0 -10 -9 -10 -20 0 -11 -4 -20 -10 -20 -5 0 -10 -9 -10 -20 0
-11 4 -20 9 -20 5 0 12 -10 16 -22 5 -18 8 -19 11 -7 10 35 229 55 270 24 10
-8 29 -15 42 -15 21 0 22 4 22 64 0 76 -6 96 -30 96 -10 0 -20 9 -23 20 -5 18
-14 20 -104 20 -85 0 -102 -3 -121 -20z"/>
<path d="M9544 4084 c-17 -50 -17 -58 -3 -82 13 -24 22 -28 83 -32 l68 -5 -4
72 c-6 89 -16 103 -78 103 l-47 0 -19 -56z"/>
<path d="M9958 4126 c-14 -10 -18 -28 -18 -85 l0 -72 107 3 106 3 10 29 c7 20
6 45 -3 82 l-13 54 -86 0 c-56 -1 -92 -5 -103 -14z"/>
<path d="M10690 4130 c0 -5 -7 -10 -15 -10 -9 0 -18 -12 -22 -30 -3 -17 -15
-37 -26 -45 -19 -13 -21 -25 -22 -97 0 -79 1 -83 23 -86 18 -3 22 1 22 25 0
16 6 37 13 46 15 20 101 57 133 57 25 0 114 -39 126 -55 4 -5 8 -34 8 -63 0
-50 2 -53 23 -50 21 3 22 7 22 105 0 95 -2 104 -22 118 -13 9 -23 23 -23 31 0
8 -11 26 -25 39 -22 23 -32 25 -120 25 -57 0 -95 -4 -95 -10z"/>
<path d="M12272 4099 c-30 -29 -42 -49 -42 -70 0 -16 -4 -29 -8 -29 -25 0 -42
-209 -22 -270 5 -17 8 -19 9 -7 1 9 6 17 11 17 6 0 10 35 10 85 0 81 1 86 24
95 13 5 26 14 28 21 4 13 94 49 124 49 31 0 104 -39 104 -55 0 -8 4 -15 9 -15
19 0 41 -32 41 -61 0 -16 9 -39 20 -51 l20 -22 0 106 c0 98 -2 107 -20 113
-12 4 -20 15 -20 29 0 12 -14 41 -31 64 l-31 42 -92 0 -93 0 -41 -41z"/>
<path d="M13328 4123 c-7 -10 -22 -23 -33 -29 -13 -7 -21 -24 -23 -45 -2 -19
-11 -40 -20 -47 -14 -10 -17 -29 -16 -96 0 -45 3 -90 7 -100 13 -33 27 -5 27
55 0 43 4 59 14 59 7 0 26 12 41 26 28 26 31 26 134 22 119 -6 141 -12 141
-39 0 -23 25 -25 34 -3 23 60 -12 174 -54 174 -6 0 -20 9 -32 20 -19 17 -36
20 -114 20 -77 0 -95 -3 -106 -17z"/>
<path d="M14126 4081 c-17 -55 -18 -62 -3 -84 14 -22 53 -37 94 -37 25 0 14
147 -12 166 -40 29 -59 18 -79 -45z"/>
<path d="M9020 3816 c0 -65 4 -116 9 -116 5 0 11 -8 14 -17 6 -27 19 145 15
197 -2 33 -8 46 -20 48 -16 3 -18 -7 -18 -112z"/>
<path d="M15032 3792 c-10 -10 -26 -21 -35 -25 -9 -3 -17 -15 -17 -26 0 -10
-9 -21 -20 -24 -17 -4 -20 -14 -20 -70 0 -51 4 -67 20 -82 20 -18 20 -17 20
11 0 27 6 32 63 56 87 37 106 40 191 27 53 -8 76 -16 76 -25 0 -8 5 -14 10
-14 6 0 10 20 10 45 0 25 -4 45 -10 45 -5 0 -10 18 -10 40 0 54 -16 60 -149
60 -94 0 -114 -3 -129 -18z"/>
<path d="M6107 3663 c-4 -3 -7 -28 -7 -55 0 -39 3 -48 18 -48 16 0 18 -11 17
-105 0 -63 4 -109 11 -113 5 -4 16 -21 22 -37 20 -48 136 -135 181 -135 15 0
52 -7 81 -16 34 -10 72 -14 100 -11 123 16 222 36 244 51 34 22 77 20 126 -5
35 -18 53 -21 121 -17 74 4 83 7 104 34 30 36 30 46 3 100 l-22 44 -185 0
c-175 0 -251 -10 -251 -32 0 -4 -65 -8 -145 -8 -132 0 -148 2 -167 20 -13 12
-36 20 -54 20 -35 0 -84 38 -84 65 0 8 -7 15 -15 15 -9 0 -15 9 -15 24 0 46
-23 126 -37 126 -9 0 -13 14 -13 45 0 43 -14 58 -33 38z"/>
<path d="M12976 3609 c-11 -57 -7 -146 8 -158 7 -6 16 -33 20 -59 5 -40 17
-59 76 -127 66 -75 70 -82 64 -117 -6 -37 -5 -38 24 -38 17 0 38 -8 48 -17 26
-26 263 -33 287 -8 9 9 30 21 47 26 16 6 30 17 30 25 0 8 5 14 10 14 6 0 10 9
10 20 0 11 9 25 20 32 14 9 20 24 20 50 0 21 -3 38 -7 38 -5 0 -21 11 -37 25
-24 20 -36 24 -60 19 -17 -3 -32 -10 -34 -15 -4 -11 -252 -12 -252 -1 0 12
-52 32 -82 32 -19 0 -28 5 -28 16 0 9 -9 18 -20 21 -11 3 -20 14 -20 24 0 12
-7 19 -20 19 -15 0 -20 7 -20 28 0 30 -20 82 -32 82 -5 0 -8 11 -8 25 0 27
-19 75 -30 75 -4 0 -10 -14 -14 -31z"/>
<path d="M5055 3505 c-8 -117 -7 -121 28 -182 18 -30 84 -92 136 -128 l43 -29
232 0 c224 0 232 0 279 24 53 27 151 124 167 165 15 41 8 225 -9 225 -13 0
-31 -56 -31 -95 0 -35 -4 -44 -25 -53 -14 -6 -25 -18 -25 -27 0 -8 -6 -15 -14
-15 -8 0 -18 -9 -21 -20 -5 -16 -15 -20 -50 -20 -45 0 -95 -17 -95 -32 0 -4
-76 -8 -170 -8 -93 0 -170 3 -170 8 0 14 -54 32 -96 32 -40 0 -44 3 -55 35 -7
19 -19 35 -26 35 -8 0 -17 8 -20 18 -4 9 -12 22 -19 27 -6 6 -14 30 -17 55 -3
25 -13 58 -20 74 -14 26 -15 21 -22 -89z"/>
<path d="M7265 3517 c-7 -95 -5 -106 16 -147 32 -64 63 -99 132 -149 59 -43
61 -43 171 -53 164 -13 360 -2 415 25 52 26 149 127 157 165 3 15 12 47 20 71
8 25 14 68 14 97 0 47 -2 52 -20 47 -13 -3 -20 -14 -20 -29 0 -13 -8 -28 -19
-33 -10 -6 -22 -26 -25 -45 -4 -22 -13 -36 -26 -39 -11 -3 -20 -12 -20 -21 0
-9 -6 -16 -14 -16 -8 0 -18 -9 -21 -20 -5 -15 -15 -20 -42 -20 -43 0 -113 -20
-113 -32 0 -4 -72 -8 -160 -8 -88 0 -160 4 -160 8 0 14 -48 32 -85 32 -19 0
-35 5 -35 10 0 6 -11 16 -25 22 -14 6 -25 17 -25 24 0 6 -7 14 -15 18 -8 3
-15 14 -15 24 0 10 -9 28 -20 40 -11 12 -20 32 -20 45 0 45 -12 87 -25 87 -9
0 -15 -30 -20 -103z"/>
<path d="M11948 3609 c-15 -8 -18 -24 -18 -92 0 -117 26 -187 93 -249 29 -27
61 -51 72 -54 11 -4 32 -16 48 -28 26 -19 40 -20 255 -20 l227 0 57 33 c101
57 152 137 173 268 10 62 -3 135 -24 131 -11 -2 -17 -16 -19 -47 -2 -25 -11
-52 -23 -64 -10 -11 -19 -28 -19 -38 0 -9 -9 -19 -20 -22 -12 -3 -20 -14 -20
-27 0 -34 -24 -50 -76 -50 -49 0 -114 -18 -114 -32 0 -4 -65 -8 -145 -8 -80 0
-145 4 -145 8 0 10 -81 32 -118 32 -16 0 -32 8 -40 20 -7 11 -19 20 -27 20 -8
0 -15 7 -15 15 0 9 -7 18 -15 21 -8 4 -15 13 -15 20 0 8 -11 19 -24 25 -15 7
-23 18 -21 29 2 9 0 40 -3 68 -6 45 -9 50 -24 41z"/>
<path d="M10345 3528 c-19 -146 -3 -195 88 -271 110 -91 113 -91 362 -91 l220
0 57 32 c72 41 106 77 142 147 28 55 28 59 20 151 -7 76 -12 92 -23 85 -7 -5
-16 -31 -19 -59 -3 -38 -9 -51 -23 -55 -14 -4 -19 -14 -19 -40 0 -26 -5 -36
-20 -40 -11 -3 -20 -12 -20 -21 0 -13 -12 -16 -63 -16 -49 0 -68 -4 -85 -20
-19 -18 -35 -20 -177 -20 -142 0 -158 2 -177 20 -16 15 -36 20 -74 20 -44 0
-54 3 -59 20 -3 11 -15 20 -26 20 -12 0 -19 7 -19 19 0 11 -9 23 -20 26 -16 5
-20 15 -20 49 0 35 -23 106 -34 106 -2 0 -7 -28 -11 -62z"/>
<path d="M9041 3568 c-1 -9 -5 -18 -11 -20 -6 -2 -11 -50 -12 -113 -2 -132 10
-166 78 -221 46 -38 48 -38 145 -42 126 -5 160 1 180 34 13 21 14 35 6 65 -5
22 -13 39 -18 39 -5 0 -9 10 -9 21 0 19 -4 21 -32 15 -18 -3 -85 -3 -150 0
-102 6 -118 9 -123 25 -4 11 -13 19 -21 19 -11 0 -14 17 -15 73 -1 64 -15 149
-18 105z"/>
<path d="M11461 3483 c0 -7 -7 -12 -13 -10 -22 4 -22 -50 0 -62 18 -9 19 -16
10 -53 -14 -62 5 -124 54 -182 41 -47 42 -48 87 -41 25 4 57 13 71 20 14 7 42
15 63 19 20 4 37 11 37 15 0 5 -9 39 -20 75 -20 63 -32 78 -45 56 -3 -5 -33
-10 -65 -10 -32 0 -62 -5 -65 -11 -7 -11 -75 87 -75 108 0 7 -4 13 -8 13 -5 0
-13 17 -19 38 -6 20 -11 31 -12 25z"/>
<path d="M14706 3467 c-16 -12 -17 -18 -8 -48 6 -19 14 -50 17 -69 3 -23 19
-50 42 -73 48 -50 135 -107 162 -107 12 0 52 -7 88 -17 62 -15 73 -15 177 1
61 9 128 22 149 28 29 9 46 9 71 0 18 -7 81 -12 140 -12 101 0 108 1 132 26
18 18 24 32 20 47 -3 12 -6 32 -6 45 0 13 -6 22 -15 22 -8 0 -20 10 -26 22
l-12 22 -17 -22 c-14 -17 -29 -22 -64 -22 -25 0 -46 4 -46 8 0 19 -56 32 -139
32 -73 0 -91 -3 -109 -20 -19 -18 -35 -20 -162 -20 -77 0 -140 3 -140 8 0 12
-52 32 -82 32 -26 0 -78 40 -78 60 0 5 -6 13 -12 17 -7 4 -18 17 -24 28 -14
25 -34 29 -58 12z"/>
<path d="M9676 3393 c-12 -75 -8 -92 35 -138 56 -61 91 -80 175 -95 57 -10 88
-10 155 -1 46 7 99 15 116 17 39 6 49 31 39 97 -9 58 -44 84 -86 65 -17 -7
-30 -16 -30 -20 0 -5 -45 -8 -100 -8 -87 0 -104 3 -122 20 -12 11 -34 20 -49
20 -28 0 -70 33 -82 64 -4 9 -15 16 -25 16 -15 0 -21 -9 -26 -37z"/>
<path d="M8433 3333 c-4 -10 -15 -24 -25 -31 -13 -10 -18 -26 -18 -63 0 -44 3
-51 26 -59 28 -11 252 -14 278 -4 27 10 12 145 -19 166 -5 4 -61 8 -123 8 -98
0 -113 -2 -119 -17z"/>
<path d="M14216 3288 c-13 -44 -16 -70 -9 -88 l9 -25 147 0 c170 0 171 0 163
82 -8 93 -7 93 -159 93 l-133 0 -18 -62z"/>
<path d="M13856 3229 c-3 -17 -6 -44 -6 -60 0 -19 -5 -29 -15 -29 -8 0 -18
-12 -21 -27 -4 -16 -15 -35 -26 -44 -10 -9 -18 -24 -18 -33 0 -9 -7 -16 -15
-16 -9 0 -27 -11 -41 -25 -14 -14 -32 -25 -40 -25 -8 0 -17 -6 -20 -14 -3 -8
-28 -16 -63 -19 -71 -8 -91 -15 -91 -33 0 -11 -16 -14 -65 -14 -49 0 -65 3
-65 14 0 20 -24 27 -110 33 -44 4 -79 12 -85 19 -5 8 -24 16 -40 20 -29 5 -31
3 -48 -43 -9 -26 -17 -55 -17 -64 0 -24 43 -59 91 -74 24 -7 61 -21 83 -30 55
-23 354 -19 382 6 11 9 30 19 44 22 57 14 190 173 205 244 3 18 11 35 16 38 5
4 9 35 9 70 0 98 -30 154 -44 84z"/>
</g>
</svg>
