<?xml version="1.0" standalone="no"?>
<!DOCTYPE svg PUBLIC "-//W3C//DTD SVG 20010904//EN"
 "http://www.w3.org/TR/2001/REC-SVG-20010904/DTD/svg10.dtd">
<svg version="1.0" xmlns="http://www.w3.org/2000/svg"
 width="4134.000000pt" height="2502.000000pt" viewBox="0 0 4134.000000 2502.000000"
 preserveAspectRatio="xMidYMid meet">

<g transform="translate(0.000000,2502.000000) scale(0.100000,-0.100000)"
fill="#000000" stroke="none">
<path d="M0 12510 l0 -12510 20670 0 20670 0 0 12510 0 12510 -20670 0 -20670
0 0 -12510z m20230 8461 c47 -5 106 -19 131 -30 25 -11 72 -23 105 -27 32 -3
70 -14 84 -23 14 -10 74 -41 135 -71 107 -52 168 -88 250 -149 22 -16 59 -41
82 -55 23 -14 54 -38 70 -53 16 -16 56 -50 88 -78 57 -49 122 -111 469 -450
93 -90 204 -197 248 -237 43 -40 104 -100 136 -133 31 -33 118 -119 192 -192
503 -495 853 -850 1105 -1117 77 -82 151 -161 165 -175 14 -14 111 -118 214
-231 104 -113 202 -218 217 -235 34 -37 320 -374 369 -435 19 -24 47 -58 63
-76 15 -17 27 -36 27 -40 0 -5 12 -22 26 -39 14 -16 35 -46 45 -65 36 -63 64
-108 81 -127 9 -10 39 -64 68 -120 28 -57 55 -105 60 -108 5 -3 16 -30 24 -60
9 -29 22 -60 30 -67 7 -7 21 -38 31 -68 10 -30 26 -71 35 -90 10 -19 23 -60
30 -90 7 -30 20 -69 30 -87 10 -17 23 -56 29 -86 7 -30 20 -76 30 -103 11 -27
24 -94 31 -149 7 -55 21 -127 33 -160 21 -57 22 -77 22 -445 0 -375 -1 -387
-23 -455 -13 -38 -28 -119 -33 -179 -7 -72 -17 -123 -30 -148 -11 -21 -27 -73
-35 -116 -9 -42 -22 -84 -29 -92 -8 -9 -19 -38 -25 -65 -16 -75 -158 -388
-229 -505 -22 -36 -54 -88 -70 -116 -17 -29 -38 -57 -46 -64 -8 -7 -15 -18
-15 -25 0 -10 -54 -83 -160 -215 -138 -172 -400 -431 -505 -500 -16 -11 -55
-38 -85 -60 -30 -22 -86 -61 -125 -86 -38 -25 -81 -54 -95 -63 -14 -9 -43 -22
-65 -30 -22 -7 -49 -22 -60 -31 -31 -29 -224 -126 -284 -144 -30 -9 -64 -25
-76 -36 -12 -12 -45 -24 -72 -29 -28 -4 -65 -17 -84 -29 -19 -11 -66 -26 -104
-32 -39 -6 -87 -19 -107 -30 -20 -10 -74 -24 -120 -30 -46 -6 -112 -19 -148
-30 -157 -46 -817 -46 -965 0 -33 11 -89 24 -125 30 -36 6 -94 20 -130 31 -35
11 -95 24 -133 29 -37 6 -89 21 -115 34 -26 13 -63 27 -82 30 -45 9 -120 42
-425 191 -137 68 -258 126 -269 129 -29 10 -143 -14 -179 -38 -38 -25 -321
-166 -334 -166 -5 0 -24 -11 -43 -25 -19 -14 -41 -25 -49 -25 -9 0 -43 -13
-76 -28 -33 -16 -82 -34 -110 -41 -27 -7 -63 -21 -80 -31 -16 -10 -55 -21 -85
-25 -30 -4 -84 -16 -120 -26 -36 -11 -111 -29 -168 -40 -57 -11 -115 -25 -130
-31 -44 -18 -456 -34 -691 -26 -177 6 -224 11 -273 28 -33 11 -94 25 -136 31
-42 5 -97 18 -122 28 -25 11 -74 25 -110 32 -36 7 -84 23 -108 35 -24 13 -64
26 -90 30 -26 4 -59 17 -74 30 -15 12 -42 26 -60 29 -28 7 -113 44 -173 77
-10 6 -38 21 -62 33 -23 13 -55 32 -72 44 -16 12 -43 24 -60 27 -16 4 -38 15
-48 26 -10 11 -32 26 -49 33 -18 7 -61 35 -96 62 -35 26 -71 53 -80 58 -8 6
-35 26 -60 45 -212 165 -421 376 -603 610 -22 28 -48 60 -57 70 -9 11 -27 36
-38 57 -12 21 -39 67 -60 103 -21 36 -48 81 -59 101 -11 19 -27 41 -35 48 -9
7 -21 32 -27 55 -6 22 -19 52 -29 66 -9 14 -25 48 -35 75 -11 28 -24 59 -31
70 -6 11 -17 38 -24 59 -7 22 -21 53 -30 70 -10 17 -23 60 -30 96 -6 36 -20
81 -30 100 -11 19 -26 71 -35 115 -8 43 -22 89 -29 100 -8 12 -19 74 -26 141
-6 65 -20 164 -32 219 -17 82 -20 138 -21 315 0 133 4 230 11 255 6 22 21 119
32 215 12 100 29 194 39 220 10 25 24 86 31 135 8 56 20 98 30 110 10 11 23
44 29 73 6 29 19 69 30 90 10 20 24 55 31 77 12 39 61 144 152 330 46 93 97
179 121 205 8 8 22 30 32 49 9 19 28 46 40 59 13 14 26 36 29 48 4 13 15 34
27 46 20 23 53 63 164 198 33 41 69 83 80 95 11 12 48 55 82 96 34 40 77 90
95 109 18 20 117 128 220 240 103 113 201 219 218 235 16 17 30 36 30 43 0 6
5 12 10 12 10 0 100 91 230 231 94 102 1402 1408 1516 1514 53 50 102 96 108
103 31 37 105 110 119 118 8 5 84 75 168 155 85 81 177 165 204 189 28 23 55
48 60 55 6 7 27 21 46 31 42 22 102 62 181 121 31 24 76 50 100 59 24 10 50
23 58 29 8 7 31 17 50 24 19 6 43 20 55 31 12 11 47 23 90 30 38 6 90 20 115
31 77 35 277 48 450 30z m5008 -9764 c80 -53 74 115 73 -1850 -1 -1574 -2
-1757 -17 -1803 -26 -84 -26 -84 -352 -84 -155 0 -292 4 -306 10 -15 5 -34 27
-47 52 -12 24 -27 50 -34 58 -7 8 -20 42 -30 74 -18 65 -68 126 -104 126 -12
0 -54 -32 -101 -77 -45 -43 -109 -98 -143 -123 -68 -51 -180 -120 -193 -120
-5 0 -40 -13 -79 -28 -45 -19 -98 -31 -148 -35 -75 -7 -120 -24 -130 -51 -6
-15 -9 -257 -8 -553 1 -174 2 -183 23 -203 32 -30 49 -25 109 30 100 94 209
159 319 192 95 29 343 36 474 14 94 -16 220 -59 281 -96 17 -10 41 -21 54 -25
29 -9 213 -166 258 -221 82 -99 203 -327 227 -427 9 -38 23 -78 30 -90 30 -46
38 -327 34 -1167 -3 -925 2 -866 -82 -887 -58 -14 -603 -19 -656 -6 -25 6 -43
21 -65 53 l-30 45 -5 850 -5 850 -40 80 c-51 102 -125 176 -230 230 l-78 40
-126 0 c-102 -1 -133 -4 -161 -19 -19 -10 -55 -29 -80 -41 -95 -49 -204 -198
-231 -315 -9 -40 -14 -278 -18 -865 -6 -787 -7 -811 -26 -843 -11 -19 -37 -42
-57 -53 -34 -17 -62 -19 -335 -19 -165 0 -314 5 -333 10 -20 5 -51 26 -70 45
l-35 36 0 1797 0 1797 23 29 c43 55 33 85 -70 204 -50 59 -99 114 -109 122 -9
8 -24 31 -33 50 -9 19 -26 49 -39 67 -64 93 -115 198 -156 325 -7 20 -19 42
-27 48 -8 8 -14 31 -14 59 0 25 -11 125 -24 222 -25 190 -25 216 4 419 11 74
20 158 20 186 0 37 5 56 19 68 10 10 24 38 31 64 16 63 76 183 176 350 26 45
96 132 145 181 81 82 253 212 329 247 19 9 48 25 63 36 15 11 51 26 79 33 27
8 58 21 69 30 11 11 48 21 96 27 43 5 96 13 118 19 153 36 194 41 270 36 98
-8 271 -55 322 -89 21 -14 64 -42 96 -63 31 -21 97 -76 145 -122 87 -83 124
-105 144 -85 23 23 27 116 28 594 l0 498 31 27 c64 59 95 63 411 59 l288 -3
38 -26z m-12669 -38 c19 -7 37 -23 44 -38 7 -17 13 -155 17 -408 l5 -383 28
-27 27 -28 188 -5 c218 -7 253 -17 287 -85 19 -37 20 -59 19 -305 0 -312 -4
-327 -82 -363 -41 -19 -71 -22 -227 -27 -185 -5 -214 -11 -235 -50 -7 -12 -10
-327 -10 -927 0 -499 -3 -938 -7 -975 -6 -65 -8 -69 -51 -105 l-45 -37 -301 0
c-166 0 -317 3 -337 7 -19 4 -52 22 -72 41 l-37 34 -1 383 c-1 680 -9 1553
-14 1576 -7 32 -34 43 -129 53 -103 12 -144 29 -185 75 l-32 37 3 289 3 289
35 34 c32 32 43 36 125 46 129 17 134 18 161 45 24 24 24 28 25 210 1 102 3
190 4 195 1 6 3 48 4 95 1 79 3 88 27 110 33 31 170 101 214 110 19 4 60 17
90 30 54 22 109 41 260 89 84 26 151 31 199 15z m2342 -768 c41 -11 114 -24
162 -30 53 -6 102 -18 120 -30 18 -10 56 -26 85 -36 59 -19 168 -77 234 -124
24 -17 63 -41 88 -53 57 -30 282 -251 309 -305 11 -23 25 -44 30 -48 14 -8
137 -215 146 -245 4 -14 20 -50 35 -80 16 -32 31 -82 35 -120 4 -36 17 -92 29
-125 19 -55 21 -80 21 -300 0 -205 -3 -247 -18 -286 -9 -25 -24 -83 -32 -129
-8 -45 -22 -94 -31 -107 -9 -14 -24 -48 -34 -76 -16 -48 -89 -174 -167 -291
-17 -26 -78 -96 -134 -157 -103 -109 -119 -128 -119 -141 0 -20 98 -28 355
-28 164 0 296 -4 318 -11 29 -8 73 -41 109 -82 1 -1 4 -238 7 -527 5 -384 9
-533 19 -553 l12 -28 44 31 c25 16 71 56 104 88 114 110 264 198 390 229 150
37 480 10 657 -54 97 -36 234 -106 293 -151 24 -18 56 -39 70 -45 15 -6 39
-23 53 -37 15 -14 43 -38 63 -55 55 -44 66 -55 66 -65 0 -5 22 -32 48 -62 85
-94 252 -377 252 -426 0 -11 11 -40 25 -66 17 -32 29 -81 40 -159 8 -62 22
-139 30 -172 20 -81 20 -304 0 -371 -8 -27 -21 -102 -30 -167 -8 -66 -23 -134
-34 -155 -10 -20 -24 -55 -31 -77 -20 -64 -108 -232 -168 -319 -96 -140 -182
-233 -286 -308 -28 -20 -64 -48 -81 -61 -56 -45 -257 -143 -365 -176 -144 -46
-453 -68 -575 -42 -69 15 -206 84 -281 142 -28 21 -56 39 -62 39 -7 0 -46 36
-88 79 -42 44 -90 85 -107 92 -28 12 -32 11 -54 -17 -13 -16 -31 -47 -41 -68
-9 -22 -35 -75 -57 -119 -58 -116 -57 -115 -461 -109 -213 4 -235 10 -274 74
-20 33 -20 50 -18 1830 l3 1796 22 30 c12 16 19 32 16 36 -15 15 -64 4 -118
-26 -140 -79 -217 -118 -228 -118 -7 0 -44 -16 -83 -35 -41 -21 -84 -35 -105
-35 -20 0 -68 -10 -105 -22 -64 -21 -87 -23 -314 -23 -208 0 -252 3 -289 18
-24 9 -73 22 -110 27 -36 5 -88 21 -116 34 -27 14 -88 42 -135 64 -79 37 -143
74 -251 147 -79 53 -255 228 -312 310 -53 76 -162 275 -186 339 -11 31 -27 67
-35 79 -7 12 -17 49 -20 82 -4 33 -17 101 -29 150 -29 120 -32 375 -4 475 10
36 24 107 31 158 7 51 20 100 28 110 9 9 24 40 34 67 10 28 34 79 53 115 19
36 45 85 58 110 13 24 34 56 46 70 13 14 35 44 50 68 103 160 410 392 611 462
32 11 72 28 90 39 18 12 75 26 141 36 61 9 135 22 165 30 87 21 301 19 391 -4z
m3194 0 c16 -7 75 -18 131 -26 57 -7 118 -21 136 -30 18 -9 53 -23 76 -31 24
-9 94 -43 155 -76 264 -143 287 -200 166 -401 -157 -260 -200 -323 -231 -341
-31 -19 -104 -21 -135 -3 -135 77 -193 107 -218 113 -17 4 -47 16 -68 27 -32
16 -65 21 -181 25 -86 3 -169 0 -209 -7 -162 -28 -346 -180 -431 -354 -24 -51
-54 -128 -67 -172 -25 -91 -36 -277 -21 -340 33 -133 48 -179 85 -255 65 -135
148 -219 307 -307 76 -42 177 -57 338 -51 110 5 136 9 187 32 102 46 204 100
231 123 68 58 197 25 242 -62 9 -18 68 -108 130 -200 67 -99 117 -185 125
-212 24 -90 -34 -146 -283 -273 -159 -81 -227 -108 -315 -124 -49 -9 -111 -24
-137 -32 -87 -28 -454 -18 -540 15 -14 5 -55 15 -90 21 -82 14 -250 88 -388
172 -134 81 -319 247 -405 363 -67 89 -75 102 -96 140 -12 22 -27 46 -33 54
-6 8 -21 39 -32 70 -12 31 -36 89 -53 130 -106 250 -114 716 -17 999 19 57 39
109 44 115 5 7 17 35 27 62 10 28 24 57 30 65 7 8 21 31 30 50 28 54 146 208
211 276 59 60 156 145 204 177 14 9 59 39 99 67 41 27 81 50 88 50 7 0 39 14
70 30 31 17 62 30 70 30 7 0 37 12 66 26 32 17 87 32 147 41 52 7 122 20 155
28 72 17 353 14 400 -4z m2535 -15 c110 -30 184 -67 300 -153 59 -44 176 -157
225 -219 12 -15 34 -27 57 -31 35 -5 38 -3 52 28 8 19 22 57 31 84 49 145 67
190 93 228 36 54 62 59 317 54 239 -4 263 -10 285 -78 13 -38 15 -238 15
-1384 0 -1320 0 -1341 -20 -1380 -33 -67 -46 -70 -342 -73 -163 -2 -276 1
-301 7 -32 9 -46 21 -76 68 -20 32 -43 83 -52 115 -21 74 -70 124 -111 114
-15 -4 -51 -31 -79 -59 -87 -89 -274 -222 -339 -242 -22 -7 -64 -22 -93 -34
-46 -18 -74 -21 -208 -21 -129 0 -171 4 -252 24 -53 13 -117 27 -142 31 -25 4
-63 17 -85 30 -22 12 -63 30 -92 39 -29 10 -82 37 -120 62 -37 24 -72 44 -79
44 -20 0 -167 121 -270 224 -70 70 -125 137 -178 217 -42 64 -76 121 -76 125
0 5 -16 40 -35 78 -19 39 -35 76 -35 85 0 8 -11 33 -24 55 -15 27 -26 66 -30
111 -4 39 -15 108 -26 155 -35 160 -34 284 4 450 9 36 18 101 22 145 5 59 12
89 29 115 13 19 26 49 30 66 8 41 70 163 121 238 21 32 53 80 70 107 58 91
191 222 340 334 61 46 239 142 298 161 28 9 65 25 81 34 17 10 79 25 140 34
61 9 133 23 160 31 83 24 268 15 395 -19z m6720 11 c19 -8 80 -20 135 -27 60
-7 120 -21 150 -35 28 -12 61 -26 75 -30 92 -28 287 -143 406 -241 78 -63 224
-211 224 -227 0 -8 10 -28 23 -44 13 -15 41 -55 62 -88 21 -33 46 -71 55 -85
57 -83 143 -353 160 -500 21 -178 5 -491 -28 -577 -11 -26 -25 -73 -32 -103
-7 -30 -21 -68 -30 -85 -10 -16 -26 -51 -34 -76 -17 -49 -92 -181 -136 -239
-15 -19 -33 -46 -41 -60 -17 -32 -221 -226 -281 -268 -23 -17 -77 -52 -118
-78 -41 -26 -86 -54 -100 -63 -14 -8 -56 -25 -93 -37 -38 -12 -76 -29 -85 -37
-9 -9 -48 -21 -87 -27 -38 -7 -113 -23 -165 -36 -88 -23 -109 -24 -280 -20
-133 3 -199 8 -235 20 -27 9 -90 23 -139 32 -49 8 -105 24 -125 34 -20 10 -74
37 -121 59 -173 81 -317 184 -431 306 -115 124 -144 157 -160 184 -9 16 -22
32 -28 35 -5 4 -21 30 -35 59 -15 28 -33 63 -41 77 -26 46 -73 155 -80 185 -4
17 -15 54 -26 82 -44 124 -64 441 -40 643 13 108 61 290 95 365 13 28 29 66
36 85 7 19 19 42 25 50 7 8 22 33 34 55 79 147 328 401 476 486 22 12 53 33
68 46 16 13 34 23 42 23 7 0 37 13 67 28 30 16 67 32 84 36 16 4 52 18 79 31
28 13 97 30 160 39 61 9 135 23 165 31 72 19 299 14 350 -8z m-5639 -3552
c167 -18 259 -33 275 -46 6 -5 36 -18 65 -28 85 -29 288 -139 351 -190 32 -25
61 -57 65 -71 14 -49 7 -108 -19 -147 -29 -44 -80 -131 -89 -153 -22 -49 -139
-222 -168 -246 -30 -25 -43 -29 -97 -29 -49 0 -69 5 -100 26 -77 52 -141 82
-249 117 -99 32 -121 36 -220 37 -99 0 -120 -3 -205 -33 -97 -33 -147 -61
-233 -129 -101 -80 -187 -235 -234 -418 -21 -84 -15 -346 10 -391 9 -18 21
-54 27 -80 6 -27 17 -55 25 -64 7 -8 20 -31 27 -50 58 -138 255 -290 418 -321
36 -7 115 -12 175 -12 121 0 211 23 330 84 33 17 78 40 100 51 22 11 48 27 57
35 23 21 101 20 133 -1 29 -19 104 -112 150 -186 17 -26 57 -87 90 -135 82
-119 94 -144 94 -190 1 -50 -25 -94 -76 -129 -21 -15 -54 -37 -73 -51 -69 -48
-262 -136 -382 -174 -150 -48 -152 -49 -315 -61 -142 -10 -443 9 -484 31 -12
6 -55 21 -97 34 -94 28 -198 71 -233 96 -15 10 -38 23 -53 29 -14 5 -52 29
-83 52 -32 24 -72 52 -90 63 -47 30 -186 167 -246 243 -104 134 -91 113 -191
306 -25 49 -46 96 -46 104 0 8 -11 39 -25 67 -16 34 -30 92 -40 166 -8 63 -20
131 -25 152 -29 103 17 519 70 638 17 36 30 77 30 92 0 14 5 29 11 33 6 4 25
34 41 68 62 131 212 335 307 419 14 12 40 37 58 55 19 17 38 32 43 32 5 0 35
21 66 46 72 59 302 174 414 208 107 32 187 45 326 55 164 12 162 12 315 -4z
m5682 0 c159 -17 331 -63 457 -123 80 -37 257 -151 329 -211 24 -20 52 -40 62
-46 20 -12 129 -140 164 -194 13 -20 42 -62 64 -93 86 -125 159 -283 181 -393
6 -33 20 -88 31 -123 37 -123 34 -594 -5 -655 -8 -12 -19 -47 -26 -77 -12 -53
-45 -134 -116 -287 -19 -39 -34 -76 -34 -81 0 -5 -6 -12 -12 -15 -7 -2 -31
-31 -53 -63 -59 -87 -114 -153 -175 -210 -75 -69 -245 -197 -300 -225 -25 -12
-52 -28 -60 -35 -8 -6 -46 -23 -85 -37 -38 -13 -114 -41 -167 -60 -153 -56
-352 -73 -611 -52 -111 9 -175 20 -237 39 -122 39 -272 97 -291 113 -9 7 -37
20 -62 29 -26 9 -47 19 -47 24 0 4 -42 38 -92 76 -103 75 -231 199 -295 285
-23 31 -55 71 -72 90 -17 18 -31 39 -31 45 0 7 -22 54 -49 106 -26 52 -56 119
-66 149 -10 30 -26 71 -36 91 -11 22 -25 88 -34 165 -9 70 -20 148 -25 173
-12 60 -12 212 0 244 5 14 16 77 24 140 9 69 25 139 41 178 14 35 30 83 36
108 5 24 15 50 20 56 6 7 33 57 61 111 27 54 60 109 72 123 12 14 29 36 38 50
29 45 172 196 238 252 71 59 194 148 206 148 4 0 51 22 105 50 54 27 122 56
151 64 29 8 80 24 113 35 58 20 271 48 388 50 32 0 122 -6 200 -14z m-7778
-43 c74 -31 104 -55 117 -92 10 -27 13 -323 13 -1370 0 -1518 8 -1383 -86
-1413 -43 -14 -98 -17 -348 -17 -288 0 -298 1 -341 23 -34 16 -48 31 -57 57
-9 26 -12 363 -12 1368 -1 1452 -4 1378 55 1419 55 38 83 41 354 42 227 0 271
-3 305 -17z"/>
<path d="M19927 19776 c-26 -7 -55 -19 -65 -27 -9 -8 -39 -25 -65 -38 -58 -29
-247 -200 -247 -222 0 -5 -6 -9 -13 -9 -8 0 -39 -26 -70 -57 -31 -32 -138
-137 -239 -233 -216 -207 -521 -505 -588 -575 -27 -27 -134 -135 -240 -240
-465 -462 -710 -707 -775 -776 -38 -42 -130 -138 -204 -215 -135 -141 -306
-321 -323 -339 -4 -5 -27 -30 -51 -54 -112 -117 -134 -141 -198 -216 -38 -44
-97 -111 -130 -150 -65 -74 -92 -111 -149 -205 -19 -31 -61 -98 -93 -149 -31
-50 -78 -144 -102 -209 -25 -64 -55 -139 -66 -167 -22 -53 -32 -94 -48 -215
-6 -41 -17 -100 -26 -130 -11 -40 -15 -105 -15 -250 0 -175 3 -206 24 -290 14
-52 28 -122 31 -155 4 -33 15 -76 25 -95 9 -20 21 -51 25 -70 4 -19 20 -60 36
-90 15 -30 33 -75 39 -100 7 -25 24 -65 38 -90 38 -68 91 -148 102 -155 5 -3
18 -25 28 -48 10 -23 26 -48 36 -56 9 -8 23 -29 31 -47 13 -31 161 -201 240
-275 83 -79 191 -166 213 -173 12 -4 27 -16 32 -27 6 -10 27 -27 48 -38 20
-10 93 -50 162 -88 69 -38 150 -78 180 -88 30 -10 75 -29 99 -42 24 -12 55
-23 67 -23 13 0 56 -11 96 -25 41 -14 126 -31 194 -39 67 -8 130 -18 140 -24
52 -28 421 -20 477 10 11 5 66 14 124 19 80 7 121 16 178 40 41 18 80 37 85
45 16 18 2 80 -25 112 -12 15 -30 41 -39 57 -9 17 -32 55 -51 85 -54 89 -103
193 -115 244 -6 26 -20 66 -32 89 -26 51 -56 259 -65 437 -4 94 -1 147 11 212
9 48 19 125 23 170 3 47 13 98 23 118 10 19 24 62 31 95 7 33 25 87 41 120 15
33 28 72 28 86 0 15 7 32 16 40 8 7 27 33 40 58 118 219 262 391 449 540 74
58 195 131 219 131 8 0 28 12 45 26 19 16 56 31 97 40 36 7 80 20 97 29 48 24
155 36 322 35 160 0 237 -9 297 -34 21 -9 61 -21 90 -27 29 -6 60 -18 69 -26
9 -8 36 -22 60 -31 101 -39 227 -124 341 -228 21 -19 44 -34 52 -34 7 0 19
-14 26 -31 7 -17 30 -48 51 -70 49 -51 122 -147 149 -196 12 -21 37 -65 56
-98 19 -33 39 -71 46 -85 6 -14 23 -52 38 -85 15 -33 31 -77 34 -98 4 -21 18
-58 31 -82 14 -28 26 -71 30 -112 8 -99 25 -186 38 -202 8 -10 12 -81 12 -230
0 -183 -3 -221 -17 -251 -9 -20 -24 -82 -32 -139 -10 -67 -22 -111 -35 -127
-10 -13 -22 -40 -26 -61 -11 -59 -95 -224 -177 -346 -51 -77 -62 -105 -46
-124 7 -9 45 -31 85 -49 58 -28 91 -36 156 -40 45 -3 114 -15 154 -25 101 -28
368 -31 468 -7 39 10 116 22 173 28 68 6 123 18 162 35 33 14 72 25 87 25 40
1 239 85 366 155 168 93 183 103 280 182 29 24 65 53 81 65 40 31 190 181 249
248 51 60 85 105 117 160 11 19 36 55 55 80 20 25 45 65 56 90 12 25 27 52 35
60 7 8 24 44 37 80 14 36 42 103 62 150 21 47 44 117 51 155 24 117 32 148 50
195 16 39 18 80 19 325 0 259 -2 286 -22 355 -12 41 -27 109 -33 150 -6 41
-21 98 -34 125 -13 28 -29 68 -36 90 -7 22 -23 64 -36 93 -13 29 -24 59 -24
66 0 7 -10 26 -22 41 -23 29 -39 55 -112 182 -21 38 -52 85 -70 105 -17 20
-47 58 -66 84 -19 26 -61 73 -92 105 -31 32 -60 65 -65 73 -13 23 -265 297
-384 418 -36 36 -117 121 -180 189 -147 157 -1447 1458 -1825 1825 -510 496
-482 471 -626 547 -77 40 -80 41 -196 44 -76 2 -134 -2 -165 -11z"/>
<path d="M19995 15072 c-40 -14 -121 -62 -151 -89 -17 -15 -48 -55 -69 -88
-21 -33 -47 -72 -57 -87 -10 -15 -25 -58 -32 -95 -8 -37 -23 -86 -32 -108 -13
-29 -19 -76 -22 -172 -4 -123 -2 -137 22 -208 15 -43 29 -98 33 -122 8 -57
116 -225 171 -265 73 -55 111 -68 202 -68 47 0 102 5 123 11 52 14 133 77 174
136 18 26 41 58 50 71 15 21 42 91 80 202 11 33 15 93 16 225 1 173 0 182 -25
240 -14 33 -29 79 -33 103 -8 50 -85 173 -137 218 -19 17 -61 46 -93 64 -48
28 -70 34 -129 36 -39 2 -80 0 -91 -4z"/>
<path d="M23644 9660 c-33 -5 -94 -24 -135 -43 -78 -36 -206 -133 -226 -172
-7 -12 -19 -25 -28 -28 -21 -9 -73 -110 -121 -237 -28 -73 -29 -78 -29 -280 0
-190 2 -208 21 -245 12 -22 25 -54 29 -72 3 -18 17 -48 31 -68 13 -20 30 -48
38 -63 38 -71 163 -180 263 -230 100 -50 136 -55 330 -50 l178 5 85 42 c47 23
110 57 140 75 90 56 213 205 247 301 7 22 24 60 36 85 20 42 22 59 22 230 0
179 -1 187 -26 240 -15 30 -29 67 -33 82 -3 14 -16 39 -29 55 -12 15 -28 39
-34 53 -19 46 -126 161 -184 200 -97 64 -221 112 -313 121 -99 9 -182 9 -262
-1z"/>
<path d="M14549 9648 c-49 -4 -85 -16 -145 -48 -139 -73 -173 -95 -201 -133
-16 -20 -41 -46 -56 -57 -15 -12 -37 -41 -48 -63 -12 -23 -28 -49 -35 -58 -27
-30 -84 -184 -95 -254 -7 -38 -9 -117 -6 -175 4 -90 10 -119 42 -200 79 -204
197 -333 404 -440 48 -25 81 -33 186 -46 70 -8 135 -12 144 -10 9 3 58 10 110
16 87 10 101 14 205 72 161 90 251 189 332 363 43 93 57 193 52 352 -4 117 -7
135 -37 203 -47 111 -96 186 -175 270 -76 80 -133 119 -256 175 -75 34 -81 35
-216 37 -77 2 -169 0 -205 -4z"/>
<path d="M16993 6110 c-22 -5 -61 -17 -85 -28 -23 -11 -54 -23 -68 -27 -14 -4
-56 -25 -95 -46 -122 -68 -223 -177 -295 -320 -51 -103 -65 -181 -63 -344 2
-175 23 -256 97 -367 53 -80 181 -228 197 -228 4 0 36 -18 71 -39 38 -24 100
-50 155 -65 50 -14 104 -31 120 -37 43 -16 182 -13 226 5 20 9 67 23 105 32
119 27 285 151 365 272 15 23 38 59 51 80 14 20 30 57 35 82 6 25 20 70 32
100 18 45 22 77 22 175 1 108 -2 130 -31 220 -55 175 -165 327 -305 424 -52
35 -165 86 -242 107 -54 15 -223 17 -292 4z"/>
<path d="M20238 9647 c-26 -8 -53 -18 -60 -24 -7 -6 -31 -16 -53 -23 -75 -24
-224 -166 -279 -265 -88 -161 -116 -305 -98 -525 8 -100 16 -139 39 -195 46
-112 81 -174 126 -222 55 -60 166 -148 197 -157 14 -4 52 -19 85 -34 58 -26
66 -27 240 -27 l180 0 90 40 c50 21 108 51 130 66 69 46 185 160 207 203 11
23 26 48 33 56 8 8 31 60 51 115 38 99 38 101 39 250 0 140 -2 156 -29 235
-75 220 -218 378 -429 473 l-92 41 -165 3 c-113 2 -180 -1 -212 -10z"/>
<path d="M27016 9658 c-44 -5 -91 -15 -105 -23 -14 -8 -45 -23 -67 -34 -59
-28 -158 -105 -200 -156 -64 -79 -118 -186 -139 -278 -8 -34 -21 -87 -30 -117
-19 -70 -19 -210 0 -280 9 -30 23 -86 31 -125 8 -38 23 -81 33 -95 10 -14 27
-45 38 -70 35 -78 168 -206 250 -242 15 -7 42 -22 58 -34 22 -16 51 -23 110
-28 44 -4 96 -9 115 -12 19 -2 85 0 145 5 98 8 118 13 180 46 96 49 151 90
211 155 58 62 77 94 139 235 35 77 49 246 36 420 -8 106 -14 133 -49 217 -22
54 -47 104 -56 113 -9 9 -16 22 -16 29 0 16 -115 139 -160 170 -149 105 -285
132 -524 104z"/>
<path d="M27050 6099 c-30 -11 -76 -27 -102 -34 -26 -8 -64 -25 -85 -39 -21
-14 -43 -26 -50 -26 -22 0 -160 -144 -212 -221 -104 -156 -135 -260 -129 -434
4 -105 10 -133 40 -222 20 -57 46 -116 59 -132 13 -16 35 -48 49 -71 36 -60
132 -155 192 -191 29 -17 68 -41 87 -55 19 -13 43 -24 55 -24 12 0 64 -12 116
-26 81 -22 108 -26 181 -21 60 4 98 12 125 26 21 12 52 21 68 21 39 0 182 81
251 143 137 121 224 283 251 463 15 102 15 116 -1 223 -28 179 -97 309 -234
439 -31 29 -69 61 -86 70 -16 9 -39 25 -51 35 -20 17 -118 54 -219 83 -76 22
-237 18 -305 -7z"/>
</g>
</svg>
