<?xml version="1.0" standalone="no"?>
<!DOCTYPE svg PUBLIC "-//W3C//DTD SVG 20010904//EN"
 "http://www.w3.org/TR/2001/REC-SVG-20010904/DTD/svg10.dtd">
<svg version="1.0" xmlns="http://www.w3.org/2000/svg"
 width="2777.000000pt" height="2800.000000pt" viewBox="0 0 2777.000000 2800.000000"
 preserveAspectRatio="xMidYMid meet">

<g transform="translate(0.000000,2800.000000) scale(0.100000,-0.100000)"
fill="#000000" stroke="none">
<path d="M0 14000 l0 -14000 13885 0 13885 0 0 14000 0 14000 -13885 0 -13885
0 0 -14000z m10304 -3680 c5 -5 11 -32 14 -60 7 -72 -11 -90 -93 -90 -80 0
-100 19 -91 82 4 24 10 49 15 57 17 27 130 36 155 11z m5852 4 c12 -2 24 -10
27 -18 3 -8 9 -203 12 -433 4 -230 9 -421 11 -425 13 -21 -10 -58 -43 -69 -39
-13 -130 -6 -147 11 -16 16 -30 154 -28 266 2 99 2 102 -30 150 -74 110 -216
115 -299 11 -30 -37 -34 -49 -34 -102 0 -47 5 -68 25 -97 33 -50 96 -81 168
-84 31 -1 60 -2 64 -3 14 -2 48 -69 48 -94 0 -41 -39 -60 -135 -65 -77 -4 -88
-2 -153 28 -84 39 -120 73 -166 163 -32 61 -36 77 -36 145 0 159 60 260 194
328 61 30 77 34 150 34 68 0 88 -4 125 -25 74 -43 81 -34 81 106 0 81 5 131
14 154 l14 34 59 -5 c32 -3 68 -7 79 -10z m-8416 -15 c98 -37 184 -101 243
-182 42 -57 80 -195 79 -290 0 -80 -25 -171 -62 -227 -9 -14 -30 -44 -45 -68
-28 -42 -91 -95 -150 -125 -81 -41 -248 -62 -294 -38 -11 6 -26 29 -32 51 -7
22 -18 45 -26 51 -35 30 13 74 69 64 83 -16 222 30 271 89 49 59 71 119 75
214 4 92 4 95 -33 166 -31 62 -46 78 -90 105 -72 44 -104 51 -224 51 -83 0
-108 -3 -123 -17 -17 -15 -18 -40 -18 -388 0 -433 8 -403 -103 -400 -111 4
-101 -106 -84 858 2 66 6 90 17 97 8 5 118 10 245 10 209 0 235 -2 285 -21z
m568 12 c16 -10 27 -80 18 -115 -3 -13 -16 -28 -29 -32 -34 -11 -109 -4 -136
13 -21 13 -23 21 -18 66 3 33 11 55 23 64 20 14 121 18 142 4z m2266 -7 c19
-19 17 22 20 -314 2 -178 8 -301 15 -328 15 -52 76 -117 120 -127 108 -23 220
59 229 169 3 43 0 59 -19 88 -41 63 -111 98 -195 98 -48 0 -72 21 -84 74 -6
29 -4 41 12 61 19 24 24 25 125 25 89 0 113 -4 149 -22 67 -33 151 -112 165
-156 6 -20 18 -46 25 -57 23 -33 18 -162 -10 -236 -31 -82 -99 -159 -173 -195
-49 -25 -69 -28 -148 -29 -81 0 -95 3 -135 27 l-45 27 -27 -26 c-21 -20 -38
-26 -80 -28 -55 -2 -98 9 -109 27 -8 12 -1 843 7 895 5 36 15 40 91 42 35 1
57 -4 67 -15z m1580 0 c22 -21 21 -102 -1 -126 -12 -14 -31 -18 -79 -18 -57 0
-65 3 -80 25 -17 26 -13 79 7 117 13 24 130 26 153 2z m811 -14 c13 -25 16
-95 18 -466 2 -503 10 -466 -96 -460 -85 5 -88 10 -87 181 2 245 4 227 -37
275 -89 104 -226 104 -302 0 -41 -57 -48 -107 -21 -167 42 -95 116 -142 200
-128 31 5 42 2 59 -16 31 -33 46 -86 30 -105 -22 -27 -80 -44 -148 -44 -75 1
-124 16 -184 57 -54 36 -79 66 -111 129 -93 183 -26 390 153 476 58 28 76 32
149 31 76 0 86 -2 126 -32 55 -39 82 -40 90 -5 4 15 6 82 5 150 -2 149 0 154
82 154 55 0 59 -2 74 -30z m4514 7 c12 -13 35 -59 51 -101 17 -43 37 -88 45
-99 8 -12 15 -28 15 -35 0 -8 6 -28 14 -45 8 -18 21 -54 29 -82 8 -27 33 -90
55 -140 61 -140 61 -131 -13 -205 -52 -51 -67 -61 -78 -52 -8 7 -33 61 -56
120 -23 59 -53 127 -67 152 -14 25 -32 61 -41 80 -8 19 -28 63 -44 98 -16 34
-29 69 -29 77 0 8 -9 29 -20 47 -11 18 -20 41 -20 51 0 10 -9 40 -21 67 -16
38 -18 52 -9 69 9 19 20 21 89 21 68 0 80 -3 100 -23z m679 16 c68 -8 76 -22
52 -94 -15 -43 -82 -212 -148 -369 -6 -14 -36 -90 -67 -170 -31 -80 -65 -161
-75 -180 -9 -20 -21 -50 -25 -68 -10 -49 -47 -72 -114 -72 -122 0 -126 15 -51
175 38 82 80 182 80 191 0 5 7 23 16 39 9 17 20 41 24 55 5 14 25 63 45 110
63 149 125 308 125 323 0 24 40 67 63 67 12 0 46 -3 75 -7z m300 -20 c16 -21
10 -102 -8 -113 -22 -14 -120 -21 -140 -10 -28 15 -29 124 -2 139 27 16 135 4
150 -16z m812 2 c16 -19 27 -892 11 -914 -6 -10 -32 -16 -75 -17 -100 -5 -100
-4 -100 213 l-1 178 -31 50 c-52 85 -124 112 -215 80 -81 -29 -129 -94 -129
-175 0 -56 20 -98 69 -145 41 -40 43 -40 112 -38 65 2 73 0 95 -24 31 -34 40
-68 24 -98 -17 -32 -30 -36 -132 -42 -81 -5 -91 -4 -150 24 -75 35 -130 87
-165 157 -38 75 -44 208 -13 290 28 72 89 141 162 182 48 26 62 29 148 29 93
0 130 -10 183 -47 33 -24 44 10 46 144 2 156 8 168 90 168 40 0 63 -5 71 -15z
m-9999 -84 c24 -20 24 -14 31 -261 1 -19 0 -100 -1 -180 -2 -80 0 -157 4 -171
8 -33 55 -60 113 -65 26 -3 53 -6 60 -9 21 -8 34 -57 27 -103 -9 -60 -43 -75
-147 -63 -133 15 -211 81 -242 204 -10 38 -16 98 -15 135 3 105 3 106 -41 126
-32 14 -41 24 -46 52 -10 56 6 97 45 110 18 6 37 17 42 25 5 8 9 50 9 95 0 64
4 84 18 97 33 29 111 34 143 8z m7454 -169 c17 -8 51 -26 77 -39 45 -22 128
-105 128 -127 0 -6 10 -29 22 -51 14 -28 21 -59 22 -102 1 -94 -1 -95 -191
-100 -153 -4 -159 -3 -193 19 -23 16 -40 39 -52 72 -9 27 -15 53 -12 58 3 4
52 8 109 8 65 0 106 4 111 11 3 6 -9 27 -29 47 -30 30 -44 36 -91 40 -49 4
-59 1 -101 -29 -96 -69 -108 -132 -45 -227 56 -83 106 -99 204 -66 31 11 61
14 89 10 57 -9 121 -46 125 -73 6 -39 -102 -121 -189 -144 -57 -15 -79 -15
-167 -2 -82 13 -123 35 -201 110 -68 67 -93 120 -102 223 -7 83 -7 87 26 155
30 63 93 145 113 145 4 0 24 14 46 30 21 16 61 34 90 39 107 21 159 20 211 -7z
m-8401 -8 c3 -8 6 -157 7 -330 2 -370 8 -350 -98 -346 -43 2 -73 8 -83 17 -12
13 -14 63 -12 317 2 167 6 313 9 326 6 23 22 30 88 34 56 4 83 -2 89 -18z
m507 -3 c51 -20 99 -55 99 -74 0 -6 -14 -32 -31 -59 -36 -56 -63 -62 -130 -27
-27 13 -55 19 -82 17 -41 -3 -42 -4 -42 -37 0 -33 2 -35 69 -58 38 -13 78 -31
90 -39 11 -8 27 -14 35 -14 27 0 100 -64 112 -99 17 -49 5 -134 -25 -186 -29
-48 -77 -76 -164 -97 -61 -13 -202 2 -257 28 -49 23 -105 74 -105 95 0 30 70
109 96 109 12 0 48 -13 79 -30 95 -50 187 -38 171 23 -7 28 -43 47 -94 48 -52
1 -169 73 -193 119 -37 68 -23 172 30 230 70 78 213 99 342 51z m1199 18 c31
-7 50 -16 50 -25 0 -8 10 -14 25 -14 15 0 25 6 25 15 0 16 18 21 102 29 95 8
92 16 97 -326 1 -159 0 -304 -3 -323 -8 -39 -19 -45 -105 -48 -95 -3 -92 -13
-91 308 2 358 4 325 -24 325 -19 0 -27 -8 -36 -37 -23 -72 -57 -87 -139 -63
-46 13 -111 -19 -152 -74 l-29 -40 0 -192 c0 -233 3 -226 -108 -222 -72 3 -76
4 -83 30 -4 14 -6 161 -5 326 1 235 4 303 15 316 21 26 133 22 171 -5 17 -13
36 -19 47 -16 10 3 43 15 73 26 63 23 99 25 170 10z m1869 -14 c19 -18 20
-638 1 -660 -13 -16 -134 -21 -157 -7 -16 10 -34 59 -27 76 3 8 6 141 7 296 2
280 2 282 25 300 18 15 33 17 80 13 31 -3 63 -11 71 -18z m262 -17 c9 -22 12
-74 10 -172 -2 -78 -4 -212 -5 -299 -1 -145 -3 -160 -20 -173 -26 -19 -130
-19 -145 0 -16 20 -19 71 -21 370 -1 307 -2 303 87 308 75 4 79 2 94 -34z
m8863 9 c85 -27 97 -46 72 -111 -23 -60 -69 -75 -122 -41 -28 18 -88 29 -118
21 -27 -7 -40 -40 -26 -67 6 -9 31 -25 57 -34 115 -41 195 -81 224 -111 27
-27 32 -42 36 -96 8 -101 -37 -172 -134 -208 -96 -36 -281 -20 -338 29 -11 9
-32 22 -47 29 -16 6 -28 16 -28 21 0 38 64 131 90 131 9 0 31 -11 51 -24 70
-48 174 -61 209 -26 11 11 20 24 20 28 0 20 -50 53 -96 61 -146 28 -236 111
-238 220 -1 71 32 126 99 166 80 46 171 50 289 12z m-9633 7 c10 -13 15 -70
20 -223 3 -113 9 -214 13 -223 16 -36 58 -52 134 -53 70 0 75 -2 99 -30 39
-48 46 -75 26 -97 -38 -42 -73 -53 -178 -52 -88 0 -106 3 -150 26 -62 32 -101
88 -121 177 -18 75 -20 423 -4 466 9 23 14 25 79 25 51 0 72 -4 82 -16z m2126
2 c106 -37 202 -141 230 -249 15 -57 16 -74 5 -129 -7 -35 -25 -85 -39 -113
-26 -53 -89 -125 -108 -125 -7 0 -19 -8 -29 -18 -23 -26 -140 -47 -213 -38
-107 12 -209 84 -261 181 -24 45 -27 60 -27 160 0 119 3 130 61 210 35 48 69
74 149 115 49 24 172 27 232 6z m482 -9 c42 -37 58 -39 103 -10 37 24 56 28
131 31 68 3 93 0 112 -12 33 -22 31 -43 -6 -99 -35 -52 -65 -65 -109 -47 -56
23 -131 -7 -176 -71 l-29 -42 0 -190 c0 -186 0 -189 -24 -208 -44 -35 -145
-23 -158 20 -4 14 -6 162 -3 329 4 254 7 304 20 313 20 14 118 4 139 -14z
m808 -10 c48 -33 66 -34 83 -2 13 25 38 33 102 34 28 0 42 -6 58 -26 19 -25
20 -39 20 -328 0 -355 4 -341 -100 -333 -33 2 -65 9 -72 16 -7 7 -10 59 -9
155 3 212 -2 237 -58 296 -63 67 -112 82 -188 56 -67 -23 -128 -87 -138 -144
-20 -121 92 -234 214 -215 35 6 43 3 66 -22 31 -34 41 -68 27 -98 -25 -56
-224 -60 -313 -6 -123 73 -196 224 -175 363 13 85 116 214 211 262 45 22 60
25 141 22 81 -2 97 -6 131 -30z m3651 6 c15 -20 17 -619 2 -643 -6 -9 -32 -16
-78 -18 -107 -6 -104 -21 -97 354 5 263 9 311 22 321 23 18 135 7 151 -14z
m1090 0 c31 -31 46 -31 105 3 34 19 56 24 119 24 127 0 157 -24 118 -99 -29
-57 -61 -77 -99 -61 -62 25 -163 -17 -209 -86 -21 -32 -22 -44 -22 -221 0
-104 -4 -193 -8 -200 -4 -7 -37 -15 -72 -18 -108 -11 -101 -32 -101 335 1 308
1 315 22 333 14 11 38 17 71 17 40 0 54 -5 76 -27z m822 4 c110 -54 181 -136
205 -238 21 -92 19 -121 -17 -207 -35 -86 -96 -155 -169 -193 -60 -30 -188
-38 -261 -15 -78 25 -161 101 -200 184 -27 58 -31 74 -30 153 1 77 5 94 31
146 35 67 51 86 107 130 80 63 247 83 334 40z m-10913 -48 c34 -13 43 -25 43
-66 0 -73 -46 -111 -90 -74 -33 28 -90 102 -90 117 0 30 83 44 137 23z"/>
<path d="M13372 9900 c-68 -29 -132 -109 -132 -167 0 -39 35 -132 57 -150 30
-24 97 -53 124 -53 80 0 171 132 154 224 -19 98 -129 177 -203 146z"/>
<path d="M20174 9886 c-41 -19 -55 -32 -73 -70 -32 -69 -35 -98 -17 -154 37
-111 131 -158 218 -111 98 55 134 179 76 266 -27 41 -102 93 -135 93 -10 0
-41 -11 -69 -24z"/>
</g>
</svg>
