<?xml version="1.0" standalone="no"?>
<!DOCTYPE svg PUBLIC "-//W3C//DTD SVG 20010904//EN"
 "http://www.w3.org/TR/2001/REC-SVG-20010904/DTD/svg10.dtd">
<svg version="1.0" xmlns="http://www.w3.org/2000/svg"
 width="2083.000000pt" height="2083.000000pt" viewBox="0 0 2083.000000 2083.000000"
 preserveAspectRatio="xMidYMid meet">

<g transform="translate(0.000000,2083.000000) scale(0.100000,-0.100000)"
fill="#000000" stroke="none">
<path d="M5626 14892 c-36 -63 -83 -127 -130 -176 -124 -131 -125 -151 -6
-140 67 7 78 11 114 44 23 20 63 52 91 71 27 19 56 40 63 47 7 6 19 12 25 12
6 0 35 23 63 51 50 49 52 53 38 75 -8 12 -41 35 -72 50 -31 15 -69 35 -84 46
-14 10 -31 18 -36 18 -6 0 -36 -44 -66 -98z"/>
<path d="M5322 14369 c-35 -4 -70 -13 -77 -19 -7 -6 -39 -15 -71 -20 -48 -8
-193 -67 -244 -101 -8 -5 -31 -17 -50 -25 -51 -24 -145 -102 -225 -187 -99
-105 -93 -97 -176 -254 -19 -37 -40 -77 -46 -88 -39 -70 -55 -116 -60 -165 -3
-30 -12 -73 -20 -96 -11 -31 -14 -77 -10 -200 4 -167 23 -285 58 -360 10 -22
19 -47 19 -55 0 -8 6 -23 14 -34 7 -11 17 -31 21 -43 4 -13 21 -44 38 -69 39
-55 72 -110 87 -141 20 -45 84 -113 139 -149 31 -20 76 -55 101 -78 25 -22 86
-60 135 -84 50 -25 104 -54 120 -65 67 -48 77 -50 320 -47 152 1 250 7 290 16
33 7 82 17 109 20 27 4 65 15 85 26 20 10 42 19 49 19 8 0 25 9 39 20 14 11
32 20 39 20 7 0 46 26 86 58 40 31 92 70 114 85 62 42 148 135 181 197 16 30
48 84 71 120 23 36 42 71 42 78 0 6 9 29 20 49 11 21 20 45 20 53 0 8 8 31 18
50 11 19 22 67 25 107 4 39 12 84 17 98 13 34 13 210 0 255 -5 19 -14 70 -20
114 -5 44 -17 90 -25 102 -8 13 -15 31 -15 41 0 10 -7 29 -14 43 -8 14 -28 54
-46 90 -18 36 -38 72 -45 80 -7 8 -16 26 -20 40 -4 14 -18 37 -30 52 -12 15
-33 47 -45 73 -12 25 -32 52 -44 61 -100 69 -125 86 -156 104 -19 12 -53 32
-75 45 -22 13 -51 29 -65 34 -14 6 -32 16 -40 21 -8 6 -29 17 -45 24 -17 8
-39 23 -49 34 -9 11 -39 25 -64 31 -39 9 -389 34 -411 30 -3 -1 -35 -5 -69
-10z m323 -221 c17 -9 50 -19 74 -23 50 -8 143 -49 161 -70 7 -8 18 -15 24
-16 6 0 31 -16 56 -34 25 -19 62 -44 82 -55 45 -24 79 -69 104 -135 24 -66 57
-113 99 -143 35 -25 61 -83 89 -202 8 -30 19 -68 25 -83 16 -41 14 -289 -3
-330 -7 -18 -16 -55 -20 -82 -5 -27 -16 -66 -27 -87 -10 -20 -19 -42 -19 -48
0 -21 -90 -166 -129 -208 -23 -24 -41 -47 -41 -51 0 -17 -91 -100 -164 -149
-95 -63 -182 -102 -231 -102 -20 0 -72 -10 -118 -21 -92 -24 -210 -22 -282 5
-22 8 -62 15 -90 16 -27 0 -68 9 -90 20 -22 11 -48 19 -57 20 -10 0 -25 8 -35
18 -10 10 -43 34 -73 54 -77 50 -138 110 -202 198 -76 104 -158 265 -158 311
0 14 -8 36 -17 49 -15 21 -19 52 -21 188 -4 159 -3 163 22 206 20 34 26 58 26
103 0 90 25 141 186 383 13 19 41 46 61 59 49 31 77 50 140 94 86 60 131 78
323 127 56 14 270 6 305 -12z"/>
<path d="M9955 13918 c-89 -9 -110 -15 -190 -55 -150 -75 -244 -149 -340 -268
-23 -28 -46 -61 -53 -75 -7 -14 -24 -43 -37 -65 -14 -22 -30 -51 -36 -65 -6
-14 -19 -43 -29 -65 -33 -71 -44 -311 -24 -522 6 -62 16 -119 23 -127 7 -9 27
-44 43 -78 17 -34 46 -87 66 -117 38 -59 182 -205 241 -244 120 -79 175 -105
247 -117 33 -5 74 -14 90 -19 16 -5 120 -12 231 -14 188 -4 203 -3 219 14 11
12 31 19 52 19 20 0 43 7 53 16 21 19 61 42 144 82 65 31 98 61 149 132 l32
45 -31 41 c-16 23 -42 49 -56 58 -25 15 -28 14 -60 -9 -19 -13 -45 -30 -59
-37 -14 -7 -31 -21 -38 -30 -31 -42 -80 -79 -116 -89 -22 -6 -49 -17 -60 -24
-12 -7 -41 -16 -65 -20 -24 -4 -59 -14 -77 -21 -53 -22 -227 -19 -297 6 -31
11 -63 20 -72 20 -8 0 -53 18 -99 41 -65 31 -102 58 -161 117 -100 100 -102
102 -110 134 -4 15 -13 32 -21 39 -8 6 -14 19 -14 28 0 9 -9 32 -19 52 -11 20
-24 60 -29 90 -6 30 -15 67 -21 82 -14 37 -14 252 0 278 5 11 14 46 19 77 6
31 19 75 30 97 11 21 20 45 20 53 0 7 8 25 18 40 11 15 32 46 47 70 58 88 210
209 274 219 20 3 49 12 65 20 16 8 72 21 125 29 112 17 255 5 330 -27 24 -11
55 -19 70 -19 39 0 118 -46 192 -112 59 -52 69 -57 91 -49 35 13 88 80 88 111
0 28 -65 85 -175 152 -126 78 -161 90 -295 104 -142 14 -231 15 -375 2z"/>
<path d="M6769 13908 c-21 -8 -26 -47 -9 -79 8 -13 7 -25 0 -39 -15 -29 6 -57
58 -75 40 -13 48 -13 80 2 29 13 80 17 247 21 l210 4 24 -26 24 -25 -2 -671
c-1 -369 -5 -690 -10 -713 -13 -61 0 -181 23 -206 25 -27 75 -27 126 -1 l40
20 0 788 c0 665 2 791 14 808 14 18 31 19 287 22 176 2 278 7 286 14 18 14 18
147 1 153 -22 8 -1378 10 -1399 3z"/>
<path d="M11885 13904 c-8 -8 -15 -23 -15 -33 0 -9 -7 -26 -15 -37 -8 -10 -15
-25 -15 -33 0 -13 -44 -108 -70 -151 -5 -8 -22 -44 -38 -80 -16 -36 -40 -87
-52 -115 -13 -27 -29 -57 -36 -65 -7 -8 -17 -33 -23 -55 -17 -66 -44 -137 -77
-195 -38 -69 -80 -158 -89 -190 -4 -14 -11 -27 -15 -30 -13 -9 -70 -122 -70
-140 0 -10 -6 -23 -14 -29 -8 -7 -18 -27 -21 -44 -6 -31 -22 -69 -67 -167 -11
-25 -30 -65 -41 -90 -11 -25 -24 -52 -29 -60 -4 -8 -16 -31 -24 -50 -9 -19
-22 -42 -29 -50 -7 -8 -16 -28 -19 -45 -4 -16 -14 -37 -21 -45 -16 -19 -22
-51 -12 -67 6 -9 35 -13 87 -13 86 0 110 12 110 56 0 14 9 42 20 64 11 22 20
46 20 55 0 9 18 47 40 85 22 38 40 71 40 75 0 3 13 35 30 70 26 56 34 65 62
70 18 3 241 5 494 3 438 -3 463 -4 483 -22 12 -11 21 -27 21 -36 0 -10 9 -29
20 -43 11 -14 20 -31 20 -39 0 -15 45 -104 65 -128 7 -8 17 -33 23 -55 6 -22
20 -65 31 -95 l20 -55 93 0 c125 0 124 -6 30 180 -14 28 -31 57 -38 66 -8 8
-17 30 -20 47 -4 17 -13 37 -20 43 -8 6 -14 16 -14 22 0 5 -9 28 -19 51 -44
92 -71 159 -71 173 0 13 -22 60 -107 228 -5 11 -22 43 -36 71 -15 29 -27 58
-27 66 0 7 -15 37 -34 65 -19 29 -41 74 -49 100 -34 105 -51 149 -64 164 -7 8
-13 19 -13 23 0 5 -20 50 -45 102 -25 51 -45 98 -45 105 0 7 -7 20 -15 29 -21
24 -65 108 -66 128 0 9 -12 42 -27 72 l-27 55 -82 2 c-63 2 -86 -1 -98 -13z
m155 -315 c6 -20 16 -42 24 -48 7 -6 16 -26 20 -43 7 -35 53 -157 66 -173 4
-5 11 -21 15 -35 4 -14 35 -83 70 -155 87 -181 105 -220 105 -232 0 -6 6 -16
14 -22 19 -16 28 -73 16 -105 l-10 -26 -387 2 -388 3 -3 44 c-2 31 5 62 23
105 15 34 36 81 47 106 11 25 24 52 29 60 5 8 14 26 19 40 6 14 15 32 20 40 6
8 15 26 21 40 6 14 20 41 30 61 11 20 19 43 19 52 0 8 6 20 14 26 8 6 19 32
25 58 7 25 19 55 27 67 7 11 14 30 14 41 0 11 9 34 20 50 11 17 20 37 20 46 0
9 14 36 32 60 l31 43 29 -34 c16 -19 33 -51 38 -71z"/>
<path d="M8627 13904 c-9 -9 -9 -1746 -1 -1768 5 -13 22 -16 80 -16 68 0 74 2
79 23 3 12 4 414 3 892 l-3 870 -75 3 c-42 1 -79 0 -83 -4z"/>
<path d="M10573 11242 c-29 -4 -28 -17 8 -72 16 -25 36 -60 44 -77 13 -29 15
-261 16 -1950 1 -1055 4 -1929 8 -1943 l7 -25 178 -5 c97 -3 228 -3 289 0
l112 5 5 1492 c4 1115 8 1495 17 1504 16 16 25 7 58 -58 17 -32 51 -85 76
-119 25 -34 63 -88 85 -120 21 -32 55 -80 75 -106 21 -27 49 -72 63 -102 14
-29 46 -80 71 -112 66 -85 136 -191 169 -254 15 -30 36 -64 46 -75 15 -17 54
-74 123 -179 6 -10 21 -31 33 -45 12 -14 42 -64 69 -110 26 -46 72 -117 103
-157 78 -99 88 -114 128 -190 19 -36 39 -71 44 -77 39 -48 60 -78 84 -117 15
-25 42 -65 61 -90 41 -54 104 -147 127 -189 16 -30 20 -31 80 -31 54 0 67 4
91 25 15 14 27 31 27 38 0 12 8 25 114 183 32 49 71 107 85 129 14 22 29 42
33 45 3 3 21 34 40 70 43 83 60 110 123 190 68 88 105 143 105 159 0 15 145
235 232 352 32 42 60 88 63 102 4 15 13 31 21 38 8 6 14 17 14 23 0 13 49 86
91 136 35 42 119 171 119 184 0 13 166 261 211 317 21 25 41 57 44 71 4 14 20
38 35 53 l29 28 11 -27 c7 -18 10 -512 10 -1506 0 -1338 1 -1478 16 -1484 28
-11 534 -7 555 4 19 11 19 43 19 1956 0 2172 -7 1961 72 2056 29 35 35 49 26
55 -20 13 -617 16 -647 3 -14 -6 -34 -27 -44 -48 -32 -67 -49 -96 -81 -137
-17 -22 -45 -60 -61 -85 -16 -25 -35 -52 -42 -60 -62 -73 -125 -166 -144 -212
-6 -16 -15 -28 -20 -28 -5 0 -17 -17 -28 -37 -11 -21 -39 -58 -62 -83 -46 -50
-78 -97 -122 -180 -28 -51 -87 -131 -129 -173 -10 -10 -18 -22 -18 -27 0 -5
-26 -42 -58 -82 -32 -40 -61 -80 -64 -88 -13 -35 -103 -164 -160 -231 -46 -54
-75 -97 -112 -169 -16 -30 -46 -73 -67 -95 -22 -22 -39 -43 -39 -46 0 -4 -17
-29 -38 -56 -21 -26 -51 -70 -67 -98 -40 -68 -155 -225 -165 -225 -24 0 -45
18 -82 74 -23 33 -48 67 -55 74 -7 7 -13 18 -13 24 0 5 -11 24 -25 42 -14 17
-29 36 -34 42 -4 5 -14 21 -21 35 -14 26 -78 107 -123 154 -15 16 -49 67 -75
113 -26 46 -56 94 -68 105 -28 29 -154 196 -154 204 0 8 -51 84 -66 98 -5 6
-23 30 -39 55 -16 25 -54 77 -85 115 -66 84 -94 124 -103 147 -10 29 -99 151
-150 207 -27 30 -53 64 -59 75 -34 71 -58 110 -100 158 -43 50 -86 107 -135
178 -10 14 -31 43 -48 65 -18 22 -44 63 -60 90 -15 28 -42 65 -59 83 l-31 33
-295 -3 c-162 -1 -305 -4 -317 -6z"/>
<path d="M15384 11237 c-12 -7 -14 -288 -14 -2030 0 -1560 3 -2026 12 -2035 9
-9 312 -12 1303 -12 1087 0 1294 2 1310 14 18 13 19 28 16 267 -1 140 -7 262
-12 271 -9 17 -65 18 -1039 18 -1007 0 -1030 0 -1040 19 -6 13 -10 223 -10
611 0 388 4 598 10 611 10 18 27 19 555 19 528 0 545 1 555 19 11 21 15 487 4
515 -6 14 -63 16 -549 16 -482 0 -545 2 -559 16 -14 14 -16 75 -14 557 l3 541
25 7 c14 4 480 7 1036 8 771 1 1013 4 1022 13 17 17 17 517 0 541 -12 15 -110
17 -1306 19 -711 2 -1300 -1 -1308 -5z"/>
<path d="M4347 11233 c-4 -3 -7 -918 -7 -2033 l0 -2027 105 -7 c143 -9 2358
-7 2373 3 9 6 12 77 10 287 l-3 279 -962 5 c-771 4 -965 8 -975 18 -11 11 -13
340 -16 1747 l-2 1735 -258 0 c-142 0 -262 -3 -265 -7z"/>
<path d="M6887 11153 c-4 -3 -7 -529 -7 -1168 0 -961 3 -1181 15 -1275 8 -63
18 -169 24 -235 5 -74 15 -131 25 -150 9 -16 16 -46 16 -66 0 -20 7 -42 15
-49 8 -7 17 -28 21 -49 3 -20 15 -51 25 -69 10 -18 19 -40 19 -48 0 -12 20
-50 70 -134 8 -13 36 -77 66 -147 24 -57 274 -323 354 -376 30 -21 80 -55 110
-78 76 -55 128 -89 148 -96 9 -3 35 -13 57 -23 61 -27 164 -58 220 -65 27 -4
62 -13 77 -21 32 -17 245 -38 373 -38 132 0 329 21 362 37 15 8 57 19 92 25
35 6 68 16 75 21 6 5 31 12 56 16 40 7 69 20 180 85 116 67 225 152 349 270
60 57 201 252 201 278 0 6 6 17 14 25 8 8 22 29 30 48 9 19 32 63 51 99 19 35
35 71 35 80 0 9 6 25 14 36 8 11 17 42 21 69 4 28 14 65 21 84 8 18 18 71 24
117 5 46 14 93 20 105 7 11 16 78 21 147 5 70 14 143 21 162 9 26 13 326 16
1180 2 629 1 1159 -3 1177 l-6 33 -264 0 c-247 0 -265 -1 -274 -19 -7 -11 -12
-459 -15 -1232 -2 -668 -9 -1261 -14 -1319 -5 -58 -17 -123 -25 -145 -9 -22
-16 -53 -17 -68 0 -15 -9 -45 -20 -67 -11 -22 -20 -47 -20 -58 0 -10 -7 -27
-15 -37 -27 -35 -75 -110 -75 -117 -1 -38 -180 -230 -265 -285 -28 -18 -55
-37 -61 -42 -25 -21 -128 -71 -146 -71 -10 0 -32 -7 -48 -15 -75 -39 -606 -40
-665 -1 -12 8 -38 18 -58 21 -68 13 -171 74 -265 159 -34 31 -66 56 -70 56
-17 0 -89 82 -112 126 -14 27 -39 69 -55 94 -17 25 -43 72 -59 105 -15 33 -36
77 -47 97 -10 20 -19 47 -19 60 0 13 -9 43 -20 67 -11 24 -25 87 -31 140 -6
52 -14 100 -17 106 -4 5 -9 557 -12 1225 l-5 1215 -261 3 c-143 1 -263 -1
-267 -5z"/>
</g>
</svg>
