<?xml version="1.0" standalone="no"?>
<!DOCTYPE svg PUBLIC "-//W3C//DTD SVG 20010904//EN"
 "http://www.w3.org/TR/2001/REC-SVG-20010904/DTD/svg10.dtd">
<svg version="1.0" xmlns="http://www.w3.org/2000/svg"
 width="2048.000000pt" height="2048.000000pt" viewBox="0 0 2048.000000 2048.000000"
 preserveAspectRatio="xMidYMid meet">

<g transform="translate(0.000000,2048.000000) scale(0.100000,-0.100000)"
fill="#000000" stroke="none">
<path d="M0 10303 l0 -10178 103 -62 103 -63 10137 0 10137 0 0 10240 0 10240
-10240 0 -10240 0 0 -10177z m4121 3259 c-19 -15 -65 -48 -104 -74 -67 -46
-73 -48 -141 -48 l-70 0 59 62 c89 92 79 87 190 87 l100 0 -34 -27z m9576 -71
c239 -53 393 -131 429 -218 10 -23 14 -84 14 -215 0 -158 -2 -188 -18 -217
-42 -78 -138 -91 -247 -33 -232 124 -310 146 -509 140 -128 -4 -146 -6 -191
-30 -59 -30 -79 -51 -100 -101 -21 -52 -19 -122 6 -175 32 -66 117 -129 417
-310 380 -229 495 -321 581 -465 138 -232 144 -623 13 -882 -108 -216 -310
-362 -591 -426 -114 -27 -424 -37 -583 -19 -225 24 -462 105 -541 183 -20 20
-41 54 -46 74 -6 21 -11 110 -11 197 0 139 3 165 20 201 39 81 135 102 227 51
158 -88 293 -132 456 -148 180 -17 337 12 406 75 65 60 82 192 35 285 -40 80
-51 88 -559 418 -160 103 -217 147 -290 220 -170 170 -245 354 -245 599 0 454
268 735 777 815 104 16 446 4 550 -19z m2364 18 c540 -70 941 -389 1098 -875
122 -379 121 -846 -4 -1221 -150 -449 -489 -751 -960 -852 -110 -23 -140 -25
-365 -26 -216 0 -258 3 -358 23 -531 108 -886 449 -1017 977 -69 277 -73 616
-13 910 122 596 525 979 1118 1060 119 16 390 19 501 4z m-6848 -47 c21 -13
44 -36 51 -50 13 -26 91 -269 194 -612 43 -140 436 -1415 446 -1445 3 -11 94
267 386 1185 39 124 95 299 125 390 29 91 76 237 104 326 71 225 74 227 309
232 228 6 267 0 314 -48 35 -34 38 -42 38 -92 0 -59 -15 -105 -273 -858 -69
-201 -155 -453 -192 -560 -123 -361 -237 -694 -287 -840 -28 -80 -70 -203 -94
-274 -63 -184 -98 -238 -176 -271 -31 -12 -87 -15 -311 -15 -397 0 -373 -21
-526 443 -98 298 -405 1234 -640 1950 -143 435 -146 456 -81 518 22 21 52 40
67 42 15 3 136 4 268 3 233 -1 241 -2 278 -24z m2757 3 c19 -12 43 -36 55 -55
20 -35 20 -45 20 -1385 0 -1344 0 -1350 -21 -1385 -11 -19 -35 -45 -54 -57
-32 -22 -40 -23 -278 -23 -229 0 -247 1 -282 21 -20 11 -45 35 -56 52 -18 31
-19 73 -22 1375 -2 1306 -2 1345 17 1387 21 47 52 73 104 86 17 4 133 7 257 6
206 -2 228 -4 260 -22z m-7925 -90 c132 -35 239 -127 291 -251 26 -62 28 -80
28 -184 0 -95 -4 -125 -22 -171 -53 -132 -146 -222 -274 -260 -56 -17 -88 -21
-172 -17 -95 3 -109 6 -178 40 -174 87 -264 266 -238 474 23 184 141 320 318
369 65 18 177 18 247 0z m2845 1 c61 -16 138 -56 164 -85 17 -19 17 -22 -14
-65 -17 -25 -38 -46 -47 -46 -8 0 -45 15 -82 33 -57 28 -76 32 -141 32 -120
-1 -203 -55 -254 -165 -16 -36 -21 -65 -21 -145 0 -91 3 -105 30 -159 32 -63
89 -116 144 -135 42 -14 144 -14 193 -1 21 6 51 22 67 35 40 34 61 31 104 -13
l38 -39 -42 -38 c-23 -20 -67 -49 -98 -64 -51 -24 -67 -26 -181 -26 -120 0
-128 1 -192 32 -185 87 -276 305 -223 531 20 84 47 135 106 197 107 113 290
162 449 121z m-1965 -11 c111 -29 184 -101 204 -205 21 -105 -19 -230 -89
-280 -69 -49 -120 -64 -245 -70 l-120 -5 -3 -152 -3 -153 -84 0 -85 0 0 440 0
440 183 0 c131 0 200 -4 242 -15z m957 -47 c3 -35 3 -66 1 -70 -2 -5 -62 -8
-134 -8 l-129 0 0 -370 0 -370 -85 0 -85 0 0 370 0 370 -130 0 -130 0 0 70 0
70 344 0 344 0 4 -62z m288 -380 l0 -443 -68 2 c-37 0 -73 2 -79 2 -10 1 -13
96 -13 441 l0 440 80 0 80 0 0 -442z m1625 0 c95 -241 171 -439 169 -440 -1
-2 -38 -2 -82 0 l-80 3 -25 57 c-13 31 -32 78 -41 105 l-18 47 -181 0 -182 0
-38 -100 c-21 -55 -43 -103 -49 -106 -14 -9 -158 -10 -158 -2 0 7 88 234 257
661 l86 218 85 -3 85 -3 172 -437z m7 -930 c238 -72 409 -247 468 -482 20 -78
20 -112 20 -2062 0 -1725 -2 -1992 -15 -2056 -38 -186 -176 -364 -345 -447
-157 -77 5 -72 -2243 -69 l-2012 3 -65 22 c-199 68 -361 229 -427 426 l-28 82
-3 1995 c-3 2243 -8 2083 73 2245 99 200 275 323 515 359 14 2 921 3 2015 2
1856 -1 1994 -2 2047 -18z m1611 -2835 c3 -1226 3 -1206 55 -1310 26 -50 106
-125 169 -157 115 -58 129 -59 741 -63 l562 -4 -2 -357 -3 -357 -595 1 c-649
1 -778 9 -970 59 -378 99 -690 431 -770 817 -38 185 -40 261 -40 1398 l0 1110
425 0 424 0 4 -1137z m2467 74 c0 -674 4 -1093 10 -1147 34 -274 113 -402 290
-465 122 -44 381 -58 545 -30 105 19 215 68 268 119 65 65 109 172 132 326 12
78 15 284 15 1178 l0 1082 431 0 430 0 -4 -1162 c-3 -1025 -6 -1177 -21 -1278
-44 -301 -127 -472 -301 -624 -213 -186 -432 -280 -775 -333 -142 -22 -616
-25 -745 -5 -309 49 -488 112 -675 237 -107 71 -234 194 -291 281 -76 115
-130 312 -149 548 -6 79 -10 558 -10 1232 l0 1104 425 0 425 0 0 -1063z m3193
1011 c103 -156 486 -743 526 -805 25 -40 48 -73 51 -73 3 0 37 50 75 110 39
61 174 270 300 465 l230 355 499 0 c397 0 496 -3 489 -12 -6 -7 -75 -112 -155
-233 -265 -402 -699 -1058 -811 -1225 -61 -90 -110 -169 -110 -175 0 -5 80
-129 178 -275 98 -146 296 -440 440 -655 144 -214 323 -481 399 -593 75 -112
136 -208 136 -213 0 -5 -212 -9 -508 -9 l-509 0 -100 168 c-365 608 -522 863
-528 863 -7 0 -37 -46 -324 -496 -77 -121 -185 -290 -239 -375 l-99 -155 -507
-2 c-328 -1 -506 1 -506 8 0 8 517 752 971 1399 49 69 111 157 139 197 27 39
53 78 56 87 3 8 -5 30 -19 48 -29 39 -136 197 -383 563 -100 149 -242 359
-315 467 -286 421 -404 598 -407 608 -3 7 158 10 497 10 l500 0 34 -52z"/>
<path d="M13200 13424 c-447 -57 -683 -254 -731 -611 -32 -241 31 -465 177
-622 87 -94 124 -121 475 -349 418 -271 454 -311 454 -502 0 -98 -2 -109 -30
-159 -56 -101 -148 -152 -310 -172 -215 -27 -464 23 -662 132 -90 49 -138 53
-154 12 -6 -17 -9 -92 -7 -184 4 -184 2 -181 113 -234 156 -75 371 -115 620
-115 260 0 463 44 614 132 71 42 186 157 230 231 128 217 143 571 33 796 -47
95 -147 203 -266 285 -50 35 -197 127 -327 204 -273 163 -346 216 -399 286
-100 134 -76 323 53 417 71 51 154 70 305 70 186 -1 275 -23 449 -112 135 -70
159 -77 194 -59 18 10 19 23 19 180 0 101 -4 179 -11 193 -23 50 -187 122
-369 162 -74 16 -392 29 -470 19z"/>
<path d="M15635 13424 c-552 -60 -933 -374 -1079 -889 -47 -167 -60 -272 -60
-510 -1 -238 8 -311 54 -492 123 -478 440 -779 930 -885 92 -20 134 -22 340
-23 187 0 253 4 324 18 528 107 868 451 976 986 80 401 35 843 -117 1146 -167
332 -449 542 -841 625 -74 16 -144 22 -292 25 -107 1 -213 1 -235 -1z m385
-400 c41 -9 113 -34 160 -56 68 -33 100 -57 171 -127 73 -73 94 -102 133 -182
85 -175 119 -357 119 -644 0 -389 -85 -647 -273 -832 -127 -125 -286 -183
-504 -183 -231 0 -386 55 -518 182 -206 200 -307 623 -254 1068 44 363 181
596 422 718 150 76 346 96 544 56z"/>
<path d="M15634 12930 c-172 -45 -305 -154 -389 -320 -76 -151 -108 -319 -109
-575 0 -283 29 -439 115 -613 114 -230 288 -332 565 -332 295 0 476 111 595
364 128 273 140 776 26 1088 -75 207 -234 351 -433 393 -99 21 -282 18 -370
-5z"/>
<path d="M8661 13381 c-10 -6 -12 -22 -9 -52 3 -24 94 -314 202 -644 109 -330
286 -868 393 -1195 260 -791 262 -799 294 -834 l27 -31 275 -3 275 -3 35 31
c36 31 69 103 116 251 11 35 41 125 66 199 91 262 288 838 370 1080 93 275
306 898 354 1034 33 95 39 144 19 164 -9 9 -69 12 -209 12 -167 0 -199 -2
-210 -16 -7 -9 -50 -133 -96 -277 -46 -144 -113 -352 -148 -462 -35 -110 -130
-407 -210 -660 -295 -926 -276 -874 -307 -862 -14 5 -51 112 -127 362 -125
416 -574 1864 -584 1885 l-12 25 -250 2 c-138 2 -256 -1 -264 -6z"/>
<path d="M11474 13390 c-17 -3 -33 -15 -41 -30 -10 -20 -12 -296 -10 -1353 2
-1302 2 -1329 21 -1343 16 -11 67 -14 246 -14 207 0 228 2 243 18 16 17 17
126 17 1359 0 1078 -3 1343 -13 1351 -13 11 -409 21 -463 12z"/>
<path d="M3847 13240 c-87 -22 -154 -85 -184 -174 -27 -80 -23 -208 9 -277 49
-105 117 -150 239 -157 61 -3 85 0 120 15 65 29 113 75 140 135 21 45 24 68
23 158 0 117 -17 168 -73 228 -58 62 -183 95 -274 72z"/>
<path d="M4670 13095 l0 -155 93 0 c149 0 202 40 202 155 0 115 -53 155 -202
155 l-93 0 0 -155z"/>
<path d="M7471 13032 c-35 -98 -66 -183 -68 -189 -4 -10 26 -13 131 -13 75 0
136 4 136 9 0 4 -27 81 -60 170 -33 89 -60 168 -60 176 0 46 -23 2 -79 -153z"/>
<path d="M3695 11923 c-195 -43 -352 -181 -421 -368 -18 -48 -19 -131 -22
-2070 -2 -1394 1 -2035 8 -2070 16 -76 78 -192 136 -254 59 -63 133 -111 232
-150 l67 -26 2025 0 2025 0 75 29 c176 68 294 190 353 366 l22 65 0 2010 0
2010 -23 72 c-44 140 -158 275 -286 338 -119 58 13 55 -2166 54 -1103 -1
-2014 -3 -2025 -6z m3580 -783 c33 -11 114 -53 179 -93 l120 -72 101 -3 102
-4 61 -103 62 -102 -26 -58 c-34 -73 -35 -161 -4 -360 27 -177 37 -398 21
-491 -60 -346 -446 -597 -921 -598 -80 0 -179 6 -220 13 -162 29 -382 114
-534 205 -32 20 -60 36 -63 36 -2 0 -77 48 -166 107 -176 116 -286 173 -330
173 -43 0 -87 -28 -103 -65 -20 -48 -18 -163 7 -372 50 -433 16 -738 -112
-1001 -136 -277 -345 -479 -589 -567 -99 -36 -254 -45 -350 -21 -106 27 -273
117 -414 222 -71 53 -156 111 -190 130 -65 35 -160 64 -212 64 -31 0 -36 6
-93 106 l-61 106 20 29 c55 76 59 100 58 319 -1 186 0 211 20 271 45 135 162
276 337 405 95 70 462 306 582 375 18 10 71 42 117 71 47 29 155 96 242 148
86 52 175 107 198 121 23 15 244 148 491 296 248 149 513 311 590 360 327 210
585 332 773 368 99 19 228 13 307 -15z"/>
<path d="M6905 11036 c-77 -18 -124 -37 -265 -107 -235 -117 -463 -274 -621
-426 -154 -149 -219 -263 -227 -398 -11 -205 184 -429 513 -590 231 -113 459
-168 700 -168 237 -1 388 43 550 158 76 54 109 92 162 184 63 111 87 221 86
396 -1 115 -6 158 -27 240 -61 235 -146 395 -285 531 -129 129 -253 185 -421
190 -66 2 -127 -2 -165 -10z"/>
<path d="M5568 10297 c-240 -124 -542 -324 -536 -354 6 -29 52 -53 128 -67 49
-10 105 -30 163 -60 48 -25 95 -46 105 -46 9 0 40 19 67 41 28 23 83 57 124
75 l74 34 -7 88 c-6 76 -3 102 19 186 25 98 25 154 -2 163 -6 2 -67 -25 -135
-60z"/>
<path d="M4901 9779 c-199 -33 -526 -192 -786 -383 -83 -60 -75 -53 -165 -141
-147 -144 -209 -269 -217 -445 -6 -124 14 -214 73 -333 75 -149 254 -354 413
-470 208 -153 431 -200 631 -132 298 102 538 431 632 868 18 83 22 136 22 287
1 198 -5 242 -55 401 -88 282 -266 394 -548 348z"/>
<path d="M8651 9098 c5 -1170 5 -1153 49 -1329 42 -162 126 -306 260 -440 186
-186 346 -259 655 -296 114 -13 241 -16 685 -17 l545 -1 3 268 2 267 -474 0
c-283 0 -506 4 -553 11 -212 29 -374 131 -441 278 -57 124 -55 84 -59 1279
l-4 1102 -337 0 -337 0 6 -1122z"/>
<path d="M11120 9166 c0 -633 4 -1105 10 -1182 26 -326 85 -480 243 -638 179
-179 431 -293 752 -342 150 -23 574 -26 734 -6 504 64 875 312 980 655 63 207
71 376 71 1570 l0 997 -340 0 -340 0 0 -1033 c0 -651 -4 -1064 -10 -1117 -32
-257 -118 -408 -281 -489 -123 -62 -202 -76 -424 -76 -218 0 -303 14 -422 71
-170 81 -258 235 -292 509 -7 60 -11 428 -11 1113 l0 1022 -335 0 -335 0 0
-1054z"/>
<path d="M14382 9950 c101 -148 246 -363 323 -477 480 -710 575 -854 570 -864
-13 -20 -305 -439 -703 -1008 -221 -315 -402 -577 -402 -582 0 -4 177 -8 394
-9 l394 0 34 52 c19 29 72 112 118 183 46 72 102 159 125 195 23 36 120 187
215 335 95 149 185 289 200 313 l28 43 122 -203 c68 -112 198 -327 290 -478
91 -151 189 -312 216 -357 l49 -83 403 0 c315 0 401 3 396 13 -9 14 -430 642
-820 1222 -147 220 -268 409 -268 420 0 11 160 261 355 555 195 294 424 639
507 765 l151 230 -386 3 c-303 2 -389 -1 -395 -10 -4 -7 -119 -184 -256 -394
-136 -209 -279 -428 -317 -487 -37 -59 -72 -107 -75 -107 -4 0 -62 84 -129
188 -68 103 -213 327 -325 497 l-202 310 -397 3 -397 2 182 -270z"/>
</g>
</svg>
