<?xml version="1.0" encoding="UTF-8"?>
<!DOCTYPE svg PUBLIC "-//W3C//DTD SVG 1.1//EN" "http://www.w3.org/Graphics/SVG/1.1/DTD/svg11.dtd">
<svg xmlns="http://www.w3.org/2000/svg" version="1.1" width="307px" height="105px" style="shape-rendering:geometricPrecision; text-rendering:geometricPrecision; image-rendering:optimizeQuality; fill-rule:evenodd; clip-rule:evenodd" xmlns:xlink="http://www.w3.org/1999/xlink">
<g><path style="opacity:0.794" fill="#fc2d33" d="M 76.5,14.5 C 75.653,15.9663 74.3197,16.7996 72.5,17C 70.1902,17.4966 67.8568,17.6633 65.5,17.5C 62.4036,16.8772 59.4036,15.8772 56.5,14.5C 55.6143,15.325 55.281,16.325 55.5,17.5C 57.8568,17.3367 60.1902,17.5034 62.5,18C 63.056,18.3826 63.3893,18.8826 63.5,19.5C 63.1667,20.1667 62.8333,20.8333 62.5,21.5C 60.1944,21.9926 57.861,22.3259 55.5,22.5C 53.2646,22.2053 51.2646,22.5386 49.5,23.5C 45.9336,23.2078 42.9336,21.8744 40.5,19.5C 42.8109,17.9318 45.4776,17.0984 48.5,17C 49.7112,16.1072 49.7112,15.2739 48.5,14.5C 44.9515,15.9702 41.2849,16.9702 37.5,17.5C 34.8333,17.5 32.1667,17.5 29.5,17.5C 29.1667,16.8333 28.8333,16.1667 28.5,15.5C 34.643,10.8742 41.643,8.5409 49.5,8.5C 49.5,6.16667 49.5,3.83333 49.5,1.5C 51.5,1.5 53.5,1.5 55.5,1.5C 55.5,3.83333 55.5,6.16667 55.5,8.5C 62.9979,8.88978 69.9979,10.8898 76.5,14.5 Z"/></g>
<g><path style="opacity:0.843" fill="#622628" d="M 28.5,15.5 C 28.8333,16.1667 29.1667,16.8333 29.5,17.5C 28.209,17.7373 27.209,17.404 26.5,16.5C 26.8417,15.6618 27.5084,15.3284 28.5,15.5 Z"/></g>
<g><path style="opacity:0.786" fill="#fc2c32" d="M 26.5,16.5 C 27.209,17.404 28.209,17.7373 29.5,17.5C 30.2905,18.4013 31.2905,19.0679 32.5,19.5C 33.1667,19.5 33.5,19.8333 33.5,20.5C 23.1595,26.6475 17.6595,35.6475 17,47.5C 18.875,42.5102 20.875,37.5102 23,32.5C 26.4029,27.5949 30.5695,23.5949 35.5,20.5C 36.8333,20.5 38.1667,20.5 39.5,20.5C 39.5,22.1667 39.5,23.8333 39.5,25.5C 20.1853,39.6247 18.5187,55.6247 34.5,73.5C 36.8505,74.8611 39.1838,76.1944 41.5,77.5C 44.1471,79.5513 44.1471,81.5513 41.5,83.5C 39.4357,83.313 37.4357,82.813 35.5,82C 33.2657,80.2502 30.9324,78.7502 28.5,77.5C 31.6311,81.9091 35.9644,84.5758 41.5,85.5C 42.209,86.404 43.209,86.7373 44.5,86.5C 46.2385,87.4339 47.9052,87.4339 49.5,86.5C 47.9547,85.5481 46.288,85.2148 44.5,85.5C 44.0254,82.9179 44.6921,80.9179 46.5,79.5C 46.8333,79.5 47.1667,79.5 47.5,79.5C 50.8333,80.8333 54.1667,80.8333 57.5,79.5C 58.1667,79.5 58.8333,79.5 59.5,79.5C 61.5969,80.8786 61.9302,82.5453 60.5,84.5C 53.8327,86.4749 53.8327,87.1416 60.5,86.5C 62.099,86.7678 63.4324,86.4345 64.5,85.5C 78.835,79.8665 86.5017,69.5331 87.5,54.5C 84.8009,68.29 77.1342,77.9566 64.5,83.5C 61.9469,81.2955 61.9469,78.9621 64.5,76.5C 75.0597,71.3687 80.393,62.8687 80.5,51C 80.1594,38.8458 74.4927,30.3458 63.5,25.5C 64.8264,23.8049 64.4931,22.4716 62.5,21.5C 64.4352,20.8505 66.4352,20.5172 68.5,20.5C 78.521,26.8654 84.8544,35.8654 87.5,47.5C 86.6815,35.5455 81.0149,26.5455 70.5,20.5C 72.8976,18.0257 75.8976,16.6924 79.5,16.5C 88.2979,24.986 93.6312,35.3193 95.5,47.5C 101.164,46.4992 103.498,48.8325 102.5,54.5C 100.409,54.3184 98.4086,54.6518 96.5,55.5C 93.7236,71.7592 85.0569,83.5925 70.5,91C 65.609,92.7879 60.609,93.9545 55.5,94.5C 55.5,96.8333 55.5,99.1667 55.5,101.5C 53.5,101.5 51.5,101.5 49.5,101.5C 49.7564,99.2075 49.4231,97.0408 48.5,95C 26.4241,91.2569 13.2574,78.4236 9,56.5C 7.30054,55.5939 5.4672,55.2606 3.5,55.5C 3.5,52.8333 3.5,50.1667 3.5,47.5C 5.28801,47.7852 6.95467,47.4519 8.5,46.5C 10.4407,33.9341 16.4407,23.9341 26.5,16.5 Z M 33.5,20.5 C 34.1667,20.5 34.8333,20.5 35.5,20.5C 30.5695,23.5949 26.4029,27.5949 23,32.5C 20.875,37.5102 18.875,42.5102 17,47.5C 17.6595,35.6475 23.1595,26.6475 33.5,20.5 Z M 68.5,20.5 C 69.1667,20.5 69.8333,20.5 70.5,20.5C 81.0149,26.5455 86.6815,35.5455 87.5,47.5C 84.8544,35.8654 78.521,26.8654 68.5,20.5 Z M 49.5,23.5 C 51.2646,22.5386 53.2646,22.2053 55.5,22.5C 54.3886,23.6597 53.3886,24.993 52.5,26.5C 51.265,25.6602 50.265,24.6602 49.5,23.5 Z M 39.5,25.5 C 40.675,25.281 41.675,25.6143 42.5,26.5C 40.8693,30.0135 41.536,33.0135 44.5,35.5C 43.0541,37.6179 42.3874,39.9512 42.5,42.5C 40.4727,42.3379 38.4727,42.5045 36.5,43C 35.6662,45.6734 34.3329,48.0067 32.5,50C 35.4279,53.4312 38.0946,53.2645 40.5,49.5C 39.8627,48.218 39.8627,47.218 40.5,46.5C 41.6586,50.122 41.8253,53.7887 41,57.5C 38.7683,59.2967 37.6017,61.63 37.5,64.5C 38.0719,69.1353 39.4053,73.4686 41.5,77.5C 39.1838,76.1944 36.8505,74.8611 34.5,73.5C 18.5187,55.6247 20.1853,39.6247 39.5,25.5 Z M 63.5,25.5 C 74.4927,30.3458 80.1594,38.8458 80.5,51C 80.393,62.8687 75.0597,71.3687 64.5,76.5C 65.9557,72.4098 67.289,68.2431 68.5,64C 67.9022,61.5208 66.7355,59.3541 65,57.5C 64.3333,55.1667 64.3333,52.8333 65,50.5C 67.9985,53.4124 70.1652,52.9124 71.5,49C 70.6345,45.4947 68.6345,42.9947 65.5,41.5C 64.8333,41.8333 64.1667,42.1667 63.5,42.5C 62.6509,40.1065 61.6509,37.7731 60.5,35.5C 61.5312,34.2997 62.3645,32.9663 63,31.5C 63.0395,29.2755 63.2062,27.2755 63.5,25.5 Z M 63.5,46.5 C 65.6456,46.6964 65.8122,47.6964 64,49.5C 63.5172,48.552 63.3505,47.552 63.5,46.5 Z M 64.5,85.5 C 64.5,84.8333 64.5,84.1667 64.5,83.5C 77.1342,77.9566 84.8009,68.29 87.5,54.5C 86.5017,69.5331 78.835,79.8665 64.5,85.5 Z M 28.5,77.5 C 23.3852,74.196 19.8852,69.5294 18,63.5C 17.005,60.8738 16.6717,58.2071 17,55.5C 18.8759,60.5262 20.8759,65.5262 23,70.5C 25.3245,72.5008 27.1579,74.8342 28.5,77.5 Z M 41.5,64.5 C 42.7027,65.9425 43.2027,67.6092 43,69.5C 41.7308,68.0953 41.2308,66.4286 41.5,64.5 Z M 63.5,64.5 C 64.4646,65.7211 64.298,67.0544 63,68.5C 62.4209,67.0715 62.5876,65.7382 63.5,64.5 Z M 28.5,77.5 C 30.9324,78.7502 33.2657,80.2502 35.5,82C 37.4357,82.813 39.4357,83.313 41.5,83.5C 41.5,84.1667 41.5,84.8333 41.5,85.5C 35.9644,84.5758 31.6311,81.9091 28.5,77.5 Z M 59.5,79.5 C 58.8333,79.5 58.1667,79.5 57.5,79.5C 58.5477,77.0673 59.2144,77.0673 59.5,79.5 Z M 60.5,84.5 C 60.5,85.1667 60.5,85.8333 60.5,86.5C 53.8327,87.1416 53.8327,86.4749 60.5,84.5 Z M 44.5,86.5 C 44.5,86.1667 44.5,85.8333 44.5,85.5C 46.288,85.2148 47.9547,85.5481 49.5,86.5C 47.9052,87.4339 46.2385,87.4339 44.5,86.5 Z"/></g>
<g><path style="opacity:0.686" fill="#a3292b" d="M 29.5,17.5 C 32.1667,17.5 34.8333,17.5 37.5,17.5C 37.5,17.8333 37.5,18.1667 37.5,18.5C 35.5853,18.2155 33.9187,18.5489 32.5,19.5C 31.2905,19.0679 30.2905,18.4013 29.5,17.5 Z"/></g>
<g><path style="opacity:0.937" fill="#4b2526" d="M 76.5,14.5 C 78.0269,14.427 79.0269,15.0937 79.5,16.5C 75.8976,16.6924 72.8976,18.0257 70.5,20.5C 69.8333,20.5 69.1667,20.5 68.5,20.5C 66.4352,20.5172 64.4352,20.8505 62.5,21.5C 62.8333,20.8333 63.1667,20.1667 63.5,19.5C 64.5,19.1667 65.1667,18.5 65.5,17.5C 67.8568,17.6633 70.1902,17.4966 72.5,17C 74.3197,16.7996 75.653,15.9663 76.5,14.5 Z"/></g>
<g><path style="opacity:0.814" fill="#232223" d="M 32.5,19.5 C 33.9187,18.5489 35.5853,18.2155 37.5,18.5C 38.609,18.5569 39.609,18.8902 40.5,19.5C 42.9336,21.8744 45.9336,23.2078 49.5,23.5C 50.265,24.6602 51.265,25.6602 52.5,26.5C 53.3886,24.993 54.3886,23.6597 55.5,22.5C 57.861,22.3259 60.1944,21.9926 62.5,21.5C 64.4931,22.4716 64.8264,23.8049 63.5,25.5C 63.2062,27.2755 63.0395,29.2755 63,31.5C 62.3645,32.9663 61.5312,34.2997 60.5,35.5C 61.6509,37.7731 62.6509,40.1065 63.5,42.5C 64.1667,42.1667 64.8333,41.8333 65.5,41.5C 68.6345,42.9947 70.6345,45.4947 71.5,49C 70.1652,52.9124 67.9985,53.4124 65,50.5C 64.3333,52.8333 64.3333,55.1667 65,57.5C 66.7355,59.3541 67.9022,61.5208 68.5,64C 67.289,68.2431 65.9557,72.4098 64.5,76.5C 61.9469,78.9621 61.9469,81.2955 64.5,83.5C 64.5,84.1667 64.5,84.8333 64.5,85.5C 63.4324,86.4345 62.099,86.7678 60.5,86.5C 60.5,85.8333 60.5,85.1667 60.5,84.5C 61.9302,82.5453 61.5969,80.8786 59.5,79.5C 59.2144,77.0673 58.5477,77.0673 57.5,79.5C 54.1667,80.8333 50.8333,80.8333 47.5,79.5C 47.1667,76.8333 46.8333,76.8333 46.5,79.5C 44.6921,80.9179 44.0254,82.9179 44.5,85.5C 44.5,85.8333 44.5,86.1667 44.5,86.5C 43.209,86.7373 42.209,86.404 41.5,85.5C 41.5,84.8333 41.5,84.1667 41.5,83.5C 44.1471,81.5513 44.1471,79.5513 41.5,77.5C 39.4053,73.4686 38.0719,69.1353 37.5,64.5C 37.6017,61.63 38.7683,59.2967 41,57.5C 41.8253,53.7887 41.6586,50.122 40.5,46.5C 39.8627,47.218 39.8627,48.218 40.5,49.5C 38.0946,53.2645 35.4279,53.4312 32.5,50C 34.3329,48.0067 35.6662,45.6734 36.5,43C 38.4727,42.5045 40.4727,42.3379 42.5,42.5C 42.3874,39.9512 43.0541,37.6179 44.5,35.5C 41.536,33.0135 40.8693,30.0135 42.5,26.5C 41.675,25.6143 40.675,25.281 39.5,25.5C 39.5,23.8333 39.5,22.1667 39.5,20.5C 38.1667,20.5 36.8333,20.5 35.5,20.5C 34.8333,20.5 34.1667,20.5 33.5,20.5C 33.5,19.8333 33.1667,19.5 32.5,19.5 Z M 49.5,23.5 C 51.2646,22.5386 53.2646,22.2053 55.5,22.5C 54.3886,23.6597 53.3886,24.993 52.5,26.5C 51.265,25.6602 50.265,24.6602 49.5,23.5 Z M 63.5,46.5 C 63.3505,47.552 63.5172,48.552 64,49.5C 65.8122,47.6964 65.6456,46.6964 63.5,46.5 Z M 41.5,64.5 C 41.2308,66.4286 41.7308,68.0953 43,69.5C 43.2027,67.6092 42.7027,65.9425 41.5,64.5 Z M 63.5,64.5 C 62.5876,65.7382 62.4209,67.0715 63,68.5C 64.298,67.0544 64.4646,65.7211 63.5,64.5 Z M 59.5,79.5 C 58.8333,79.5 58.1667,79.5 57.5,79.5C 58.5477,77.0673 59.2144,77.0673 59.5,79.5 Z"/></g>
<g><path style="opacity:0.866" fill="#212122" d="M 122.5,23.5 C 182.5,23.5 242.5,23.5 302.5,23.5C 302.302,28.2618 300.635,32.4285 297.5,36C 244.497,36.1667 191.497,36.6667 138.5,37.5C 137.399,39.6416 136.399,41.8083 135.5,44C 139.152,44.4986 142.818,44.6653 146.5,44.5C 145.955,48.4709 144.621,52.1376 142.5,55.5C 138.167,56.1667 133.833,56.8333 129.5,57.5C 126.399,64.309 123.399,71.1424 120.5,78C 113.5,78.6667 106.5,78.6667 99.5,78C 99.1667,77.6667 98.8333,77.3333 98.5,77C 106.674,59.1585 114.674,41.3251 122.5,23.5 Z"/></g>
<g><path style="opacity:0.815" fill="#222223" d="M 285.5,43.5 C 289.897,43.4246 294.23,43.9246 298.5,45C 302.235,48.5037 302.235,52.1704 298.5,56C 295.5,56.3333 292.5,56.6667 289.5,57C 296.635,61.3188 297.469,66.8188 292,73.5C 284.223,79.772 275.723,80.9387 266.5,77C 264.1,73.2217 264.267,69.3884 267,65.5C 269.74,64.7178 272.574,64.2178 275.5,64C 270.325,58.6414 270.325,53.1414 275.5,47.5C 278.722,45.5454 282.056,44.212 285.5,43.5 Z M 286.5,52.5 C 286.798,55.3356 286.131,55.8356 284.5,54C 285.044,53.2828 285.711,52.7828 286.5,52.5 Z M 279.5,66.5 C 280.94,68.4199 280.607,70.0866 278.5,71.5C 278.167,71.3333 277.833,71.1667 277.5,71C 278.582,69.6703 279.249,68.1703 279.5,66.5 Z"/></g>
<g><path style="opacity:0.837" fill="#222223" d="M 152.5,74.5 C 151.751,75.531 151.085,76.6976 150.5,78C 145.845,78.4992 141.179,78.6658 136.5,78.5C 140.776,67.3386 145.443,56.3386 150.5,45.5C 158.584,44.0656 166.584,44.2323 174.5,46C 177.682,52.4553 176.015,57.4553 169.5,61C 170.591,63.0639 170.758,65.2305 170,67.5C 168.279,71.1103 166.446,74.6103 164.5,78C 160.514,78.4988 156.514,78.6655 152.5,78.5C 152.5,77.1667 152.5,75.8333 152.5,74.5 Z M 154.5,70.5 C 154.771,72.3797 154.104,73.713 152.5,74.5C 152.229,72.6203 152.896,71.287 154.5,70.5 Z"/></g>
<g><path style="opacity:0.817" fill="#222223" d="M 191.5,76.5 C 183.772,78.4179 175.772,79.0846 167.5,78.5C 172.612,67.3752 177.279,56.0419 181.5,44.5C 188.833,44.5 196.167,44.5 203.5,44.5C 203.211,51.4464 199.544,54.4464 192.5,53.5C 192.167,54.1667 191.833,54.8333 191.5,55.5C 193.396,56.4656 195.396,56.7989 197.5,56.5C 197.557,63.0336 194.224,66.0336 187.5,65.5C 186.05,66.8498 185.383,68.5165 185.5,70.5C 188.448,70.2229 191.281,70.5562 194,71.5C 198.321,62.7025 202.154,53.7025 205.5,44.5C 210.648,43.9264 215.482,44.593 220,46.5C 224.582,45.1977 229.415,44.531 234.5,44.5C 239.585,44.531 244.418,45.1977 249,46.5C 249.5,46 250,45.5 250.5,45C 256.825,44.5005 263.158,44.3338 269.5,44.5C 266.915,55.7571 264.582,67.0904 262.5,78.5C 257.833,78.5 253.167,78.5 248.5,78.5C 249.617,70.7199 248.284,70.5532 244.5,78C 239.845,78.4992 235.179,78.6658 230.5,78.5C 234.405,69.4115 239.405,60.9115 245.5,53C 243.098,52.1859 240.765,52.3526 238.5,53.5C 234.841,61.4654 231.174,69.4654 227.5,77.5C 222.833,78.8333 218.167,78.8333 213.5,77.5C 216.88,69.1906 220.546,61.0239 224.5,53C 221.953,52.9326 219.786,52.0993 218,50.5C 213.822,59.7184 209.655,68.8851 205.5,78C 201.167,78.6667 196.833,78.6667 192.5,78C 191.944,77.6174 191.611,77.1174 191.5,76.5 Z M 248.5,58.5 C 253.179,58.3342 257.845,58.5008 262.5,59C 259.333,59.5 257.5,61.3333 257,64.5C 256.275,63.9415 255.442,63.6082 254.5,63.5C 251.972,64.9415 249.305,65.4415 246.5,65C 245.941,64.2753 245.608,63.4419 245.5,62.5C 246.286,60.9589 247.286,59.6256 248.5,58.5 Z M 191.5,76.5 C 191.312,74.8967 191.812,73.5634 193,72.5C 193.348,74.1398 192.848,75.4732 191.5,76.5 Z"/></g>
<g><path style="opacity:0.631" fill="#222223" d="M 98.5,80.5 C 111.057,79.1848 114.724,84.0182 109.5,95C 105.914,96.1076 102.247,96.6076 98.5,96.5C 98.5,91.1667 98.5,85.8333 98.5,80.5 Z M 103.5,85.5 C 107.184,87.2033 107.351,89.2033 104,91.5C 103.505,89.5273 103.338,87.5273 103.5,85.5 Z"/></g>
<g><path style="opacity:0.604" fill="#222223" d="M 117.5,80.5 C 121.5,80.5 125.5,80.5 129.5,80.5C 128.436,85.5142 128.27,90.5142 129,95.5C 125.27,96.4601 121.437,96.7935 117.5,96.5C 117.5,91.1667 117.5,85.8333 117.5,80.5 Z"/></g>
<g><path style="opacity:0.658" fill="#222223" d="M 134.5,80.5 C 141.916,78.6145 146.583,81.2811 148.5,88.5C 148.03,90.7738 147.03,92.7738 145.5,94.5C 142.009,96.0942 138.342,96.7609 134.5,96.5C 134.5,91.1667 134.5,85.8333 134.5,80.5 Z M 139.5,85.5 C 143.184,87.2033 143.351,89.2033 140,91.5C 139.505,89.5273 139.338,87.5273 139.5,85.5 Z"/></g>
<g><path style="opacity:0.598" fill="#222223" d="M 152.5,80.5 C 156.5,80.5 160.5,80.5 164.5,80.5C 164.5,85.8333 164.5,91.1667 164.5,96.5C 160.563,96.7935 156.73,96.4601 153,95.5C 152.501,90.5111 152.334,85.5111 152.5,80.5 Z"/></g>
<g><path style="opacity:0.62" fill="#222223" d="M 169.5,80.5 C 173.5,80.5 177.5,80.5 181.5,80.5C 181.5,82.1667 181.5,83.8333 181.5,85.5C 180.5,85.5 179.5,85.5 178.5,85.5C 178.665,88.8499 178.498,92.1832 178,95.5C 176.333,96.8333 174.667,96.8333 173,95.5C 172.502,92.1832 172.335,88.8499 172.5,85.5C 171.5,85.5 170.5,85.5 169.5,85.5C 169.5,83.8333 169.5,82.1667 169.5,80.5 Z"/></g>
<g><path style="opacity:0.498" fill="#222223" d="M 186.5,80.5 C 188.167,80.5 189.833,80.5 191.5,80.5C 191.5,85.8333 191.5,91.1667 191.5,96.5C 189.533,96.7394 187.699,96.4061 186,95.5C 185.222,90.4158 185.389,85.4158 186.5,80.5 Z"/></g>
<g><path style="opacity:0.606" fill="#222223" d="M 196.5,80.5 C 200.833,80.5 205.167,80.5 209.5,80.5C 209.66,82.1992 209.494,83.8659 209,85.5C 207.122,87.0429 205.622,88.8762 204.5,91C 206.134,91.4935 207.801,91.6602 209.5,91.5C 209.5,93.1667 209.5,94.8333 209.5,96.5C 205.167,96.5 200.833,96.5 196.5,96.5C 196.169,92.4954 197.503,89.1621 200.5,86.5C 199.311,85.5713 197.978,85.238 196.5,85.5C 196.5,83.8333 196.5,82.1667 196.5,80.5 Z"/></g>
<g><path style="opacity:0.665" fill="#212122" d="M 218.5,80.5 C 220.288,80.2148 221.955,80.5481 223.5,81.5C 225.492,85.7987 227.492,90.1321 229.5,94.5C 229,95.8805 228,96.5472 226.5,96.5C 224.471,95.4488 222.637,94.1155 221,92.5C 219.286,93.0762 218.119,94.2429 217.5,96C 215.866,96.4935 214.199,96.6602 212.5,96.5C 214.31,91.0675 216.31,85.7342 218.5,80.5 Z"/></g>
<g><path style="opacity:0.619" fill="#222223" d="M 232.5,80.5 C 240.215,78.3983 245.215,81.0649 247.5,88.5C 244.988,95.5092 240.155,97.8426 233,95.5C 232.501,90.5111 232.334,85.5111 232.5,80.5 Z M 238.5,85.5 C 242.279,87.0626 242.445,89.0626 239,91.5C 238.505,89.5273 238.338,87.5273 238.5,85.5 Z"/></g>
<g><path style="opacity:0.647" fill="#212122" d="M 255.5,80.5 C 263.605,79.7715 267.105,83.4382 266,91.5C 261.781,97.7419 257.115,98.0753 252,92.5C 250.593,87.5994 251.76,83.5994 255.5,80.5 Z M 258.5,85.5 C 260.924,87.2276 261.09,89.2276 259,91.5C 255.898,89.6627 255.731,87.6627 258.5,85.5 Z"/></g>
<g><path style="opacity:0.659" fill="#212122" d="M 271.5,80.5 C 274.85,80.335 278.183,80.5017 281.5,81C 284.978,83.7065 285.311,86.7065 282.5,90C 283.833,91.6667 285.167,93.3333 286.5,95C 282.084,97.5726 278.917,96.406 277,91.5C 276.506,93.1341 276.34,94.8008 276.5,96.5C 274.833,96.5 273.167,96.5 271.5,96.5C 271.5,91.1667 271.5,85.8333 271.5,80.5 Z"/></g>
<g><path style="opacity:0.679" fill="#212122" d="M 293.5,80.5 C 295.288,80.2148 296.955,80.5481 298.5,81.5C 301.161,86.1501 302.828,91.1501 303.5,96.5C 302.127,96.6567 300.793,96.49 299.5,96C 297.167,91.3333 294.833,91.3333 292.5,96C 290.866,96.4935 289.199,96.6602 287.5,96.5C 288.928,90.9735 290.928,85.6402 293.5,80.5 Z"/></g>
</svg>
